<?xml version="1.0" encoding="UTF-8"?>
<!DOCTYPE svg PUBLIC "-//W3C//DTD SVG 1.1//EN" "http://www.w3.org/Graphics/SVG/1.1/DTD/svg11.dtd">
<!-- Creator: CorelDRAW X8 -->
<svg xmlns="http://www.w3.org/2000/svg" xml:space="preserve" width="94px" height="94px" version="1.1" style="shape-rendering:geometricPrecision; text-rendering:geometricPrecision; image-rendering:optimizeQuality; fill-rule:evenodd; clip-rule:evenodd"
viewBox="0 0 94 94"
 xmlns:xlink="http://www.w3.org/1999/xlink">
 <defs>
  <style type="text/css">
   <![CDATA[
    .fil2 {fill:#D2A351}
    .fil1 {fill:#FEFEFE;fill-rule:nonzero}
    .fil0 {fill:#D2A351;fill-rule:nonzero}
   ]]>
  </style>
 </defs>
 <g id="Layer_x0020_1">
  <metadata id="CorelCorpID_0Corel-Layer"/>
  <path class="fil0" d="M47 89c12,0 22,-5 30,-12 7,-8 12,-18 12,-30 0,-12 -5,-22 -12,-30 -8,-7 -18,-12 -30,-12 -12,0 -22,5 -30,12 -7,8 -12,18 -12,30 0,12 5,22 12,30 8,7 18,12 30,12zm32 -10c-8,8 -20,13 -32,13 -12,0 -24,-5 -32,-13 -8,-8 -13,-20 -13,-32 0,-12 5,-24 13,-32 8,-8 20,-13 32,-13 12,0 24,5 32,13 8,8 13,20 13,32 0,12 -5,24 -13,32z"/>
  <path class="fil1" d="M-48 50l1 0 3 -9 2 0 3 9 1 0 0 2 -3 0 0 -2 0 0 0 -1 -4 0 0 1 1 0 0 2 -4 0 0 -2zm4 -3l2 0 -1 -4 0 0 -1 4zm8 3c0,-1 0,-1 0,-2 1,0 1,-1 1,-2l0 -1 -1 0 0 -1 7 0 1 0 0 1 -1 0 0 5 1 0 0 4 -2 0 0 -2 -5 0 0 2 -2 0 0 -4 1 0zm3 -4c0,1 0,2 0,2 -1,1 -1,1 -1,2l3 0 0 -5 -2 0 0 1zm10 -2c2,0 2,0 3,0 1,1 1,1 1,2 0,0 0,1 -1,1 0,0 0,0 -1,0 1,1 1,1 2,1 0,0 0,1 0,1 0,1 0,2 -1,2 0,0 -1,1 -2,1l-5 0 0 -2 1 0 0 -5 -1 0 0 -1 1 0 3 0zm-1 4l0 2 2 0c0,0 1,0 1,0 0,0 0,-1 0,-1 0,0 0,0 0,-1 0,0 -1,0 -1,0l-2 0zm0 -1l2 0c0,0 0,0 0,0 1,0 1,-1 1,-1 0,0 0,0 -1,-1 0,0 0,0 -1,0l-1 0 0 2zm6 0c0,-1 1,-2 1,-2 1,-1 2,-2 3,-2 1,0 2,1 3,2 0,0 1,1 1,2l0 1c0,1 -1,2 -1,3 -1,0 -2,1 -3,1 -1,0 -2,-1 -3,-1 0,-1 -1,-2 -1,-3l0 -1zm2 1c0,0 0,1 1,1 0,1 0,1 1,1 0,0 1,0 1,-1 0,0 1,-1 1,-1l0 -1c0,0 -1,-1 -1,-1 0,-1 -1,-1 -1,-1 -1,0 -1,0 -1,1 -1,0 -1,1 -1,1l0 1zm7 -3l0 -1 4 0 0 1 -1 0 0 2 1 0 1 -2c0,-1 1,-1 1,-1 0,0 1,-1 1,-1 0,0 1,1 1,1 0,0 0,0 0,0l0 1c0,0 0,0 0,0 0,0 0,0 0,0 -1,0 -1,0 -1,0 0,1 0,1 0,1l-1 1 2 3 1 0 0 2 -3 0 -2 -3 -1 0 0 1 1 0 0 2 -4 0 0 -2 1 0 0 -5 -1 0zm14 7c0,-1 0,-1 0,-1 0,0 0,0 0,0 0,0 0,0 -1,0 0,1 -1,1 -1,1 -1,0 -1,-1 -2,-1 0,0 -1,-1 -1,-2 0,0 1,-1 1,-1 1,-1 2,-1 3,-1l1 0 0 -1c0,0 0,0 0,-1 -1,0 -1,0 -1,0 -1,0 -1,0 -1,0 0,0 0,0 0,0l-1 1 -1 0 0 -2c0,0 1,0 1,0 1,0 1,-1 2,-1 1,0 2,1 2,1 1,1 1,1 1,2l0 4c0,0 0,0 0,0 0,0 0,0 0,0l1 0 0 2 -3 0zm-1 -2c0,0 0,0 0,0 1,0 1,0 1,-1l0 -1 -1 0c0,0 -1,0 -1,0 0,1 0,1 0,1 0,1 0,1 0,1 0,0 0,0 1,0zm13 -6l0 2 -2 0 0 -1 -1 0 0 5 1 0 0 2 -5 0 0 -2 1 0 0 -5 -1 0 0 1 -2 0 0 -2 9 0zm4 6c0,0 1,0 1,0 0,-1 0,-1 0,-1l2 0 0 0c0,1 0,1 -1,2 0,0 -1,1 -2,1 -1,0 -2,-1 -3,-1 -1,-1 -1,-2 -1,-3l0 -1c0,-1 0,-2 1,-2 1,-1 2,-2 3,-2 1,0 1,1 2,1 0,0 1,0 1,1l0 2 -2 0 0 -2c0,0 0,0 -1,0 0,0 0,0 0,0 -1,0 -1,0 -1,1 -1,0 -1,1 -1,1l0 1c0,0 0,1 1,1 0,1 0,1 1,1zm8 -6l0 2 1 0c1,0 2,0 3,1 0,0 0,1 0,2 0,1 0,1 0,2 -1,0 -2,1 -3,1l-5 0 0 -2 1 0 0 -5 -1 0 0 -1 1 0 3 0zm0 4l0 2 1 0c0,0 1,0 1,0 0,-1 0,-1 0,-1 0,-1 0,-1 0,-1 0,0 -1,0 -1,0l-1 0zm1 -4l0 1 -1 0 0 -1 1 0zm4 1l0 -1 5 0 0 1 -1 0 0 2 0 0 2 -2c0,-1 0,-1 1,-1 0,0 0,-1 1,-1 0,0 0,1 0,1 1,0 1,0 1,0l0 1c0,0 -1,0 -1,0 0,0 0,0 0,0 0,0 0,0 0,0 0,1 -1,1 -1,1l-1 1 2 3 1 0 0 2 -3 0 -1 -3 -1 0 0 1 1 0 0 2 -5 0 0 -2 2 0 0 -5 -2 0zm14 7c-1,0 -2,-1 -3,-1 -1,-1 -1,-2 -1,-3l0 -1c0,-1 0,-2 1,-2 1,-1 1,-2 2,-2 2,0 2,1 3,1 1,1 1,2 1,3l0 1 -5 0 0 0c0,1 0,1 1,2 0,0 0,0 1,0 0,0 1,0 1,0 0,0 1,0 1,-1l1 2c-1,0 -1,0 -2,0 0,1 -1,1 -1,1zm-1 -7c0,0 0,0 0,1 -1,0 -1,0 -1,1l0 0 3 0 0 0c0,-1 0,-1 -1,-1 0,-1 0,-1 -1,-1zm9 2c0,-1 0,-2 1,-2 0,-1 1,-2 2,-2 1,0 2,1 3,2 1,0 1,1 1,2l0 1c0,1 0,2 -1,3 -1,0 -2,1 -3,1 -1,0 -2,-1 -2,-1 -1,-1 -1,-2 -1,-3l0 -1zm2 1c0,0 0,1 0,1 0,1 1,1 1,1 1,0 1,0 2,-1 0,0 0,-1 0,-1l0 -1c0,0 0,-1 0,-1 -1,-1 -1,-1 -2,-1 0,0 -1,0 -1,1 0,0 0,1 0,1l0 1zm10 -4c1,0 2,0 3,1 0,1 1,2 1,3l0 0c0,1 -1,2 -1,3 -1,0 -2,1 -3,1 -1,0 -2,-1 -3,-1 -1,-1 -1,-2 -1,-3l0 -1c0,-2 0,-3 1,-4 1,-1 2,-2 3,-2 0,0 1,0 1,0 0,0 0,-1 0,-1l2 0 0 0c0,1 0,2 -1,2 0,0 -1,1 -2,1 -1,0 -1,0 -1,0 -1,1 -1,1 -1,2l0 0c0,0 1,-1 1,-1 0,0 1,0 1,0zm0 2c-1,0 -1,0 -1,0 -1,1 -1,1 -1,2l0 0c0,0 0,1 1,1 0,1 0,1 1,1 0,0 1,0 1,-1 0,0 0,0 0,-1l0 0c0,-1 0,-1 0,-2 0,0 -1,0 -1,0zm12 4c0,0 1,0 1,0 0,-1 0,-1 0,-1l2 0 0 0c0,1 0,1 -1,2 0,0 -1,1 -2,1 -1,0 -2,-1 -3,-1 -1,-1 -1,-2 -1,-3l0 -1c0,-1 0,-2 1,-2 1,-1 2,-2 3,-2 1,0 1,1 2,1 0,0 1,0 1,1l0 2 -2 0 0 -2c0,0 0,0 -1,0 0,0 0,0 0,0 -1,0 -1,0 -1,1 -1,0 -1,0 -1,1l0 0 2 0 0 1 -2 0 0 0c0,1 1,1 1,2 0,0 0,0 1,0zm5 0c0,-1 1,-1 1,-2 0,0 0,-1 0,-2l0 -1 -1 0 0 -1 7 0 1 0 0 1 -1 0 0 5 1 0 0 4 -2 0 0 -2 -5 0 0 2 -2 0 0 -4 1 0zm3 -4c0,1 0,2 0,2 0,1 -1,1 -1,2l3 0 0 -5 -2 0 0 1zm6 -1l0 -1 4 0 0 1 -1 0 0 2 3 0 0 -2 -1 0 0 -1 1 0 2 0 1 0 0 1 -1 0 0 5 1 0 0 2 -4 0 0 -2 1 0 0 -2 -3 0 0 2 1 0 0 2 -4 0 0 -2 1 0 0 -5 -1 0zm15 7c0,-1 0,-1 0,-1 0,0 0,0 0,0 0,0 0,0 -1,0 0,1 -1,1 -1,1 -1,0 -1,-1 -2,-1 0,0 -1,-1 -1,-2 0,0 1,-1 1,-1 1,-1 2,-1 3,-1l1 0 0 -1c0,0 0,0 0,-1 0,0 -1,0 -1,0 0,0 -1,0 -1,0 0,0 0,0 0,0l0 1 -2 0 0 -2c0,0 1,0 1,0 1,0 1,-1 2,-1 1,0 2,1 2,1 1,1 1,1 1,2l0 4c0,0 0,0 0,0 0,0 0,0 0,0l1 0 0 2 -3 0zm-1 -2c0,0 0,0 0,0 1,0 1,0 1,-1l0 -1 -1 0c0,0 -1,0 -1,0 0,1 0,1 0,1 0,1 0,1 0,1 0,0 0,0 1,0zm5 -5l0 -1 4 0 0 1 -1 0 0 2 3 0 0 -2 -1 0 0 -1 1 0 2 0 1 0 0 1 -1 0 0 5 1 0 0 2 -4 0 0 -2 1 0 0 -2 -3 0 0 2 1 0 0 2 -4 0 0 -2 1 0 0 -5 -1 0zm10 0l0 -1 4 0 0 1 -1 0 0 2 3 0 0 -2 -1 0 0 -1 1 0 2 0 1 0 0 1 -1 0 0 5 1 0 0 2 -4 0 0 -2 1 0 0 -2 -3 0 0 2 1 0 0 2 -4 0 0 -2 1 0 0 -5 -1 0zm15 5l1 0 0 -1 -2 0 -1 3 -2 0 0 -2 1 0 0 -2c0,0 0,0 -1,0 0,-1 0,-1 0,-2 0,-1 0,-1 1,-2 1,0 1,0 2,0l4 0 1 0 0 1 -1 0 0 5 1 0 0 2 -4 0 0 -2zm-2 -4c0,1 0,1 0,1 1,0 1,0 1,0l2 0 0 -2 -2 0c0,0 0,0 -1,1 0,0 0,0 0,0zm-61 -5c0,1 0,1 0,2 -1,1 -1,1 -1,1l-1 0c0,-1 0,-1 0,-1 0,-1 0,-1 0,-2l0 -1 2 0 0 1z"/>
  <path class="fil2" d="M47 72l-9 0 0 -4 4 0 0 -39 -21 0 0 7 10 0 0 3 -13 0 0 -13 27 0 0 42 2 0 2 0 0 -42 27 0 0 13 -13 0 0 -3 10 0 0 -7 -21 0 0 39 4 0 0 4 -9 0zm12 3l-12 0 -12 0 0 4 12 0 12 0 0 -4zm-12 -56l9 0 0 3 3 0 0 -7 -12 0 -12 0 0 7 3 0 0 -3 9 0zm9 14l0 20c0,6 5,11 11,11 7,0 12,-5 12,-12l0 0 -3 0 0 0c0,5 -4,9 -9,9 -4,0 -8,-4 -8,-9l0 -19 -3 0zm-18 0l0 20c0,6 -5,11 -11,11 -7,0 -12,-5 -12,-12l0 0 3 0 0 0c0,5 4,9 9,9 4,0 8,-4 8,-9l0 -19 3 0z"/>
  <path class="fil0" d="M47 89c12,0 22,-5 30,-12 7,-8 12,-18 12,-30 0,-12 -5,-22 -12,-30 -8,-7 -18,-12 -30,-12 -12,0 -22,5 -30,12 -7,8 -12,18 -12,30 0,12 5,22 12,30 8,7 18,12 30,12zm32 -10c-8,8 -20,13 -32,13 -12,0 -24,-5 -32,-13 -8,-8 -13,-20 -13,-32 0,-12 5,-24 13,-32 8,-8 20,-13 32,-13 12,0 24,5 32,13 8,8 13,20 13,32 0,12 -5,24 -13,32z"/>
 </g>
</svg>
