<?xml version="1.0" encoding="UTF-8"?>
<!DOCTYPE svg PUBLIC "-//W3C//DTD SVG 1.1//EN" "http://www.w3.org/Graphics/SVG/1.1/DTD/svg11.dtd">
<!-- Creator: CorelDRAW X8 -->
<svg xmlns="http://www.w3.org/2000/svg" xml:space="preserve" width="1546px" height="682px" version="1.1" style="shape-rendering:geometricPrecision; text-rendering:geometricPrecision; image-rendering:optimizeQuality; fill-rule:evenodd; clip-rule:evenodd"
viewBox="0 0 1546 682"
 xmlns:xlink="http://www.w3.org/1999/xlink">
 <defs>
  <style type="text/css">
   <![CDATA[
    .fil0 {fill:#FEFEFE;fill-opacity:0.101961}
   ]]>
  </style>
 </defs>
 <g id="Layer_x0020_1">
  <metadata id="CorelCorpID_0Corel-Layer"/>
  <path class="fil0" d="M1412 580l-59 102 193 0 -97 -168 -37 66zm-65 -580l102 178 -96 168 -199 -346 193 0zm-981 647l21 35 -296 -514 97 -168 98 171 62 0 -153 -171 159 0 98 171 -104 0 -62 0 -98 -171 0 0 295 514 -96 168 -1 0 -20 -35zm20 35l-193 0 -96 -168 131 0 151 168 7 0zm575 -682l199 346 83 -145 96 168 -83 145 6 -10 -68 -218 -34 60 96 168 -96 168 -393 -682 194 0zm-387 0l296 514 -97 168 -392 -682 193 0zm-408 682l-166 0 83 -145 83 145zm212 -218l10 31 32 0 -26 18 10 31 -26 -19 -26 19 10 -31 -26 -18 32 0 10 -31zm-49 -85l10 31 32 0 -26 19 10 30 -26 -19 -26 19 10 -30 -26 -19 32 0 10 -31zm-48 -84l9 30 33 0 -26 19 10 30 -26 -18 -26 18 10 -30 -26 -19 32 0 10 -30zm-49 -85l10 31 32 -1 -26 19 10 31 -26 -19 -26 19 10 -31 -26 -19 32 1 10 -31zm-49 -85l10 31 32 0 -26 19 10 30 -26 -19 -26 19 10 -30 -26 -19 32 0 10 -31z"/>
 </g>
</svg>
