<?xml version="1.0" encoding="UTF-8"?>
<!DOCTYPE svg PUBLIC "-//W3C//DTD SVG 1.1//EN" "http://www.w3.org/Graphics/SVG/1.1/DTD/svg11.dtd">
<!-- Creator: CorelDRAW X8 -->
<svg xmlns="http://www.w3.org/2000/svg" xml:space="preserve" width="1181px" height="1181px" version="1.1" style="shape-rendering:geometricPrecision; text-rendering:geometricPrecision; image-rendering:optimizeQuality; fill-rule:evenodd; clip-rule:evenodd"
viewBox="0 0 1181 1181"
 xmlns:xlink="http://www.w3.org/1999/xlink">
 <defs>
  <style type="text/css">
   <![CDATA[
    .str0 {stroke:#FEFEFE;stroke-width:2.362}
    .str1 {stroke:#FEFEFE;stroke-width:0.899922}
    .fil0 {fill:none}
    .fil2 {fill:none;fill-rule:nonzero}
    .fil1 {fill:#FEFEFE}
    .fil3 {fill:#FEFEFE;fill-rule:nonzero}
    .fil4 {fill:#EBECEC;fill-opacity:0.721569}
   ]]>
  </style>
 </defs>
 <g id="Layer_x0020_1">
  <metadata id="CorelCorpID_0Corel-Layer"/>
  <g id="_2873621234320">
   <g>
    <g>
     <rect class="fil0 str0" x="341" y="576" width="61.0341" height="61.0294"/>
     <rect class="fil0 str0" x="402" y="576" width="61.0341" height="61.0294"/>
     <rect class="fil0 str0" x="463" y="576" width="61.0341" height="61.0294"/>
     <rect class="fil0 str0" x="524" y="576" width="61.0341" height="61.0294"/>
     <rect class="fil0 str0" x="585" y="576" width="61.0341" height="61.0294"/>
     <rect class="fil0 str0" x="646" y="576" width="61.0341" height="61.0294"/>
     <rect class="fil0 str0" x="707" y="576" width="61.0341" height="61.0294"/>
     <rect class="fil0 str0" x="768" y="576" width="61.0341" height="61.0294"/>
     <rect class="fil0 str0" x="829" y="576" width="61.0341" height="61.0294"/>
     <rect class="fil0 str0" x="890" y="576" width="61.0341" height="61.0294"/>
     <rect class="fil0 str0" x="341" y="637" width="61.0341" height="61.0294"/>
     <rect class="fil0 str0" x="402" y="637" width="61.0341" height="61.0294"/>
     <rect class="fil0 str0" x="463" y="637" width="61.0341" height="61.0294"/>
     <rect class="fil0 str0" x="524" y="637" width="61.0341" height="61.0294"/>
     <rect class="fil0 str0" x="585" y="637" width="61.0341" height="61.0294"/>
     <rect class="fil0 str0" x="646" y="637" width="61.0341" height="61.0294"/>
     <rect class="fil0 str0" x="707" y="637" width="61.0341" height="61.0294"/>
     <rect class="fil0 str0" x="768" y="637" width="61.0341" height="61.0294"/>
     <rect class="fil0 str0" x="829" y="637" width="61.0341" height="61.0294"/>
     <rect class="fil0 str0" x="890" y="637" width="61.0341" height="61.0294"/>
     <rect class="fil0 str0" x="341" y="454" width="61.0341" height="61.0294"/>
     <rect class="fil0 str0" x="402" y="454" width="61.0341" height="61.0294"/>
     <rect class="fil0 str0" x="463" y="454" width="61.0341" height="61.0294"/>
     <rect class="fil0 str0" x="585" y="454" width="61.0341" height="61.0294"/>
     <rect class="fil0 str0" x="646" y="454" width="61.0341" height="61.0294"/>
     <rect class="fil0 str0" x="707" y="454" width="61.0341" height="61.0294"/>
     <rect class="fil0 str0" x="768" y="454" width="61.0341" height="61.0294"/>
     <rect class="fil0 str0" x="829" y="454" width="61.0341" height="61.0294"/>
     <rect class="fil0 str0" x="890" y="454" width="61.0341" height="61.0294"/>
     <rect class="fil0 str0" x="341" y="515" width="61.0341" height="61.0294"/>
     <rect class="fil0 str0" x="402" y="515" width="61.0341" height="61.0294"/>
     <rect class="fil0 str0" x="463" y="515" width="61.0341" height="61.0294"/>
     <rect class="fil0 str0" x="524" y="515" width="61.0341" height="61.0294"/>
     <rect class="fil0 str0" x="585" y="515" width="61.0341" height="61.0294"/>
     <rect class="fil0 str0" x="646" y="515" width="61.0341" height="61.0294"/>
     <rect class="fil0 str0" x="707" y="515" width="61.0341" height="61.0294"/>
     <rect class="fil0 str0" x="768" y="515" width="61.0341" height="61.0294"/>
     <rect class="fil0 str0" x="829" y="515" width="61.0341" height="61.0294"/>
     <rect class="fil0 str0" x="890" y="515" width="61.0341" height="61.0294"/>
     <rect class="fil0 str0" x="341" y="332" width="61.0341" height="61.0294"/>
     <rect class="fil0 str0" x="402" y="332" width="61.0341" height="61.0294"/>
     <rect class="fil0 str0" x="463" y="332" width="61.0341" height="61.0294"/>
     <rect class="fil0 str0" x="524" y="332" width="61.0341" height="61.0294"/>
     <rect class="fil0 str0" x="585" y="332" width="61.0341" height="61.0294"/>
     <rect class="fil0 str0" x="646" y="332" width="61.0341" height="61.0294"/>
     <rect class="fil0 str0" x="707" y="332" width="61.0341" height="61.0294"/>
     <rect class="fil0 str0" x="768" y="332" width="61.0341" height="61.0294"/>
     <rect class="fil0 str0" x="829" y="332" width="61.0341" height="61.0294"/>
     <rect class="fil0 str0" x="890" y="332" width="61.0341" height="61.0294"/>
     <rect class="fil0 str0" x="341" y="393" width="61.0341" height="61.0294"/>
     <rect class="fil0 str0" x="402" y="393" width="61.0341" height="61.0294"/>
     <rect class="fil0 str0" x="463" y="393" width="61.0341" height="61.0294"/>
     <rect class="fil0 str0" x="524" y="393" width="61.0341" height="61.0294"/>
     <rect class="fil0 str0" x="585" y="393" width="61.0341" height="61.0294"/>
     <rect class="fil0 str0" x="646" y="393" width="61.0341" height="61.0294"/>
     <rect class="fil0 str0" x="707" y="393" width="61.0341" height="61.0294"/>
     <rect class="fil0 str0" x="768" y="393" width="61.0341" height="61.0294"/>
     <rect class="fil0 str0" x="829" y="393" width="61.0341" height="61.0294"/>
     <rect class="fil0 str0" x="890" y="393" width="61.0341" height="61.0294"/>
     <rect class="fil0 str0" x="341" y="210" width="61.0341" height="61.0294"/>
     <rect class="fil0 str0" x="402" y="210" width="61.0341" height="61.0294"/>
     <rect class="fil0 str0" x="463" y="210" width="61.0341" height="61.0294"/>
     <rect class="fil0 str0" x="524" y="210" width="61.0341" height="61.0294"/>
     <rect class="fil0 str0" x="585" y="210" width="61.0341" height="61.0294"/>
     <rect class="fil0 str0" x="646" y="210" width="61.0341" height="61.0294"/>
     <rect class="fil0 str0" x="707" y="210" width="61.0341" height="61.0294"/>
     <rect class="fil0 str0" x="768" y="210" width="61.0341" height="61.0294"/>
     <rect class="fil0 str0" x="829" y="210" width="61.0341" height="61.0294"/>
     <rect class="fil0 str0" x="890" y="210" width="61.0341" height="61.0294"/>
     <rect class="fil0 str0" x="341" y="271" width="61.0341" height="61.0294"/>
     <rect class="fil0 str0" x="402" y="271" width="61.0341" height="61.0294"/>
     <rect class="fil0 str0" x="463" y="271" width="61.0341" height="61.0294"/>
     <rect class="fil0 str0" x="524" y="271" width="61.0341" height="61.0294"/>
     <rect class="fil0 str0" x="585" y="271" width="61.0341" height="61.0294"/>
     <rect class="fil0 str0" x="646" y="271" width="61.0341" height="61.0294"/>
     <rect class="fil0 str0" x="707" y="271" width="61.0341" height="61.0294"/>
     <rect class="fil0 str0" x="768" y="271" width="61.0341" height="61.0294"/>
     <rect class="fil0 str0" x="829" y="271" width="61.0341" height="61.0294"/>
     <rect class="fil0 str0" x="890" y="271" width="61.0341" height="61.0294"/>
     <rect class="fil0 str0" x="341" y="698" width="61.0341" height="61.0294"/>
     <rect class="fil0 str0" x="402" y="698" width="61.0341" height="61.0294"/>
     <rect class="fil0 str0" x="463" y="698" width="61.0341" height="61.0294"/>
     <rect class="fil0 str0" x="524" y="698" width="61.0341" height="61.0294"/>
     <rect class="fil0 str0" x="585" y="698" width="61.0341" height="61.0294"/>
     <rect class="fil0 str0" x="646" y="698" width="61.0341" height="61.0294"/>
     <rect class="fil0 str0" x="707" y="698" width="61.0341" height="61.0294"/>
     <rect class="fil0 str0" x="768" y="698" width="61.0341" height="61.0294"/>
     <rect class="fil0 str0" x="829" y="698" width="61.0341" height="61.0294"/>
     <rect class="fil0 str0" x="890" y="698" width="61.0341" height="61.0294"/>
    </g>
    <g>
     <rect class="fil0 str0" x="341" y="149" width="61.0341" height="61.0294"/>
     <rect class="fil0 str0" x="402" y="149" width="61.0341" height="61.0294"/>
     <rect class="fil0 str0" x="463" y="149" width="61.0341" height="61.0294"/>
     <rect class="fil0 str0" x="524" y="149" width="61.0341" height="61.0294"/>
     <rect class="fil0 str0" x="585" y="149" width="61.0341" height="61.0294"/>
     <rect class="fil0 str0" x="646" y="149" width="61.0341" height="61.0294"/>
     <rect class="fil0 str0" x="707" y="149" width="61.0341" height="61.0294"/>
     <rect class="fil0 str0" x="768" y="149" width="61.0341" height="61.0294"/>
     <rect class="fil0 str0" x="829" y="149" width="61.0341" height="61.0294"/>
     <rect class="fil0 str0" x="890" y="149" width="61.0341" height="61.0294"/>
    </g>
    <g>
     <rect class="fil0 str0" x="341" y="759" width="61.0341" height="61.0294"/>
     <rect class="fil0 str0" x="402" y="759" width="61.0341" height="61.0294"/>
     <rect class="fil0 str0" x="463" y="759" width="61.0341" height="61.0294"/>
     <rect class="fil0 str0" x="524" y="759" width="61.0341" height="61.0294"/>
     <rect class="fil0 str0" x="585" y="759" width="61.0341" height="61.0294"/>
     <rect class="fil0 str0" x="646" y="759" width="61.0341" height="61.0294"/>
     <rect class="fil0 str0" x="707" y="759" width="61.0341" height="61.0294"/>
     <rect class="fil0 str0" x="768" y="759" width="61.0341" height="61.0294"/>
     <rect class="fil0 str0" x="829" y="759" width="61.0341" height="61.0294"/>
     <rect class="fil0 str0" x="890" y="759" width="61.0341" height="61.0294"/>
    </g>
    <g>
     <rect class="fil0 str0" transform="matrix(2.73547E-14 -1.03286 1 2.64845E-14 950.857 759.535)" width="59.0925" height="61.0294"/>
     <rect class="fil0 str0" transform="matrix(2.73547E-14 -1.03286 1 2.64845E-14 950.857 698.501)" width="59.0925" height="61.0294"/>
     <rect class="fil0 str0" transform="matrix(2.73547E-14 -1.03286 1 2.64845E-14 950.857 637.467)" width="59.0925" height="61.0294"/>
     <rect class="fil0 str0" transform="matrix(2.73547E-14 -1.03286 1 2.64845E-14 950.857 576.433)" width="59.0925" height="61.0294"/>
     <rect class="fil0 str0" transform="matrix(2.73547E-14 -1.03286 1 2.64845E-14 950.857 515.399)" width="59.0925" height="61.0294"/>
     <rect class="fil0 str0" transform="matrix(2.73547E-14 -1.03286 1 2.64845E-14 950.857 454.365)" width="59.0925" height="61.0294"/>
     <rect class="fil0 str0" transform="matrix(2.73547E-14 -1.03286 1 2.64845E-14 950.857 393.331)" width="59.0925" height="61.0294"/>
     <rect class="fil0 str0" transform="matrix(2.73547E-14 -1.03286 1 2.64845E-14 950.857 332.297)" width="59.0925" height="61.0294"/>
     <rect class="fil0 str0" transform="matrix(2.73547E-14 -1.03286 1 2.64845E-14 950.857 271.263)" width="59.0925" height="61.0294"/>
     <rect class="fil0 str0" transform="matrix(2.73547E-14 -1.03286 1 2.64845E-14 950.857 210.229)" width="59.0925" height="61.0294"/>
    </g>
    <g>
     <rect class="fil0 str0" transform="matrix(2.73547E-14 -1.03286 1 2.64845E-14 279.487 759.535)" width="59.0925" height="61.0294"/>
     <rect class="fil0 str0" transform="matrix(2.73547E-14 -1.03286 1 2.64845E-14 279.487 698.501)" width="59.0925" height="61.0294"/>
     <rect class="fil0 str0" transform="matrix(2.73547E-14 -1.03286 1 2.64845E-14 279.487 637.467)" width="59.0925" height="61.0294"/>
     <rect class="fil0 str0" transform="matrix(2.73547E-14 -1.03286 1 2.64845E-14 279.487 576.433)" width="59.0925" height="61.0294"/>
     <rect class="fil0 str0" transform="matrix(2.73547E-14 -1.03286 1 2.64845E-14 279.487 515.399)" width="59.0925" height="61.0294"/>
     <rect class="fil0 str0" transform="matrix(2.73547E-14 -1.03286 1 2.64845E-14 279.487 454.365)" width="59.0925" height="61.0294"/>
     <rect class="fil0 str0" transform="matrix(2.73547E-14 -1.03286 1 2.64845E-14 279.487 393.331)" width="59.0925" height="61.0294"/>
     <rect class="fil0 str0" transform="matrix(2.73547E-14 -1.03286 1 2.64845E-14 279.487 332.297)" width="59.0925" height="61.0294"/>
     <rect class="fil0 str0" transform="matrix(2.73547E-14 -1.03286 1 2.64845E-14 279.487 271.263)" width="59.0925" height="61.0294"/>
     <rect class="fil0 str0" transform="matrix(2.73547E-14 -1.03286 1 2.64845E-14 279.487 210.229)" width="59.0925" height="61.0294"/>
    </g>
    <rect class="fil0 str0" transform="matrix(2.73547E-14 -1.03286 1 2.64845E-14 279.487 820.569)" width="59.0925" height="61.0294"/>
    <rect class="fil0 str0" transform="matrix(2.73547E-14 -1.03286 1 2.64845E-14 950.857 820.569)" width="59.0925" height="61.0294"/>
   </g>
   <path class="fil1" d="M643 210l308 0 0 329c0,123 -80,220 -203,220l-105 0c-49,0 -95,-12 -132,-40 122,-148 239,-263 380,-393 -69,31 -159,84 -246,143 -7,-43 -45,-75 -89,-75l-133 0c19,-104 111,-184 220,-184zm-87 305l-8 0 -105 0 -72 0 0 0 0 0c-17,0 -30,-13 -30,-30 0,-17 13,-31 30,-31l0 0 185 0c16,0 30,14 30,31 0,17 -14,30 -30,30l0 0zm-185 183c17,0 31,14 31,31 0,17 -14,30 -31,30 -17,0 -30,-13 -30,-30 0,-17 13,-31 30,-31zm0 -122l0 0 72 0 44 0 7 0 0 0c17,0 31,14 31,31 0,17 -14,30 -31,30l0 0 -4 0 -47 0 -72 0 0 0 0 0c-17,0 -31,-13 -31,-30 0,-17 14,-31 31,-31z"/>
   <g>
    <line class="fil0 str1" x1="250" y1="760" x2="121" y2= "760" />
    <line class="fil0 str1" x1="250" y1="699" x2="121" y2= "699" />
    <g>
     <line class="fil2 str1" x1="151" y1="782" x2="151" y2= "760" />
     <polygon id="1" class="fil1" points="146,764 146,755 155,755 155,764 "/>
    </g>
    <g>
     <line class="fil2 str1" x1="151" y1="699" x2="151" y2= "676" />
     <polygon id="1" class="fil1" points="146,694 146,703 155,703 155,694 "/>
    </g>
   </g>
   <g>
    <line class="fil0 str1" x1="1048" y1="821" x2="1177" y2= "821" />
    <line class="fil0 str1" x1="1048" y1="760" x2="1177" y2= "760" />
    <g>
     <line class="fil2 str1" x1="1148" y1="843" x2="1148" y2= "821" />
     <polygon id="1" class="fil1" points="1143,825 1143,816 1152,816 1152,825 "/>
    </g>
    <g>
     <line class="fil2 str1" x1="1148" y1="760" x2="1148" y2= "737" />
     <polygon id="1" class="fil1" points="1143,755 1143,764 1152,764 1152,755 "/>
    </g>
   </g>
   <g>
    <line class="fil0 str1" x1="951" y1="837" x2="951" y2= "966" />
    <line class="fil0 str1" x1="1012" y1="837" x2="1012" y2= "966" />
    <g>
     <line class="fil2 str1" x1="928" y1="936" x2="951" y2= "936" />
     <polygon id="1" class="fil1" points="946,931 955,931 955,941 946,941 "/>
    </g>
    <g>
     <line class="fil2 str1" x1="1012" y1="936" x2="1035" y2= "936" />
     <polygon id="1" class="fil1" points="1016,931 1007,931 1007,941 1016,941 "/>
    </g>
   </g>
   <g>
    <line class="fil0 str0" x1="1012" y1="120" x2="1012" y2= "32" />
    <line class="fil0 str0" x1="279" y1="120" x2="279" y2= "32" />
    <g>
     <path class="fil3" d="M1012 63l-241 0 0 -2 241 0 0 2zm-5 -6l9 0 0 9 -9 0 0 -9z"/>
    </g>
    <g>
     <path class="fil3" d="M284 57l0 9 -9 0 0 -9 9 0zm240 6l-245 0 0 -2 245 0 0 2z"/>
    </g>
   </g>
   <path class="fil3" d="M619 82l-5 0 0 -31c-1,1 -3,2 -4,3 -2,1 -4,2 -6,2l0 -4c3,-2 6,-3 8,-5 2,-2 3,-4 4,-5l3 0 0 40z"/>
   <path id="1" class="fil3" d="M657 77l0 5 -26 0c0,-2 0,-3 0,-4 1,-2 2,-3 4,-5 1,-2 3,-4 6,-6 4,-4 7,-6 9,-8 1,-3 2,-5 2,-6 0,-2 -1,-4 -2,-5 -1,-2 -3,-2 -5,-2 -3,0 -5,0 -6,2 -1,1 -2,3 -2,6l-5 -1c0,-4 1,-6 4,-8 2,-2 5,-3 9,-3 4,0 7,1 9,3 2,2 3,5 3,8 0,1 0,3 -1,4 0,2 -2,4 -3,5 -2,2 -4,4 -8,7 -3,3 -4,4 -5,5 -1,1 -2,2 -2,3l19 0z"/>
   <path class="fil1" d="M691 54l12 2c0,0 0,0 1,0 0,1 0,1 0,1 0,0 0,1 0,1 0,0 0,1 0,1l-9 9 0 0 0 0 2 12c0,0 0,1 0,1 0,0 -1,0 -1,1l0 0 -1 0 0 0 -1 0 -11 -6 0 0 0 0 -11 6c0,0 0,0 -1,0 0,0 0,0 -1,0 0,-1 0,-1 0,-1 0,0 0,-1 0,-1l1 -12 0 0 0 0 -8 -9c0,0 0,0 -1,-1 0,0 0,0 0,0l0 0 0 -1 0 0c1,0 1,0 1,-1 0,0 1,0 1,0l12 -2 0 0 0 0 6 -11c0,0 0,-1 0,-1 1,0 1,0 1,0 1,0 1,0 1,0 1,0 1,1 1,1l6 11 0 0 0 0z"/>
   <g>
    <g>
     <line class="fil0 str0" x1="214" y1="149" x2="4" y2= "149" />
     <line class="fil0 str0" x1="214" y1="821" x2="4" y2= "821" />
     <g>
      <path class="fil3" d="M35 149l0 221 -3 0 0 -221 3 0zm-6 5l0 -9 9 0 0 9 -9 0z"/>
     </g>
     <g>
      <path class="fil3" d="M29 816l9 0 0 9 -9 0 0 -9zm6 -219l0 224 -3 0 0 -224 3 0z"/>
     </g>
    </g>
    <path class="fil3" d="M53 542l0 5 -31 0c1,1 3,3 4,5 1,1 2,3 2,5l-5 0c-1,-3 -2,-5 -4,-7 -2,-3 -4,-4 -6,-5l0 -3 40 0z"/>
    <path id="1" class="fil3" d="M53 511l0 5 -31 0c1,1 3,3 4,5 1,2 2,3 2,5l-5 0c-1,-3 -2,-5 -4,-7 -2,-2 -4,-4 -6,-5l0 -3 40 0z"/>
    <path class="fil1" d="M26 470l2 -12c0,0 0,0 0,-1 0,0 1,0 1,0 0,0 1,0 1,0 0,0 1,0 1,0l8 9 1 0 0 0 12 -2c0,0 0,0 1,0 0,0 0,1 0,1l1 0 0 1 0 0 0 1 -6 11 0 0 0 0 6 11c0,0 0,0 0,1 0,0 0,0 -1,1 0,0 0,0 0,0 -1,0 -1,0 -1,0l-12 -1 0 0 -1 0 -8 8c0,0 -1,1 -1,1 0,0 0,0 0,0l0 0 -1 0 0 0c0,0 -1,-1 -1,-1 0,0 0,0 0,-1l-2 -12 0 0 0 0 -11 -6c-1,0 -1,0 -1,0 0,-1 0,-1 0,-1 0,-1 0,-1 0,-1 0,0 0,-1 1,-1l11 -5 0 -1 0 0z"/>
   </g>
   <path class="fil1" d="M157 721l12 2c0,0 0,0 1,0 0,1 0,1 0,1 0,0 0,1 0,1 0,0 0,1 0,1l-9 9 0 0 0 0 2 12c0,0 0,1 0,1 0,0 -1,0 -1,1l0 0 -1 0 0 0 -1 0 -11 -6 0 0 0 0 -11 6c0,0 0,0 -1,0 0,0 0,0 -1,0 0,-1 0,-1 0,-1 0,0 0,-1 0,-1l1 -12 0 0 0 0 -8 -9c0,0 0,0 -1,-1 0,0 0,0 0,0l0 0 0 -1 0 0c1,0 1,0 1,-1 0,0 1,0 1,0l12 -2 0 0 0 0 6 -11c0,0 0,-1 0,-1 1,0 1,0 1,0 1,0 1,0 1,0 1,0 1,1 1,1l6 11 0 0 0 0z"/>
   <path class="fil1" d="M1141 782l-12 2c0,0 0,0 -1,0 0,1 0,1 0,1 0,1 0,1 0,1 0,1 0,1 0,1l9 9 0 0 0 0 -2 12c0,0 0,1 0,1 0,0 1,1 1,1l0 0 1 0 0 0 1 0 11 -6 0 0 0 0 11 6c0,0 0,0 1,0 0,0 0,0 1,0 0,0 0,-1 0,-1 0,0 0,-1 0,-1l-1 -12 0 0 0 0 8 -9c0,0 0,0 1,-1 0,0 0,0 0,0l0 0 0 -1 0 0c-1,0 -1,0 -1,-1 0,0 -1,0 -1,0l-12 -2 0 0 0 0 -6 -11c0,0 0,-1 0,-1 -1,0 -1,0 -1,0 -1,0 -1,0 -1,0 -1,0 -1,1 -1,1l-6 11 0 0 0 0z"/>
   <path class="fil1" d="M983 948l11 6c0,0 0,0 1,0 0,0 0,0 1,-1 0,0 0,0 0,0 0,-1 0,-1 0,-1l-2 -12 0 0 0 -1 9 -8c0,-1 0,-1 0,-1 0,-1 0,-1 0,-1l0 -1 0 0 -1 0 0 0 -12 -2 0 0 0 0 -6 -11c0,0 -1,-1 -1,-1 0,0 0,0 -1,0 0,0 0,0 -1,0 0,0 0,1 0,1l-6 11 0 0 0 0 -12 2c0,0 0,0 -1,0 0,0 0,1 0,1l0 0 0 0 0 0c-1,1 -1,1 -1,1 1,1 1,1 1,1l9 9 0 0 0 0 -2 12c0,0 0,1 0,1 0,0 1,1 1,1 0,0 0,0 1,0 0,0 0,0 1,0l10 -6 1 0 0 0z"/>
   <path class="fil4" d="M341 760l610 0 0 -550 -610 0 0 550zm-62 -550l0 -61 62 0 610 0 61 0 0 61 0 550 0 61 -61 0 -610 0 -62 0 0 -61 0 -550z"/>
  </g>
  <polygon class="fil3" points="93,1018 120,1018 120,1023 99,1023 99,1060 93,1060 "/>
  <path id="1" class="fil3" d="M121 1071l0 -42 5 0 0 4c1,-1 2,-2 3,-3 2,-1 3,-1 5,-1 3,0 5,0 7,2 2,1 4,3 5,5 1,3 1,5 1,8 0,3 0,6 -1,9 -2,2 -3,4 -5,5 -2,2 -5,2 -7,2 -2,0 -3,0 -5,-1 -1,0 -2,-1 -3,-2l0 14 -5 0zm5 -26c0,4 0,6 2,8 2,2 3,3 6,3 2,0 4,-1 6,-3 1,-2 2,-5 2,-9 0,-4 -1,-6 -2,-8 -2,-2 -4,-3 -6,-3 -2,0 -4,1 -6,3 -2,2 -2,5 -2,9z"/>
  <path id="2" class="fil3" d="M173 1056c-2,2 -4,3 -5,3 -2,1 -4,1 -6,1 -3,0 -6,0 -8,-2 -1,-2 -2,-4 -2,-6 0,-2 0,-3 1,-4 0,-2 1,-3 2,-3 1,-1 3,-2 4,-2 1,0 3,0 5,-1 4,0 7,-1 9,-1 0,-1 0,-2 0,-2 0,-2 -1,-3 -2,-4 -1,-1 -3,-2 -6,-2 -2,0 -4,0 -5,1 -1,1 -2,3 -2,5l-5 -1c0,-2 1,-4 2,-5 1,-1 2,-2 4,-3 2,-1 5,-1 7,-1 3,0 5,0 7,1 1,0 2,1 3,2 1,1 1,2 2,3 0,1 0,3 0,5l0 7c0,5 0,8 0,9 0,1 1,3 2,4l-6 0c0,-1 -1,-3 -1,-4zm0 -11c-2,0 -5,1 -9,1 -2,1 -3,1 -4,1 -1,1 -2,1 -2,2 -1,1 -1,2 -1,3 0,1 1,2 2,3 1,1 2,1 4,1 2,0 4,0 6,-1 1,-1 2,-2 3,-3 0,-2 1,-3 1,-6l0 -1z"/>
  <path id="3" class="fil3" d="M203 1018l6 0 0 14c1,-1 2,-2 3,-2 1,-1 3,-1 4,-1 4,0 7,1 9,4 2,3 3,7 3,12 0,4 -1,8 -4,11 -2,3 -5,4 -8,4 -1,0 -2,0 -3,0 -1,-1 -3,-1 -4,-3l0 14 -6 0 0 -14c-1,1 -2,2 -3,3 -1,0 -3,0 -4,0 -3,0 -6,-1 -8,-4 -3,-3 -4,-7 -4,-12 0,-4 1,-8 3,-11 3,-3 5,-4 9,-4 2,0 3,0 4,1 1,0 2,1 3,2l0 -14zm6 27c0,4 0,7 1,9 2,1 3,2 5,2 2,0 4,-1 5,-3 2,-2 3,-5 3,-9 0,-3 -1,-6 -2,-8 -2,-2 -3,-3 -6,-3 -2,0 -4,1 -5,3 -1,2 -1,5 -1,9zm-20 -1c0,4 1,7 3,9 1,2 3,3 5,3 2,0 4,-1 5,-3 1,-2 1,-4 1,-8 0,-4 0,-7 -1,-9 -1,-2 -3,-3 -5,-3 -3,0 -4,1 -6,3 -1,2 -2,5 -2,8z"/>
  <path id="4" class="fil3" d="M234 1024l0 -6 5 0 0 6 -5 0zm0 36l0 -31 5 0 0 31 -5 0z"/>
  <path id="5" class="fil3" d="M245 1029l5 0 0 6c0,3 0,4 0,6 1,1 1,2 3,2 1,1 2,2 4,2 2,0 4,-1 7,-2l0 -14 5 0 0 31 -5 0 0 -13c-3,1 -6,2 -9,2 -2,0 -4,-1 -6,-2 -1,-1 -3,-2 -3,-4 -1,-2 -1,-4 -1,-6l0 -8z"/>
  <polygon id="6" class="fil3" points="277,1029 282,1029 282,1042 297,1042 297,1029 302,1029 302,1060 297,1060 297,1046 282,1046 282,1060 277,1060 "/>
  <polygon id="7" class="fil3" points="309,1029 315,1029 315,1053 329,1029 334,1029 334,1060 329,1060 329,1037 315,1060 309,1060 "/>
  <path id="8" class="fil3" d="M342 1029l5 0 0 24 14 -24 6 0 0 31 -5 0 0 -23 -15 23 -5 0 0 -31zm18 -11l3 0c0,3 -1,4 -2,6 -2,1 -4,2 -6,2 -3,0 -5,-1 -6,-2 -2,-1 -2,-3 -3,-6l4 0c0,2 1,3 1,3 1,1 2,1 4,1 1,0 2,0 3,-1 1,0 1,-1 2,-3z"/>
  <path id="9" class="fil3" d="M397 1046l0 -4c3,0 4,0 5,0 1,0 1,-1 2,-2 1,0 1,-1 1,-2 0,-2 0,-3 -1,-4 -1,-1 -2,-1 -4,-1 -3,0 -5,2 -6,5l-5 -1c2,-5 5,-8 11,-8 3,0 6,1 8,2 2,2 3,4 3,7 0,2 -2,4 -4,6 2,0 3,1 3,3 1,1 2,2 2,4 0,3 -1,5 -3,7 -2,1 -5,2 -9,2 -7,0 -11,-3 -12,-9l5 -1c1,2 1,4 3,5 1,1 3,1 4,1 2,0 4,0 5,-1 1,-1 1,-2 1,-4 0,-1 0,-2 -1,-3 0,-1 -1,-1 -2,-2 -1,0 -2,0 -4,0 -1,0 -1,0 -2,0z"/>
  <polygon id="10" class="fil3" points="418,1029 423,1029 423,1042 437,1042 437,1029 442,1029 442,1060 437,1060 437,1046 423,1046 423,1060 418,1060 "/>
  <path id="11" class="fil3" d="M469 1056c-1,2 -3,3 -5,3 -2,1 -4,1 -6,1 -3,0 -6,0 -7,-2 -2,-2 -3,-4 -3,-6 0,-2 0,-3 1,-4 1,-2 2,-3 3,-3 1,-1 2,-2 3,-2 1,0 3,0 5,-1 4,0 7,-1 9,-1 0,-1 0,-2 0,-2 0,-2 0,-3 -1,-4 -2,-1 -4,-2 -6,-2 -3,0 -4,0 -6,1 -1,1 -2,3 -2,5l-5 -1c0,-2 1,-4 2,-5 1,-1 3,-2 5,-3 2,-1 4,-1 7,-1 2,0 4,0 6,1 1,0 3,1 3,2 1,1 2,2 2,3 0,1 0,3 0,5l0 7c0,5 0,8 1,9 0,1 0,3 1,4l-6 0c0,-1 0,-3 -1,-4zm0 -11c-2,0 -5,1 -8,1 -2,1 -4,1 -5,1 -1,1 -1,1 -2,2 0,1 -1,2 -1,3 0,1 1,2 2,3 1,1 3,1 5,1 2,0 3,0 5,-1 1,-1 3,-2 3,-3 1,-2 1,-3 1,-6l0 -1z"/>
  <path id="12" class="fil3" d="M482 1029l5 0 0 13c2,0 3,0 4,0 0,-1 1,-3 3,-6 1,-2 1,-4 2,-5 1,0 1,-1 2,-1 1,0 2,-1 4,-1l1 0 0 5 -1 0c-2,0 -2,0 -3,0 0,1 -1,2 -2,4 0,2 -1,3 -2,4 0,1 -1,2 -3,2 2,1 5,3 7,6l5 10 -5 0 -6 -10c-1,-2 -2,-3 -3,-3 -1,-1 -2,-1 -3,-1l0 14 -5 0 0 -31z"/>
 </g>
</svg>
