<?xml version="1.0" encoding="UTF-8"?>
<!DOCTYPE svg PUBLIC "-//W3C//DTD SVG 1.1//EN" "http://www.w3.org/Graphics/SVG/1.1/DTD/svg11.dtd">
<!-- Creator: CorelDRAW X8 -->
<svg xmlns="http://www.w3.org/2000/svg" xml:space="preserve" width="1417px" height="1417px" version="1.1" style="shape-rendering:geometricPrecision; text-rendering:geometricPrecision; image-rendering:optimizeQuality; fill-rule:evenodd; clip-rule:evenodd"
viewBox="0 0 1417 1417"
 xmlns:xlink="http://www.w3.org/1999/xlink">
 <defs>
  <style type="text/css">
   <![CDATA[
    .str0 {stroke:#96C73A;stroke-width:23.6167}
    .fil0 {fill:#FEFEFE}
    .fil3 {fill:#022635}
    .fil2 {fill:#659F4A;fill-rule:nonzero}
    .fil1 {fill:url(#id1)}
   ]]>
  </style>
    <clipPath id="id0">
     <path d="M-67 -74l1551 0 0 1565 -1551 0 0 -1565z"/>
    </clipPath>
  <linearGradient id="id1" gradientUnits="userSpaceOnUse" x1="1004.11" y1="604.066" x2="815.313" y2="812.933">
   <stop offset="0" style="stop-opacity:1; stop-color:#96C73A"/>
   <stop offset="1" style="stop-opacity:1; stop-color:#659F4A"/>
  </linearGradient>
 </defs>
 <g id="Layer_x0020_1">
  <metadata id="CorelCorpID_0Corel-Layer"/>
  <g id="_1156923871280">
   <g style="clip-path:url(#id0)">
    <image x="-67" y="-74" width="1550" height="1566" xlink:href="3028-head-img-da8d57c2-2d20-4a68-adcc-61e61bfb3b54_Images\3028-head-img-da8d57c2-2d20-4a68-adcc-61e61bfb3b54_ImgID1.png"/>
   </g>
  </g>
  <rect class="fil0 str0" x="124" y="118" width="1181" height="1181"/>
  <g id="_1156923870032">
   <path class="fil1" d="M882 561l175 0 0 176c0,65 -54,119 -119,119l-56 0c-26,0 -51,-9 -71,-23 65,-83 126,-139 203,-210 -38,17 -88,46 -135,79 -2,-22 -21,-39 -44,-39l-71 0c8,-58 58,-102 118,-102zm-47 162l-4 0 -56 0 -38 0 0 0 0 0c-9,0 -17,-7 -17,-16 0,-9 8,-17 17,-17l0 0 98 0c9,0 16,8 16,17 0,9 -7,16 -16,16l0 0zm-98 98c9,0 16,8 16,17 0,9 -7,16 -16,16 -9,0 -17,-7 -17,-16 0,-9 8,-17 17,-17zm0 -65l0 0 38 0 23 0 4 0 0 0c9,0 17,7 17,16 0,9 -8,17 -17,17l0 0 -2 0 -25 0 -38 0 0 0 0 0c-9,0 -17,-8 -17,-17 0,-9 8,-16 17,-16z"/>
   <path class="fil2" d="M401 645l7 2c-2,5 -4,10 -8,12 -3,3 -8,5 -13,5 -5,0 -10,-1 -13,-4 -3,-2 -6,-5 -8,-9 -1,-4 -2,-9 -2,-13 0,-6 1,-10 3,-14 2,-4 5,-7 8,-9 4,-2 8,-3 12,-3 5,0 9,2 13,4 3,3 6,6 7,11l-7 1c-1,-3 -2,-6 -5,-8 -2,-1 -5,-2 -8,-2 -4,0 -7,1 -9,3 -3,1 -5,4 -6,7 -1,3 -1,6 -1,10 0,4 0,7 1,11 2,3 4,5 6,7 3,1 6,2 9,2 3,0 6,-1 9,-3 2,-2 4,-5 5,-10z"/>
   <polygon id="1" class="fil2" points="419,663 419,613 426,613 426,657 450,657 450,663 "/>
   <polygon id="2" class="fil2" points="462,663 462,613 498,613 498,619 469,619 469,634 496,634 496,640 469,640 469,657 499,657 499,663 "/>
   <path id="3" class="fil2" d="M507 663l19 -50 7 0 20 50 -7 0 -6 -15 -21 0 -5 15 -7 0zm14 -21l17 0 -5 -13c-2,-5 -3,-8 -4,-11 0,3 -1,7 -2,10l-6 14z"/>
   <polygon id="4" class="fil2" points="562,663 562,613 569,613 595,652 595,613 601,613 601,663 595,663 569,624 569,663 "/>
   <polygon id="5" class="fil2" points="617,663 617,613 652,613 652,619 623,619 623,634 651,634 651,640 623,640 623,657 654,657 654,663 "/>
   <path id="6" class="fil2" d="M667 663l0 -50 22 0c4,0 7,1 10,1 2,1 4,3 5,5 2,2 2,5 2,8 0,3 -1,6 -3,9 -2,2 -6,3 -11,4 2,1 3,2 4,3 2,1 4,4 6,6l8 14 -8 0 -6 -11c-2,-3 -4,-5 -5,-6 -1,-2 -3,-3 -4,-4 0,0 -1,-1 -2,-1 -1,0 -2,0 -4,0l-8 0 0 22 -6 0zm6 -28l14 0c3,0 6,0 7,-1 2,-1 3,-2 4,-3 1,-1 2,-3 2,-4 0,-3 -1,-5 -3,-6 -2,-2 -4,-2 -8,-2l-16 0 0 16z"/>
   <path class="fil3" d="M589 838c0,9 -7,16 -16,16 -9,0 -16,-7 -16,-16l0 0 0 0 0 -49 0 0c0,-1 0,-1 0,-1 0,-9 7,-16 16,-16l16 0 21 0 21 0c13,0 24,-11 24,-25l0 0c0,-13 -11,-24 -24,-24l-21 0 -21 0 -16 0 0 0c-9,0 -16,-7 -16,-16 0,-9 7,-17 16,-17l57 0c32,0 58,26 58,58l0 0c0,32 -26,58 -58,58l-41 0 0 32 0 0 0 0z"/>
   <path class="fil3" d="M376 690l17 0 49 0c45,0 82,37 82,82l0 0c0,45 -37,82 -82,82l-49 0 -17 0c-9,0 -16,-7 -16,-16l0 -33c0,-9 7,-16 16,-16 9,0 17,7 17,16l0 16 49 0c27,0 49,-22 49,-49l0 0c0,-27 -22,-49 -49,-49l-49 0 0 16c0,9 -8,16 -17,16 -9,0 -16,-7 -16,-16l0 -32c0,-9 7,-17 16,-17z"/>
  </g>
 </g>
</svg>
