<?xml version="1.0" encoding="UTF-8"?>
<!DOCTYPE svg PUBLIC "-//W3C//DTD SVG 1.1//EN" "http://www.w3.org/Graphics/SVG/1.1/DTD/svg11.dtd">
<!-- Creator: CorelDRAW X8 -->
<svg xmlns="http://www.w3.org/2000/svg" xml:space="preserve" width="1039px" height="638px" version="1.1" style="shape-rendering:geometricPrecision; text-rendering:geometricPrecision; image-rendering:optimizeQuality; fill-rule:evenodd; clip-rule:evenodd"
viewBox="0 0 1039 638"
 xmlns:xlink="http://www.w3.org/1999/xlink">
 <defs>
  <style type="text/css">
   <![CDATA[
    .fil3 {fill:#FEFEFE}
    .fil0 {fill:#022635}
    .fil2 {fill:#659F4A;fill-rule:nonzero}
    .fil1 {fill:url(#id1)}
   ]]>
  </style>
     <clipPath id="id0">
      <path d="M5 0l1029 0 0 637 -1029 0 0 -637z"/>
     </clipPath>
  <linearGradient id="id1" gradientUnits="userSpaceOnUse" x1="680.716" y1="261.83" x2="577.754" y2="375.739">
   <stop offset="0" style="stop-opacity:1; stop-color:#96C73A"/>
   <stop offset="1" style="stop-opacity:1; stop-color:#659F4A"/>
  </linearGradient>
 </defs>
 <g id="Layer_x0020_1">
  <metadata id="CorelCorpID_0Corel-Layer"/>
  <g id="_2672298430000">
   <g>
    <g style="clip-path:url(#id0)">
     <image x="5" y="0" width="1030" height="637" xlink:href="log-2_Images\log-2_ImgID1.png"/>
    </g>
   </g>
   <rect class="fil0" x="78" y="74" width="883" height="490"/>
   <g>
    <path class="fil1" d="M614 238l96 0 0 96c0,36 -30,65 -66,65l-30 0c-14,0 -28,-4 -38,-12 35,-46 68,-76 110,-115 -20,9 -48,25 -74,43 -1,-12 -11,-21 -24,-21l-38 0c4,-31 31,-56 64,-56zm-26 89l-2 0 -30 0 -21 0 0 0 0 0c-5,0 -9,-4 -9,-9 0,-5 4,-9 9,-9l0 0 53 0c5,0 9,4 9,9 0,5 -4,9 -9,9l0 0zm-53 53c5,0 9,4 9,9 0,5 -4,9 -9,9 -5,0 -9,-4 -9,-9 0,-5 4,-9 9,-9zm0 -35l0 0 21 0 13 0 2 0 0 0c5,0 9,4 9,9 0,5 -4,9 -9,9l0 0 -2 0 -13 0 -21 0 0 0 0 0c-5,0 -9,-4 -9,-9 0,-5 4,-9 9,-9z"/>
    <path class="fil2" d="M352 284l3 1c0,3 -2,5 -4,7 -2,2 -4,2 -7,2 -3,0 -5,0 -7,-1 -2,-2 -3,-3 -4,-6 -1,-2 -1,-4 -1,-7 0,-3 0,-5 1,-7 1,-2 3,-4 5,-5 2,-1 4,-2 6,-2 3,0 5,1 7,2 2,2 3,4 4,6l-4 1c0,-2 -1,-3 -2,-4 -1,-1 -3,-2 -5,-2 -2,0 -4,1 -5,2 -1,1 -2,2 -3,4 0,2 -1,3 -1,5 0,2 1,4 1,6 1,2 2,3 3,4 2,1 3,1 5,1 2,0 4,0 5,-2 1,-1 2,-2 3,-5z"/>
    <polygon id="1" class="fil2" points="362,294 362,267 365,267 365,291 379,291 379,294 "/>
    <polygon id="2" class="fil2" points="385,294 385,267 405,267 405,270 389,270 389,278 404,278 404,281 389,281 389,291 405,291 405,294 "/>
    <path id="3" class="fil2" d="M409 294l11 -27 4 0 11 27 -4 0 -3 -8 -12 0 -3 8 -4 0zm8 -11l10 0 -3 -8c-1,-2 -2,-4 -2,-5 -1,1 -1,3 -2,5l-3 8z"/>
    <polygon id="4" class="fil2" points="440,294 440,267 443,267 458,288 458,267 461,267 461,294 457,294 443,273 443,294 "/>
    <polygon id="5" class="fil2" points="469,294 469,267 489,267 489,270 473,270 473,278 488,278 488,281 473,281 473,291 490,291 490,294 "/>
    <path id="6" class="fil2" d="M497 294l0 -27 12 0c2,0 4,0 5,0 1,1 2,2 3,3 1,1 1,3 1,4 0,2 0,4 -2,5 -1,1 -3,2 -5,3 1,0 1,0 2,1 1,1 2,2 3,3l5 8 -5 0 -4 -6c-1,-1 -1,-3 -2,-4 -1,0 -1,-1 -2,-1 0,-1 -1,-1 -2,-1 0,0 -1,0 -2,0l-4 0 0 12 -3 0zm3 -15l8 0c2,0 3,0 4,-1 1,0 1,-1 2,-1 0,-1 1,-2 1,-3 0,-1 -1,-2 -2,-3 -1,-1 -2,-1 -4,-1l-9 0 0 9z"/>
    <path class="fil3" d="M455 390c-1,4 -5,8 -9,8 -5,0 -9,-4 -9,-8l0 0 0 -1 0 -26 0 0c0,-1 0,-1 0,-1 0,-5 4,-9 9,-9l9 0 11 0 11 0c7,0 13,-6 13,-13l0 0c0,-7 -6,-13 -13,-13l-11 0 -11 0 -9 0 0 0c-5,0 -9,-4 -9,-9 0,-5 4,-9 9,-9l31 0c17,0 31,14 31,31l0 0c0,18 -14,32 -31,32l-22 0 0 17 0 1 0 0z"/>
    <path class="fil3" d="M338 309l9 0 27 0c25,0 45,20 45,45l0 0c0,24 -20,44 -45,44l-27 0 -9 0c-5,0 -9,-4 -9,-9l0 -17c0,-5 4,-9 9,-9 5,0 9,4 9,9l0 8 27 0c15,0 27,-12 27,-26l0 0c0,-15 -12,-27 -27,-27l-27 0 0 8c0,5 -4,9 -9,9 -5,0 -9,-4 -9,-9l0 -17c0,-5 4,-9 9,-9z"/>
   </g>
  </g>
 </g>
</svg>
