<?xml version="1.0" encoding="UTF-8"?>
<!DOCTYPE svg PUBLIC "-//W3C//DTD SVG 1.1//EN" "http://www.w3.org/Graphics/SVG/1.1/DTD/svg11.dtd">
<!-- Creator: CorelDRAW X8 -->
<svg xmlns="http://www.w3.org/2000/svg" xml:space="preserve" width="1039px" height="638px" version="1.1" style="shape-rendering:geometricPrecision; text-rendering:geometricPrecision; image-rendering:optimizeQuality; fill-rule:evenodd; clip-rule:evenodd"
viewBox="0 0 1039 638"
 xmlns:xlink="http://www.w3.org/1999/xlink">
 <defs>
  <style type="text/css">
   <![CDATA[
    .fil1 {fill:#FEFEFE}
    .fil2 {fill:#FEFEFE;fill-rule:nonzero}
    .fil3 {fill:url(#id2)}
    .fil0 {fill:url(#id3)}
   ]]>
  </style>
    <clipPath id="id0">
     <path d="M294 4455l1030 0 0 638 -1030 0 0 -638z"/>
    </clipPath>
     <clipPath id="id1">
      <path d="M5 0l1029 0 0 637 -1029 0 0 -637z"/>
     </clipPath>
  <linearGradient id="id2" gradientUnits="userSpaceOnUse" x1="425.831" y1="613.46" x2="613.171" y2="24.1095">
   <stop offset="0" style="stop-opacity:1; stop-color:#659F4A"/>
   <stop offset="1" style="stop-opacity:1; stop-color:#96C73A"/>
  </linearGradient>
  <linearGradient id="id3" gradientUnits="userSpaceOnUse" xlink:href="#id2" x1="715.624" y1="5068.7" x2="902.964" y2="4479.35">
  </linearGradient>
 </defs>
 <g id="Layer_x0020_1">
  <metadata id="CorelCorpID_0Corel-Layer"/>
  <g id="_2672298446000">
   <g style="clip-path:url(#id0)">
    <image x="294" y="4455" width="1030" height="637" xlink:href="log-3_Images\log-3_ImgID1.png"/>
   </g>
  </g>
  <rect class="fil0" x="368" y="4529" width="883" height="490"/>
  <path class="fil1" d="M904 4694l95 0 0 95c0,36 -29,65 -65,65l-30 0c-15,0 -28,-4 -39,-12 36,-46 69,-76 111,-115 -21,10 -48,26 -74,44 -1,-13 -11,-22 -24,-22l-39 0c5,-31 32,-55 65,-55zm-26 88l-2 0 -30 0 -21 0 0 0 0 0c-5,0 -9,-4 -9,-9 0,-5 4,-9 9,-9l0 0 53 0c5,0 9,4 9,9 0,5 -4,9 -9,9l0 0zm-53 54c5,0 9,4 9,9 0,5 -4,9 -9,9 -5,0 -9,-4 -9,-9 0,-5 4,-9 9,-9zm0 -36l0 0 21 0 12 0 2 0 0 0c5,0 9,4 9,9 0,5 -4,9 -9,9l0 0 -1 0 -13 0 -21 0 0 0 0 0c-5,0 -9,-4 -9,-9 0,-5 4,-9 9,-9z"/>
  <path class="fil1" d="M628 4764l9 0 27 0c24,0 45,20 45,45l0 0c0,24 -21,45 -45,45l-27 0 -9 0c-5,0 -9,-4 -9,-9l0 -18c0,-5 4,-9 9,-9 5,0 9,4 9,9l0 9 27 0c15,0 27,-12 27,-27l0 0c0,-15 -12,-27 -27,-27l-27 0 0 9c0,5 -4,9 -9,9 -5,0 -9,-4 -9,-9l0 -18c0,-5 4,-9 9,-9zm116 81c0,5 -4,9 -9,9 -4,0 -8,-4 -9,-9l0 0 0 0 0 -27 0 0c0,0 0,-1 0,-1 0,-5 4,-9 9,-9l9 0 12 0 11 0c7,0 13,-6 13,-13l0 0c0,-7 -6,-13 -13,-13l-11 0 -12 0 -9 0 0 0c-5,0 -9,-4 -9,-9 0,-5 4,-9 9,-9l32 0c17,0 31,14 31,32l0 0c0,17 -14,31 -31,31l-23 0 0 18 0 0 0 0z"/>
  <path class="fil2" d="M414 4988l2 -9 -4 0 0 -3 4 0 2 -7 -6 0 0 -3 6 0 2 -9 3 0 -2 9 7 0 1 -9 4 0 -2 9 3 0 0 3 -4 0 -1 7 5 0 0 3 -6 0 -2 9 -3 0 2 -9 -6 0 -2 9 -3 0zm5 -12l7 0 1 -7 -6 0 -2 7z"/>
  <path id="1" class="fil2" d="M437 4981l4 -1c0,2 1,3 1,4 1,1 2,1 4,1 1,0 2,0 3,-1 0,0 1,-1 2,-2 0,-1 1,-2 1,-3 0,-2 1,-3 1,-5 0,0 0,0 0,0 -1,1 -2,2 -3,2 -2,1 -3,1 -5,1 -2,0 -4,0 -6,-2 -2,-2 -2,-4 -2,-7 0,-3 1,-6 2,-8 2,-1 4,-2 7,-2 2,0 4,0 5,1 2,1 3,3 4,5 1,2 1,4 1,8 0,4 0,7 -1,9 -1,2 -2,4 -4,5 -1,1 -3,2 -5,2 -3,0 -5,-1 -6,-2 -2,-1 -3,-3 -3,-5zm15 -14c0,-2 0,-3 -2,-5 -1,-1 -2,-1 -4,-1 -1,0 -3,0 -4,2 -1,1 -2,3 -2,5 0,2 1,3 2,4 1,2 3,2 4,2 2,0 3,0 4,-2 2,-1 2,-2 2,-5z"/>
  <path id="2" class="fil2" d="M479 4965l-4 0c0,-1 -1,-2 -1,-3 -1,-1 -2,-1 -4,-1 -1,0 -2,0 -3,1 -1,0 -2,2 -3,3 0,2 -1,4 -1,7 1,-1 2,-2 3,-3 2,0 3,-1 5,-1 2,0 4,1 6,3 1,2 2,4 2,7 0,2 0,3 -1,5 -1,2 -2,3 -3,4 -2,1 -3,1 -5,1 -3,0 -6,-1 -7,-3 -2,-3 -3,-6 -3,-11 0,-6 1,-10 3,-13 2,-2 4,-3 7,-3 3,0 5,0 6,2 2,1 3,3 3,5zm-15 13c0,1 0,2 1,4 0,1 1,2 2,2 1,1 2,1 3,1 1,0 3,-1 4,-2 1,-1 2,-3 2,-5 0,-2 -1,-4 -2,-5 -1,-1 -3,-2 -4,-2 -2,0 -3,1 -4,2 -2,1 -2,3 -2,5z"/>
  <path id="3" class="fil2" d="M506 4977l4 1c-1,3 -3,6 -5,8 -2,1 -5,2 -8,2 -3,0 -6,-1 -8,-2 -2,-1 -3,-3 -4,-6 -1,-2 -2,-5 -2,-8 0,-3 1,-5 2,-8 1,-2 3,-4 5,-5 2,-1 5,-2 7,-2 3,0 6,1 8,3 2,1 3,3 4,6l-4 1c0,-2 -1,-4 -3,-5 -1,-1 -3,-1 -5,-1 -2,0 -4,0 -5,1 -2,1 -3,3 -4,5 0,2 -1,3 -1,5 0,3 1,5 1,7 1,2 2,3 4,4 1,1 3,2 5,2 2,0 4,-1 6,-2 1,-2 2,-3 3,-6z"/>
  <path id="4" class="fil2" d="M513 4962l0 -4 20 0 0 3c-2,2 -4,5 -6,8 -2,3 -3,7 -4,10 -1,3 -2,6 -2,9l-4 0c0,-3 1,-6 2,-9 1,-3 2,-6 4,-10 1,-3 3,-5 5,-7l-15 0z"/>
  <path id="5" class="fil2" d="M536 4980l4 -1c0,2 1,4 2,5 1,1 2,1 4,1 1,0 3,-1 4,-2 1,-1 2,-2 2,-4 0,-2 -1,-3 -2,-4 -1,-1 -2,-2 -4,-2 -1,0 -2,0 -3,0l1 -3c0,0 0,0 0,0 2,0 3,0 5,-1 1,-1 2,-2 2,-4 0,-1 -1,-2 -2,-3 -1,-1 -2,-1 -3,-1 -2,0 -3,0 -4,1 -1,1 -1,2 -2,4l-3 -1c0,-2 1,-4 3,-5 1,-2 3,-2 6,-2 1,0 3,0 4,1 1,0 2,1 3,3 1,1 1,2 1,3 0,2 0,3 -1,4 0,1 -1,2 -3,2 2,1 3,2 4,3 1,1 2,3 2,5 0,2 -1,5 -3,6 -2,2 -4,3 -7,3 -3,0 -5,-1 -7,-2 -2,-2 -3,-4 -3,-6z"/>
  <path id="6" class="fil2" d="M558 4988l11 -30 4 0 12 30 -4 0 -3 -9 -13 0 -3 9 -4 0zm8 -13l10 0 -3 -8c-1,-2 -1,-5 -2,-6 0,2 -1,4 -2,6l-3 8z"/>
  <path class="fil2" d="M1037 4600l2 -9 -4 0 0 -3 4 0 2 -7 -6 0 0 -3 6 0 2 -9 3 0 -2 9 7 0 1 -9 4 0 -2 9 3 0 0 3 -4 0 -1 7 5 0 0 3 -6 0 -2 9 -3 0 2 -9 -6 0 -2 9 -3 0zm5 -12l7 0 1 -7 -6 0 -2 7z"/>
  <path id="1" class="fil2" d="M1060 4593l4 -1c0,2 1,3 1,4 1,1 2,1 4,1 1,0 2,0 3,-1 0,0 1,-1 2,-2 0,-1 1,-2 1,-3 0,-2 1,-3 1,-5 0,0 0,0 0,0 -1,1 -2,2 -3,2 -2,1 -3,1 -5,1 -2,0 -4,0 -6,-2 -2,-2 -2,-4 -2,-7 0,-3 0,-6 2,-8 2,-1 4,-2 7,-2 2,0 4,0 5,1 2,1 3,3 4,5 1,2 1,4 1,8 0,4 0,7 -1,9 -1,2 -2,4 -4,5 -1,1 -3,2 -5,2 -3,0 -5,-1 -6,-2 -2,-1 -3,-3 -3,-5zm15 -13c0,-3 0,-4 -2,-5 -1,-2 -2,-2 -4,-2 -1,0 -3,0 -4,2 -1,1 -2,3 -2,5 0,2 1,3 2,4 1,2 3,2 4,2 2,0 3,0 4,-2 2,-1 2,-2 2,-4z"/>
  <path id="2" class="fil2" d="M1102 4577l-4 0c0,-1 -1,-2 -1,-3 -1,-1 -2,-1 -4,-1 -1,0 -2,0 -3,1 -1,0 -2,2 -3,3 0,2 -1,4 -1,7 1,-1 2,-2 3,-3 2,0 3,-1 4,-1 3,0 5,1 7,3 1,2 2,4 2,7 0,2 0,3 -1,5 -1,2 -2,3 -3,4 -2,1 -3,1 -5,1 -3,0 -6,-1 -8,-3 -1,-3 -2,-6 -2,-11 0,-6 1,-10 3,-13 2,-2 4,-3 7,-3 3,0 5,0 6,2 2,1 3,3 3,5zm-15 13c0,1 0,2 1,4 0,1 1,2 2,2 1,1 2,1 3,1 1,0 3,-1 4,-2 1,-1 2,-3 2,-5 0,-2 -1,-4 -2,-5 -1,-1 -3,-2 -4,-2 -2,0 -3,1 -4,2 -2,1 -2,3 -2,5z"/>
  <path id="3" class="fil2" d="M1129 4589l4 1c-1,3 -3,6 -5,8 -2,1 -5,2 -8,2 -3,0 -6,-1 -8,-2 -2,-1 -3,-3 -4,-6 -1,-2 -2,-5 -2,-8 0,-3 1,-5 2,-8 1,-2 3,-4 5,-5 2,-1 5,-2 7,-2 3,0 6,1 8,3 2,1 3,3 4,6l-4 1c0,-2 -1,-4 -3,-5 -1,-1 -3,-1 -5,-1 -2,0 -4,0 -5,1 -2,1 -3,3 -4,5 0,2 -1,3 -1,5 0,3 1,5 1,7 1,2 2,3 4,4 1,1 3,2 5,2 2,0 4,-1 6,-2 1,-1 2,-3 3,-6z"/>
  <path id="4" class="fil2" d="M1136 4574l0 -4 20 0 0 3c-2,2 -4,5 -6,8 -2,3 -3,7 -4,10 -1,3 -2,6 -2,9l-4 0c0,-3 1,-6 2,-9 1,-3 2,-6 4,-10 1,-3 3,-5 5,-7l-15 0z"/>
  <path id="5" class="fil2" d="M1159 4592l4 -1c0,2 1,4 2,5 1,1 2,1 4,1 1,0 3,-1 4,-2 1,-1 2,-2 2,-4 0,-2 -1,-3 -2,-4 -1,-1 -2,-2 -4,-2 -1,0 -2,0 -3,0l1 -3c0,0 0,0 0,0 2,0 3,0 5,-1 1,-1 2,-2 2,-4 0,-1 -1,-2 -2,-3 -1,-1 -2,-1 -3,-1 -2,0 -3,0 -4,1 -1,1 -2,2 -2,4l-3 -1c0,-2 1,-4 3,-5 1,-2 3,-2 6,-2 1,0 3,0 4,1 1,0 2,1 3,3 1,1 1,2 1,3 0,2 0,3 -1,4 0,1 -2,2 -3,2 2,1 3,2 4,3 1,1 2,3 2,5 0,2 -1,5 -3,6 -2,2 -4,3 -7,3 -3,0 -5,-1 -7,-2 -2,-2 -3,-4 -3,-6z"/>
  <path id="6" class="fil2" d="M1181 4600l11 -30 4 0 12 30 -4 0 -3 -9 -13 0 -3 9 -4 0zm8 -13l10 0 -3 -8c-1,-2 -1,-5 -2,-6 0,2 -1,4 -2,6l-3 8z"/>
  <g id="_2672298437680">
   <g>
    <g style="clip-path:url(#id1)">
     <image x="5" y="0" width="1030" height="637" xlink:href="log-3_Images\log-3_ImgID2.png"/>
    </g>
   </g>
   <rect class="fil3" x="78" y="74" width="883" height="490"/>
   <path class="fil1" d="M614 238l96 0 0 96c0,36 -30,65 -66,65l-30 0c-14,0 -28,-4 -38,-12 35,-46 68,-76 110,-115 -20,9 -48,25 -74,43 -1,-12 -11,-21 -24,-21l-38 0c4,-31 31,-56 64,-56zm-26 89l-2 0 -30 0 -21 0 0 0 0 0c-5,0 -9,-4 -9,-9 0,-5 4,-9 9,-9l0 0 53 0c5,0 9,4 9,9 0,5 -4,9 -9,9l0 0zm-53 53c5,0 9,4 9,9 0,5 -4,9 -9,9 -5,0 -9,-4 -9,-9 0,-5 4,-9 9,-9zm0 -35l0 0 21 0 13 0 2 0 0 0c5,0 9,4 9,9 0,5 -4,9 -9,9l0 0 -2 0 -13 0 -21 0 0 0 0 0c-5,0 -9,-4 -9,-9 0,-5 4,-9 9,-9z"/>
   <path class="fil1" d="M338 309l9 0 27 0c25,0 45,20 45,45l0 0c0,24 -20,44 -45,44l-27 0 -9 0c-5,0 -9,-4 -9,-9l0 -17c0,-5 4,-9 9,-9 5,0 9,4 9,9l0 8 27 0c15,0 27,-12 27,-26l0 0c0,-15 -12,-27 -27,-27l-27 0 0 8c0,5 -4,9 -9,9 -5,0 -9,-4 -9,-9l0 -17c0,-5 4,-9 9,-9zm117 81c-1,4 -5,8 -9,8 -5,0 -9,-4 -9,-8l0 0 0 -1 0 -26 0 0c0,-1 0,-1 0,-1 0,-5 4,-9 9,-9l9 0 11 0 11 0c7,0 13,-6 13,-13l0 0c0,-7 -6,-13 -13,-13l-11 0 -11 0 -9 0 0 0c-5,0 -9,-4 -9,-9 0,-5 4,-9 9,-9l31 0c17,0 31,14 31,31l0 0c0,18 -14,32 -31,32l-22 0 0 17 0 1 0 0z"/>
   <path class="fil2" d="M124 533l2 -9 -4 0 0 -3 4 0 2 -7 -6 0 0 -3 7 0 1 -9 3 0 -1 9 6 0 2 -9 3 0 -2 9 4 0 0 3 -5 0 -1 7 6 0 0 3 -7 0 -2 9 -3 0 2 -9 -6 0 -2 9 -3 0zm5 -12l7 0 1 -7 -6 0 -2 7z"/>
   <path id="1" class="fil2" d="M147 525l4 0c0,2 1,3 2,4 0,0 2,1 3,1 1,0 2,0 3,-1 1,0 1,-1 2,-2 0,-1 1,-2 1,-4 1,-1 1,-2 1,-4 0,0 0,0 0,-1 -1,1 -2,2 -3,3 -2,1 -3,1 -4,1 -3,0 -5,-1 -7,-2 -1,-2 -2,-5 -2,-8 0,-3 1,-5 3,-7 1,-2 4,-3 6,-3 2,0 4,1 6,2 1,1 2,2 3,4 1,2 1,5 1,9 0,4 0,7 -1,9 -1,2 -2,4 -4,5 -1,1 -3,2 -5,2 -3,0 -4,-1 -6,-2 -1,-1 -2,-3 -3,-6zm15 -13c0,-2 0,-4 -1,-5 -1,-1 -3,-2 -4,-2 -2,0 -3,1 -5,2 -1,2 -1,3 -1,6 0,1 0,3 1,4 1,1 3,2 5,2 1,0 3,-1 4,-2 1,-1 1,-3 1,-5z"/>
   <path id="2" class="fil2" d="M189 510l-4 0c0,-1 0,-2 -1,-3 -1,-1 -2,-2 -4,-2 -1,0 -2,1 -3,1 -1,1 -2,2 -2,4 -1,2 -2,4 -2,7 1,-1 2,-2 4,-3 1,-1 2,-1 4,-1 2,0 4,1 6,3 2,1 3,4 3,7 0,1 -1,3 -2,5 0,1 -2,3 -3,4 -1,0 -3,1 -5,1 -3,0 -5,-1 -7,-4 -2,-2 -3,-5 -3,-11 0,-5 1,-10 3,-12 2,-2 4,-4 8,-4 2,0 4,1 5,2 2,2 3,3 3,6zm-15 13c0,1 0,2 1,3 0,1 1,2 2,3 1,1 2,1 3,1 2,0 3,-1 4,-2 1,-1 2,-3 2,-5 0,-2 -1,-4 -2,-5 -1,-1 -2,-2 -4,-2 -2,0 -3,1 -4,2 -1,1 -2,3 -2,5z"/>
   <path id="3" class="fil2" d="M216 522l4 1c-1,3 -2,6 -5,7 -2,2 -4,3 -8,3 -3,0 -5,-1 -7,-2 -2,-1 -4,-3 -5,-6 -1,-2 -1,-5 -1,-8 0,-3 0,-6 1,-8 1,-2 3,-4 5,-5 3,-1 5,-2 8,-2 3,0 5,1 7,2 2,2 4,4 4,7l-4 1c0,-3 -1,-4 -3,-5 -1,-1 -3,-2 -5,-2 -2,0 -4,1 -5,2 -2,1 -3,3 -3,4 -1,2 -1,4 -1,6 0,3 0,5 1,7 0,2 2,3 3,4 2,1 3,1 5,1 2,0 4,0 6,-1 1,-2 2,-4 3,-6z"/>
   <path id="4" class="fil2" d="M223 506l0 -3 20 0 0 3c-2,2 -4,4 -6,8 -2,3 -3,7 -4,10 -1,3 -1,5 -2,8l-3 0c0,-2 0,-5 1,-8 1,-4 2,-7 4,-10 1,-3 3,-6 5,-8l-15 0z"/>
   <path id="5" class="fil2" d="M246 524l4 0c1,2 1,3 2,4 1,1 2,2 4,2 2,0 3,-1 4,-2 1,-1 2,-3 2,-4 0,-2 0,-4 -2,-5 -1,-1 -2,-1 -4,-1 0,0 -1,0 -2,0l0 -3c0,0 0,0 1,0 1,0 3,0 4,-1 1,-1 2,-2 2,-4 0,-1 -1,-2 -2,-3 -1,-1 -2,-2 -3,-2 -2,0 -3,1 -4,2 -1,1 -1,2 -2,4l-3 -1c0,-2 1,-4 3,-6 1,-1 3,-2 6,-2 1,0 3,1 4,1 2,1 3,2 3,3 1,1 1,3 1,4 0,1 0,3 -1,4 0,1 -1,2 -3,2 2,1 4,1 4,3 1,1 2,3 2,4 0,3 -1,5 -3,7 -2,2 -4,3 -7,3 -3,0 -5,-1 -7,-3 -1,-1 -2,-3 -3,-6z"/>
   <path id="6" class="fil2" d="M268 532l11 -30 5 0 12 30 -5 0 -3 -9 -13 0 -3 9 -4 0zm8 -12l11 0 -4 -8c-1,-3 -1,-5 -2,-6 0,2 -1,3 -1,5l-4 9z"/>
   <path class="fil2" d="M747 145l2 -9 -4 0 0 -3 4 0 2 -7 -6 0 0 -3 6 0 2 -9 3 0 -1 9 6 0 2 -9 3 0 -2 9 3 0 0 3 -4 0 -1 7 5 0 0 3 -6 0 -2 9 -3 0 2 -9 -6 0 -2 9 -3 0zm5 -12l7 0 1 -7 -6 0 -2 7z"/>
   <path id="1" class="fil2" d="M770 137l4 0c0,2 1,3 2,4 0,0 1,1 3,1 1,0 2,0 3,-1 1,0 1,-1 2,-2 0,-1 1,-2 1,-3 1,-2 1,-3 1,-5 0,0 0,0 0,-1 -1,1 -2,2 -3,3 -2,1 -3,1 -4,1 -3,0 -5,-1 -7,-2 -1,-2 -2,-5 -2,-8 0,-3 1,-5 2,-7 2,-2 4,-3 7,-3 2,0 4,1 5,2 2,1 3,2 4,4 1,2 1,5 1,9 0,4 0,7 -1,9 -1,2 -2,4 -4,5 -1,1 -3,2 -5,2 -3,0 -5,-1 -6,-2 -1,-1 -2,-3 -3,-6zm15 -13c0,-2 0,-3 -1,-5 -1,-1 -3,-2 -4,-2 -2,0 -3,1 -5,2 -1,2 -1,3 -1,6 0,1 0,3 1,4 1,1 3,2 4,2 2,0 4,-1 5,-2 1,-1 1,-3 1,-5z"/>
   <path id="2" class="fil2" d="M812 122l-4 0c0,-1 0,-2 -1,-3 -1,-1 -2,-2 -4,-2 -1,0 -2,1 -3,1 -1,1 -2,2 -3,4 0,2 -1,4 -1,7 1,-1 2,-2 4,-3 1,-1 2,-1 4,-1 2,0 4,1 6,3 2,1 3,4 3,7 0,2 -1,3 -2,5 -1,1 -2,3 -3,4 -1,0 -3,1 -5,1 -3,0 -5,-1 -7,-4 -2,-2 -3,-5 -3,-11 0,-5 1,-10 3,-12 2,-2 4,-4 8,-4 2,0 4,1 5,2 2,2 3,3 3,6zm-15 13c0,1 0,2 1,3 0,1 1,2 2,3 1,1 2,1 3,1 2,0 3,-1 4,-2 1,-1 2,-3 2,-5 0,-2 -1,-4 -2,-5 -1,-1 -2,-2 -4,-2 -2,0 -3,1 -4,2 -1,1 -2,3 -2,5z"/>
   <path id="3" class="fil2" d="M839 134l4 1c-1,3 -3,6 -5,7 -2,2 -4,3 -8,3 -3,0 -5,-1 -7,-2 -2,-1 -4,-3 -5,-6 -1,-2 -2,-5 -2,-8 0,-3 1,-6 2,-8 1,-2 3,-4 5,-5 2,-1 5,-2 8,-2 3,0 5,1 7,2 2,2 3,4 4,7l-4 1c0,-3 -1,-4 -3,-5 -1,-1 -3,-2 -5,-2 -2,0 -4,1 -5,2 -2,1 -3,3 -4,4 0,2 0,4 0,6 0,3 0,5 1,7 0,2 2,3 3,4 2,1 3,1 5,1 2,0 4,0 6,-1 1,-2 2,-4 3,-6z"/>
   <path id="4" class="fil2" d="M846 118l0 -3 20 0 0 3c-2,2 -4,4 -6,8 -2,3 -3,7 -4,10 -1,3 -1,5 -2,8l-3 0c0,-2 0,-5 1,-8 1,-3 2,-7 4,-10 1,-3 3,-5 5,-8l-15 0z"/>
   <path id="5" class="fil2" d="M869 136l4 0c0,2 1,4 2,4 1,1 2,2 4,2 2,0 3,-1 4,-2 1,-1 2,-3 2,-4 0,-2 -1,-3 -2,-5 -1,-1 -2,-1 -4,-1 0,0 -1,0 -2,0l0 -3c0,0 0,0 1,0 1,0 3,0 4,-1 1,-1 2,-2 2,-4 0,-1 -1,-2 -2,-3 -1,-1 -2,-2 -3,-2 -2,0 -3,1 -4,2 -1,1 -1,2 -2,4l-3 -1c0,-2 1,-4 3,-6 1,-1 3,-2 6,-2 1,0 3,1 4,1 2,1 3,2 3,3 1,2 1,3 1,4 0,1 0,3 -1,4 0,1 -1,2 -3,2 2,1 3,1 4,3 1,1 2,3 2,5 0,2 -1,4 -3,6 -2,2 -4,3 -7,3 -3,0 -5,-1 -7,-2 -1,-2 -2,-4 -3,-7z"/>
   <path id="6" class="fil2" d="M891 144l11 -29 5 0 12 29 -5 0 -3 -9 -13 0 -3 9 -4 0zm8 -12l10 0 -3 -8c-1,-3 -1,-5 -2,-6 0,2 -1,3 -1,5l-4 9z"/>
  </g>
 </g>
</svg>
