<?xml version="1.0" encoding="UTF-8"?>
<!DOCTYPE svg PUBLIC "-//W3C//DTD SVG 1.1//EN" "http://www.w3.org/Graphics/SVG/1.1/DTD/svg11.dtd">
<!-- Creator: CorelDRAW X8 -->
<svg xmlns="http://www.w3.org/2000/svg" xml:space="preserve" width="591px" height="378px" version="1.1" style="shape-rendering:geometricPrecision; text-rendering:geometricPrecision; image-rendering:optimizeQuality; fill-rule:evenodd; clip-rule:evenodd"
viewBox="0 0 591 378"
 xmlns:xlink="http://www.w3.org/1999/xlink">
 <defs>
  <style type="text/css">
   <![CDATA[
    .fil0 {fill:#B2B3B3}
    .fil1 {fill:#022635;fill-rule:nonzero}
   ]]>
  </style>
 </defs>
 <g id="Layer_x0020_1">
  <metadata id="CorelCorpID_0Corel-Layer"/>
  <g id="_1191716877840">
   <path class="fil0" d="M156 121l-149 0 0 150c0,56 45,101 101,101l48 0c22,0 43,-7 60,-19 -56,-71 -107,-118 -173,-179 59,27 153,88 204,141 7,-13 11,-28 11,-44l0 -48c0,-56 -46,-102 -102,-102z"/>
   <path class="fil1" d="M417 223l5 0c-1,3 -2,6 -4,8 -3,1 -6,2 -9,2 -4,0 -8,-1 -11,-4 -2,-3 -3,-7 -3,-11 0,-6 1,-10 3,-12 3,-3 7,-5 11,-5 4,0 7,2 10,5 2,2 3,6 3,11 0,1 0,1 0,2l-22 0c0,3 1,5 3,7 1,2 3,3 6,3 2,0 3,-1 5,-2 1,-1 2,-2 3,-4zm-17 -9l17 0c0,-2 -1,-4 -2,-5 -2,-2 -4,-3 -6,-3 -3,0 -5,0 -6,2 -2,2 -3,4 -3,6z"/>
   <path id="1" class="fil1" d="M429 202l5 0 0 13c1,0 3,0 3,-1 1,0 2,-2 3,-5 1,-3 2,-4 3,-5 0,-1 1,-1 2,-1 1,-1 2,-1 4,-1l1 0 0 4 -2 0c-1,0 -2,1 -2,1 -1,0 -1,2 -2,4 -1,2 -2,3 -2,4 -1,1 -2,1 -3,2 2,0 4,3 6,6l6 9 -6 0 -5 -9c-1,-2 -2,-3 -3,-4 -1,0 -2,-1 -3,-1l0 14 -5 0 0 -30z"/>
   <path id="2" class="fil1" d="M453 217c0,-5 2,-9 5,-12 2,-2 5,-4 9,-4 4,0 8,2 10,5 3,2 4,6 4,11 0,4 0,7 -1,9 -2,2 -3,4 -5,5 -3,1 -5,2 -8,2 -4,0 -7,-1 -10,-4 -3,-3 -4,-7 -4,-12zm5 0c0,4 1,7 3,9 1,2 4,3 6,3 3,0 5,-1 7,-3 1,-2 2,-5 2,-9 0,-4 -1,-6 -2,-8 -2,-2 -4,-3 -7,-3 -2,0 -5,1 -6,3 -2,2 -3,4 -3,8z"/>
   <path id="3" class="fil1" d="M416 274l5 0c0,4 -2,6 -4,8 -2,2 -5,3 -9,3 -4,0 -7,-1 -9,-4 -3,-3 -4,-6 -4,-11 0,-4 0,-7 1,-9 1,-2 3,-4 5,-6 3,-1 5,-1 8,-1 3,0 6,0 8,2 2,2 3,4 4,7l-5 1c-1,-2 -2,-4 -3,-5 -1,-1 -3,-1 -4,-1 -3,0 -5,1 -7,3 -1,1 -2,4 -2,8 0,4 1,7 2,9 2,2 4,3 6,3 2,0 4,-1 5,-2 2,-1 3,-3 3,-5z"/>
   <polygon id="4" class="fil1" points="425,254 431,254 431,277 445,254 450,254 450,285 445,285 445,262 431,285 425,285 "/>
   <polygon id="5" class="fil1" points="458,254 466,254 474,279 483,254 490,254 490,285 485,285 485,260 476,285 472,285 463,259 463,285 458,285 "/>
   <path id="6" class="fil1" d="M498 254l12 0c3,0 5,1 7,1 1,1 2,1 3,3 1,1 2,3 2,4 0,2 -1,3 -1,4 -1,1 -2,2 -3,3 1,0 3,1 4,3 1,1 1,2 1,4 0,3 -1,5 -3,7 -2,1 -5,2 -8,2l-14 0 0 -31zm5 13l6 0c2,0 3,0 4,0 1,0 2,-1 2,-2 1,0 1,-1 1,-2 0,-2 0,-3 -1,-3 -1,-1 -3,-1 -6,-1l-6 0 0 8zm0 13l7 0c3,0 5,0 6,-1 1,0 2,-1 2,-3 0,-1 -1,-2 -1,-3 -1,-1 -2,-1 -3,-1 -1,-1 -2,-1 -4,-1l-7 0 0 9z"/>
   <path id="7" class="fil1" d="M527 269c0,-5 1,-9 4,-12 3,-2 6,-3 10,-3 4,0 7,1 10,4 3,2 4,6 4,11 0,4 -1,7 -2,9 -1,2 -3,4 -5,5 -2,2 -5,2 -7,2 -4,0 -8,-1 -10,-4 -3,-3 -4,-6 -4,-12zm5 0c0,4 1,7 2,9 2,2 4,3 7,3 2,0 5,-1 6,-3 2,-2 3,-5 3,-9 0,-3 -1,-6 -3,-8 -2,-2 -4,-3 -6,-3 -3,0 -5,1 -7,3 -1,2 -2,5 -2,8z"/>
   <path id="8" class="fil1" d="M562 254l24 0 0 31 -5 0 0 -26 -14 0 0 15c0,3 0,5 0,7 0,1 -1,2 -2,3 -1,0 -2,1 -4,1 -1,0 -3,0 -4,0l0 -5 2 0c1,0 2,0 2,0 1,0 1,-1 1,-1 0,-1 0,-2 0,-5l0 -20z"/>
   <path class="fil1" d="M5 36l5 -1c1,2 2,4 3,6 2,2 4,3 7,3 3,0 5,-1 7,-2 2,-2 3,-3 3,-5 0,-3 -1,-5 -3,-6 -2,-1 -4,-2 -7,-2l-3 0 0 -5c3,0 5,0 6,0 1,-1 2,-1 3,-3 2,-1 2,-2 2,-4 0,-1 -1,-3 -2,-4 -1,-2 -3,-2 -6,-2 -2,0 -4,0 -5,1 -2,1 -3,3 -3,4 -1,2 -1,3 -1,4l-5 -1c1,-9 6,-13 14,-13 4,0 8,1 10,3 2,2 4,5 4,8 0,4 -2,7 -6,9 2,1 4,2 5,4 2,2 3,4 3,6 0,4 -2,7 -5,9 -2,3 -6,4 -11,4 -8,0 -13,-4 -15,-13z"/>
   <path id="1" class="fil1" d="M62 38l6 1c-1,3 -3,6 -5,7 -2,2 -5,3 -9,3 -4,0 -7,-1 -10,-4 -3,-3 -4,-7 -4,-12 0,-5 1,-9 4,-11 3,-3 6,-5 10,-5 4,0 8,2 10,4 3,3 4,7 4,12 0,0 0,1 0,1l-23 0c1,4 1,6 3,8 2,2 4,3 6,3 2,0 4,-1 5,-2 2,-1 3,-2 3,-5zm-16 -8l16 0c0,-2 0,-4 -1,-6 -2,-1 -4,-2 -7,-2 -2,0 -4,0 -6,2 -1,1 -2,4 -2,6z"/>
   <path id="2" class="fil1" d="M75 18l24 0 0 30 -5 0 0 -26 -14 0 0 15c0,4 0,6 0,7 -1,1 -1,2 -2,3 -1,1 -3,1 -5,1 -1,0 -2,0 -4,0l0 -4 2 0c1,0 2,0 3,0 0,-1 0,-1 1,-1 0,-1 0,-2 0,-5l0 -20z"/>
   <path id="3" class="fil1" d="M127 38l5 1c0,3 -2,6 -4,7 -3,2 -5,3 -9,3 -4,0 -8,-1 -10,-4 -3,-3 -4,-7 -4,-12 0,-5 1,-9 4,-11 2,-3 6,-5 10,-5 4,0 7,2 10,4 2,3 4,7 4,12 0,0 -1,1 -1,1l-22 0c0,4 1,6 3,8 1,2 4,3 6,3 2,0 4,-1 5,-2 1,-1 2,-2 3,-5zm-17 -8l17 0c0,-2 -1,-4 -2,-6 -1,-1 -4,-2 -6,-2 -3,0 -5,0 -6,2 -2,1 -3,4 -3,6z"/>
   <polygon id="4" class="fil1" points="139,18 144,18 144,31 158,31 158,18 163,18 163,48 158,48 158,35 144,35 144,48 139,48 "/>
   <polygon id="5" class="fil1" points="171,18 176,18 176,41 190,18 196,18 196,48 191,48 191,25 177,48 171,48 "/>
   <path id="6" class="fil1" d="M204 18l5 0 0 23 14 -23 6 0 0 30 -6 0 0 -23 -14 23 -5 0 0 -30zm17 -11l4 0c0,2 -1,4 -3,5 -1,2 -3,2 -6,2 -2,0 -4,0 -5,-2 -2,-1 -3,-3 -3,-5l4 0c0,1 0,2 1,3 1,0 2,1 3,1 2,0 3,-1 4,-1 1,-1 1,-2 1,-3z"/>
   <path id="7" class="fil1" d="M255 18l24 0 0 30 -5 0 0 -26 -14 0 0 15c0,4 0,6 0,7 0,1 -1,2 -2,3 -1,1 -3,1 -5,1 -1,0 -2,0 -4,0l0 -4 3 0c1,0 1,0 2,0 0,-1 1,-1 1,-1 0,-1 0,-2 0,-5l0 -20z"/>
   <polygon id="8" class="fil1" points="287,18 292,18 292,41 306,18 311,18 311,48 306,48 306,25 292,48 287,48 "/>
   <path id="9" class="fil1" d="M339 37l5 1c-1,3 -2,6 -4,8 -2,2 -5,3 -9,3 -4,0 -7,-1 -10,-4 -2,-3 -3,-7 -3,-12 0,-3 0,-6 1,-8 1,-3 3,-5 5,-6 2,-1 5,-2 7,-2 4,0 6,1 9,3 2,1 3,4 4,7l-5 1c-1,-2 -2,-4 -3,-5 -1,-1 -3,-1 -4,-1 -3,0 -5,0 -7,2 -1,2 -2,5 -2,9 0,4 1,7 2,9 2,2 4,3 6,3 2,0 4,-1 5,-2 2,-1 3,-3 3,-6z"/>
   <polygon id="10" class="fil1" points="346,18 370,18 370,22 361,22 361,48 355,48 355,22 346,22 "/>
   <path id="11" class="fil1" d="M373 33c0,-5 1,-10 4,-12 3,-3 6,-4 10,-4 4,0 7,2 10,4 3,3 4,7 4,12 0,4 -1,7 -2,9 -1,2 -3,4 -5,5 -2,1 -5,2 -7,2 -5,0 -8,-1 -11,-4 -2,-3 -3,-7 -3,-12zm5 0c0,4 1,7 2,9 2,2 4,3 7,3 2,0 4,-1 6,-3 2,-2 3,-5 3,-9 0,-4 -1,-7 -3,-9 -2,-1 -4,-2 -6,-2 -3,0 -5,1 -7,2 -1,2 -2,5 -2,9z"/>
   <path id="12" class="fil1" d="M407 18l5 0 0 13c2,0 3,0 3,-1 1,-1 2,-2 3,-5 1,-3 2,-4 3,-5 0,-1 1,-1 2,-2 1,0 2,0 4,0l1 0 0 4 -1 0c-2,0 -3,0 -3,1 0,0 -1,1 -2,3 -1,2 -1,4 -2,5 -1,0 -2,1 -3,2 2,0 4,2 6,6l6 9 -6 0 -5 -9c-1,-2 -2,-3 -3,-4 -1,0 -2,-1 -3,-1l0 14 -5 0 0 -30z"/>
  </g>
 </g>
</svg>
