<?xml version="1.0" encoding="UTF-8"?>
<!DOCTYPE svg PUBLIC "-//W3C//DTD SVG 1.1//EN" "http://www.w3.org/Graphics/SVG/1.1/DTD/svg11.dtd">
<!-- Creator: CorelDRAW X8 -->
<svg xmlns="http://www.w3.org/2000/svg" xml:space="preserve" width="763px" height="390px" version="1.1" style="shape-rendering:geometricPrecision; text-rendering:geometricPrecision; image-rendering:optimizeQuality; fill-rule:evenodd; clip-rule:evenodd"
viewBox="0 0 763 390"
 xmlns:xlink="http://www.w3.org/1999/xlink">
 <defs>
  <style type="text/css">
   <![CDATA[
    .fil1 {fill:#B2B3B3}
    .fil0 {fill:#022635;fill-rule:nonzero}
   ]]>
  </style>
 </defs>
 <g id="Layer_x0020_1">
  <metadata id="CorelCorpID_0Corel-Layer"/>
  <g id="_1191733420832">
   <path class="fil0" d="M9 34l8 13 -4 0 -10 -13 10 -13 4 0 -8 13zm11 0l8 13 -4 0 -9 -13 9 -13 4 0 -8 13z"/>
   <path id="1" class="fil0" d="M90 34l-7 -13 4 0 9 13 -9 13 -4 0 7 -13zm-11 0l-7 -13 4 0 9 13 -9 13 -4 0 7 -13z"/>
   <polygon id="2" class="fil0" points="118,36 118,31 134,31 134,36 "/>
   <polygon id="3" class="fil0" points="37,49 37,7 65,7 65,12 42,12 42,25 62,25 62,30 42,30 42,49 "/>
   <polygon id="4" class="fil0" points="157,49 157,7 185,7 185,12 162,12 162,25 182,25 182,30 162,30 162,49 "/>
   <path id="5" class="fil0" d="M192 13l0 -6 5 0 0 6 -5 0zm0 36l0 -31 5 0 0 31 -5 0z"/>
   <polygon id="6" class="fil0" points="204,49 204,7 210,7 210,49 "/>
   <path id="7" class="fil0" d="M229 44l0 5c-1,0 -2,0 -4,0 -1,0 -3,0 -4,-1 -1,0 -2,-1 -2,-2 0,-1 -1,-3 -1,-6l0 -18 -3 0 0 -4 3 0 0 -7 5 -3 0 10 6 0 0 4 -6 0 0 18c0,1 1,2 1,3 0,0 0,1 1,1 0,0 1,0 1,0 1,0 2,0 3,0z"/>
   <path id="8" class="fil0" d="M254 39l6 0c-1,4 -3,6 -5,8 -2,1 -5,2 -9,2 -4,0 -8,-1 -10,-4 -3,-3 -4,-6 -4,-11 0,-5 1,-9 4,-12 3,-3 6,-4 10,-4 4,0 7,1 10,4 3,3 4,6 4,11 0,1 0,1 0,2l-23 0c0,3 1,6 3,7 2,2 4,3 6,3 2,0 4,0 5,-1 1,-1 3,-3 3,-5zm-16 -8l16 0c0,-3 -1,-5 -2,-6 -1,-2 -3,-3 -6,-3 -2,0 -4,1 -6,2 -1,2 -2,4 -2,7z"/>
   <path id="9" class="fil0" d="M266 49l0 -31 5 0 0 5c1,-2 2,-4 3,-4 1,-1 2,-1 3,-1 2,0 4,0 5,1l-1 5c-2,-1 -3,-1 -4,-1 -1,0 -2,0 -3,1 -1,1 -2,2 -2,3 -1,2 -1,4 -1,6l0 16 -5 0z"/>
   <polygon class="fil0" points="351,192 375,192 375,223 370,223 370,196 356,196 356,223 351,223 "/>
   <path id="1" class="fil0" d="M381 207c0,-5 2,-9 5,-12 2,-2 5,-3 9,-3 4,0 8,1 10,4 3,2 4,6 4,11 0,4 0,7 -1,9 -2,2 -3,4 -6,5 -2,2 -4,2 -7,2 -4,0 -8,-1 -10,-4 -3,-3 -4,-7 -4,-12zm5 0c0,4 1,7 3,9 1,2 4,3 6,3 3,0 5,-1 7,-3 1,-2 2,-5 2,-9 0,-4 -1,-6 -3,-8 -1,-2 -3,-3 -6,-3 -2,0 -5,1 -6,3 -2,2 -3,5 -3,8z"/>
   <path id="2" class="fil0" d="M417 192l23 0 0 30 -5 0 0 -26 -13 0 0 16c0,3 0,5 -1,7 0,1 -1,2 -2,2 -1,1 -2,2 -4,2 -1,0 -3,0 -4,-1l0 -4 2 0c1,0 2,0 2,0 1,0 1,-1 1,-1 0,-1 1,-2 1,-5l0 -20z"/>
   <path id="3" class="fil0" d="M447 207c0,-5 1,-9 4,-12 3,-2 6,-3 10,-3 4,0 8,1 10,4 3,2 4,6 4,11 0,4 0,7 -2,9 -1,2 -2,4 -5,5 -2,2 -4,2 -7,2 -4,0 -8,-1 -10,-4 -3,-3 -4,-7 -4,-12zm5 0c0,4 1,7 3,9 1,2 3,3 6,3 3,0 5,-1 6,-3 2,-2 3,-5 3,-9 0,-4 -1,-6 -3,-8 -1,-2 -3,-3 -6,-3 -3,0 -5,1 -6,3 -2,2 -3,5 -3,8z"/>
   <path id="4" class="fil0" d="M501 211l5 1c-1,4 -2,6 -4,8 -3,2 -5,3 -9,3 -4,0 -7,-1 -10,-4 -2,-3 -3,-6 -3,-12 0,-3 0,-6 1,-8 1,-3 3,-4 5,-6 2,-1 5,-1 7,-1 4,0 6,0 8,2 3,2 4,4 4,7l-4 1c-1,-2 -2,-4 -3,-5 -1,-1 -3,-1 -4,-1 -3,0 -5,1 -7,3 -1,1 -2,4 -2,8 0,4 1,7 2,9 2,2 4,3 6,3 2,0 4,-1 5,-2 2,-1 3,-3 3,-6z"/>
   <path id="5" class="fil0" d="M510 192l5 0 0 13c2,0 3,0 4,-1 1,0 1,-2 3,-5 1,-2 2,-4 2,-5 1,-1 2,-1 2,-1 1,-1 3,-1 4,-1l1 0 0 4 -1 0c-1,0 -2,1 -3,1 0,0 -1,2 -2,4 0,2 -1,3 -2,4 0,1 -1,1 -3,2 3,1 5,3 7,6l6 10 -6 0 -6 -10c-1,-2 -2,-3 -3,-4 0,0 -1,0 -3,0l0 14 -5 0 0 -31z"/>
   <polygon id="6" class="fil0" points="536,192 541,192 541,215 555,192 561,192 561,223 556,223 556,200 541,223 536,223 "/>
   <path id="7" class="fil0" d="M570 223l0 -6 6 0 0 6c0,2 -1,3 -2,5 0,1 -1,2 -3,3l-2 -2c2,-1 2,-2 3,-3 0,0 1,-2 1,-3l-3 0z"/>
   <path id="8" class="fil0" d="M625 192l0 31 -5 0 0 -12 -3 0c-2,0 -4,0 -4,0 -1,1 -3,2 -4,5l-5 7 -6 0 5 -9c2,-2 4,-4 5,-4 -2,0 -5,-1 -6,-3 -1,-2 -2,-4 -2,-6 0,-3 1,-5 3,-6 1,-2 4,-3 8,-3l14 0zm-5 4l-8 0c-3,0 -5,1 -6,2 0,1 -1,2 -1,3 0,2 1,3 2,4 1,1 4,2 7,2l6 0 0 -11z"/>
   <path id="9" class="fil0" d="M632 192l6 0 0 13c1,0 2,0 3,-1 1,0 2,-2 3,-5 1,-2 2,-4 2,-5 1,-1 2,-1 2,-1 1,-1 3,-1 4,-1l1 0 0 4 -1 0c-1,0 -2,1 -3,1 0,0 -1,2 -1,4 -1,2 -2,3 -3,4 0,1 -1,1 -3,2 3,1 5,3 7,6l6 10 -6 0 -6 -10c-1,-2 -2,-3 -2,-4 -1,0 -2,0 -3,0l0 14 -6 0 0 -31z"/>
   <path id="10" class="fil0" d="M371 264l5 0c0,4 -2,6 -4,8 -2,2 -5,3 -8,3 -5,0 -8,-1 -10,-4 -3,-2 -4,-6 -4,-11 0,-4 0,-6 1,-9 1,-2 3,-4 5,-5 3,-2 5,-2 8,-2 3,0 6,1 8,2 2,2 3,4 4,7l-5 1c-1,-2 -2,-4 -3,-5 -1,-1 -3,-1 -4,-1 -3,0 -5,1 -7,3 -1,2 -2,4 -2,8 0,5 1,7 2,9 2,2 4,3 6,3 2,0 4,-1 5,-2 2,-1 3,-3 3,-5z"/>
   <polygon id="11" class="fil0" points="378,244 402,244 402,249 393,249 393,275 387,275 387,249 378,249 "/>
   <path id="12" class="fil0" d="M408 286l-1 -4c1,0 2,0 3,0 1,0 2,0 3,-1 0,0 1,0 1,-1 1,-1 1,-2 2,-4 0,0 0,-1 0,-1l-11 -31 5 0 7 18c1,2 1,4 2,7 1,-2 1,-5 2,-7l6 -18 6 0 -12 31c-1,3 -2,6 -3,7 -1,2 -2,3 -3,4 -1,1 -2,1 -4,1 -1,0 -2,0 -3,-1z"/>
   <polygon id="13" class="fil0" points="437,244 461,244 461,275 456,275 456,249 442,249 442,275 437,275 "/>
   <path id="14" class="fil0" d="M469 239l0 -6 5 0 0 6 -5 0zm0 36l0 -31 5 0 0 31 -5 0z"/>
   <polygon id="15" class="fil0" points="482,244 487,244 487,257 501,257 501,244 506,244 506,275 501,275 501,261 487,261 487,275 482,275 "/>
   <path id="16" class="fil0" d="M514 244l5 0 0 12 6 0c5,0 8,1 10,3 2,1 3,4 3,6 0,3 0,5 -2,7 -2,2 -5,3 -10,3l-12 0 0 -31zm5 26l5 0c3,0 6,0 7,-1 2,-1 2,-2 2,-3 0,-2 0,-3 -1,-4 -1,-1 -4,-2 -7,-2l-6 0 0 10z"/>
   <path id="17" class="fil0" d="M558 260c0,-6 2,-10 5,-13 3,-2 6,-3 10,-3 4,0 7,1 10,4 2,3 4,6 4,11 0,4 -1,7 -2,9 -1,2 -3,4 -5,5 -2,2 -5,2 -7,2 -5,0 -8,-1 -11,-4 -2,-2 -4,-6 -4,-11zm6 0c0,3 1,6 2,8 2,2 4,3 7,3 2,0 4,-1 6,-3 2,-2 3,-5 3,-9 0,-3 -1,-6 -3,-8 -2,-2 -4,-3 -6,-3 -3,0 -5,1 -7,3 -1,2 -2,5 -2,9z"/>
   <path id="18" class="fil0" d="M590 244l5 0 0 6c0,3 0,4 0,5 0,2 1,3 2,3 1,1 3,2 5,2 1,0 4,-1 7,-2l0 -14 5 0 0 31 -5 0 0 -13c-3,1 -6,2 -9,2 -2,0 -4,-1 -6,-2 -2,-1 -3,-2 -3,-4 -1,-2 -1,-4 -1,-6l0 -8z"/>
   <polygon id="19" class="fil0" points="622,244 627,244 627,267 641,244 647,244 647,275 642,275 642,252 627,275 622,275 "/>
   <path id="20" class="fil0" d="M674 264l5 0c0,4 -2,6 -4,8 -2,2 -5,3 -8,3 -4,0 -8,-1 -10,-4 -3,-2 -4,-6 -4,-11 0,-4 1,-6 2,-9 1,-2 2,-4 5,-5 2,-2 4,-2 7,-2 3,0 6,1 8,2 2,2 3,4 4,7l-5 1c-1,-2 -1,-4 -3,-5 -1,-1 -2,-1 -4,-1 -3,0 -5,1 -6,3 -2,2 -3,4 -3,8 0,5 1,7 3,9 1,2 3,3 6,3 2,0 3,-1 5,-2 1,-1 2,-3 2,-5z"/>
   <polygon id="21" class="fil0" points="681,244 705,244 705,249 696,249 696,275 691,275 691,249 681,249 "/>
   <path id="22" class="fil0" d="M710 244l5 0 0 13c2,0 3,0 4,-1 1,0 2,-2 3,-5 1,-2 2,-4 2,-5 1,0 2,-1 2,-1 1,0 3,-1 4,-1l1 0 0 5 -1 0c-1,0 -2,0 -3,0 0,1 -1,2 -1,4 -1,2 -2,3 -3,4 0,1 -1,1 -3,2 3,1 5,3 7,6l6 10 -6 0 -6 -10c-1,-2 -2,-3 -3,-3 0,-1 -1,-1 -3,-1l0 14 -5 0 0 -31z"/>
   <polygon id="23" class="fil0" points="736,244 741,244 741,267 755,244 761,244 761,275 756,275 756,252 741,275 736,275 "/>
   <path class="fil1" d="M187 174l-7 0 -90 0 -61 0 0 0 0 0c-15,0 -27,-12 -27,-27 0,-14 12,-26 27,-26l0 0 158 0c14,0 26,12 26,26 0,15 -12,27 -26,27l0 0zm-158 158c14,0 26,12 26,26 0,15 -12,26 -26,26 -15,0 -27,-11 -27,-26 0,-14 12,-26 27,-26zm0 -106l0 0 61 0 38 0 6 0 0 0c14,0 26,12 26,27 0,14 -12,26 -26,26l0 0 -3 0 -41 0 -61 0 0 0 0 0c-15,0 -27,-12 -27,-26 0,-15 12,-27 27,-27z"/>
  </g>
 </g>
</svg>
