<?xml version="1.0" encoding="UTF-8"?>
<!DOCTYPE svg PUBLIC "-//W3C//DTD SVG 1.1//EN" "http://www.w3.org/Graphics/SVG/1.1/DTD/svg11.dtd">
<!-- Creator: CorelDRAW X8 -->
<svg xmlns="http://www.w3.org/2000/svg" xml:space="preserve" width="763px" height="443px" version="1.1" style="shape-rendering:geometricPrecision; text-rendering:geometricPrecision; image-rendering:optimizeQuality; fill-rule:evenodd; clip-rule:evenodd"
viewBox="0 0 763 443"
 xmlns:xlink="http://www.w3.org/1999/xlink">
 <defs>
  <style type="text/css">
   <![CDATA[
    .fil1 {fill:#B2B3B3}
    .fil0 {fill:#022635;fill-rule:nonzero}
   ]]>
  </style>
 </defs>
 <g id="Layer_x0020_1">
  <metadata id="CorelCorpID_0Corel-Layer"/>
  <g id="_1191733439936">
   <polygon class="fil0" points="475,235 475,193 506,193 506,198 481,198 481,211 504,211 504,216 481,216 481,230 507,230 507,235 "/>
   <path id="1" class="fil0" d="M513 205l6 0 0 13c1,0 2,-1 3,-1 1,-1 2,-3 3,-6 1,-2 2,-4 2,-5 1,0 2,-1 3,-1 0,0 2,0 3,0l2 0 0 4 -2 0c-1,0 -2,0 -3,0 0,1 -1,2 -1,4 -1,2 -2,3 -2,4 -1,1 -2,2 -3,2 2,1 4,3 6,6l6 10 -6 0 -6 -10c-1,-1 -2,-3 -2,-3 -1,-1 -2,-1 -3,-1l0 14 -6 0 0 -30z"/>
   <path id="2" class="fil0" d="M538 220c0,-6 1,-10 4,-13 3,-2 6,-3 10,-3 4,0 8,1 10,4 3,3 4,6 4,11 0,4 0,7 -2,9 -1,3 -3,4 -5,6 -2,1 -4,1 -7,1 -4,0 -8,-1 -10,-4 -3,-2 -4,-6 -4,-11zm5 0c0,4 1,6 3,8 1,2 3,3 6,3 3,0 5,-1 6,-3 2,-2 3,-5 3,-8 0,-4 -1,-7 -3,-9 -1,-2 -4,-3 -6,-3 -3,0 -5,1 -6,3 -2,2 -3,5 -3,9z"/>
   <path id="3" class="fil0" d="M590 193l5 0 0 15c1,-2 2,-3 3,-3 2,-1 3,-1 4,-1 4,0 7,1 9,4 2,3 3,7 3,12 0,4 -1,8 -3,11 -3,3 -5,4 -9,4 -1,0 -2,0 -3,0 -1,0 -3,-1 -4,-3l0 14 -5 0 0 -14c-1,1 -2,2 -4,3 -1,0 -2,0 -4,0 -3,0 -6,-1 -8,-4 -2,-2 -4,-6 -4,-12 0,-4 2,-8 4,-11 2,-3 5,-4 8,-4 2,0 3,0 4,1 2,0 3,1 4,3l0 -15zm5 27c0,4 0,7 2,9 1,2 3,2 4,2 2,0 4,-1 6,-3 1,-1 2,-4 2,-9 0,-3 -1,-6 -2,-8 -1,-2 -3,-3 -5,-3 -3,0 -4,1 -5,3 -2,2 -2,5 -2,9zm-19 -1c0,5 0,8 2,9 1,2 3,3 5,3 2,0 4,-1 5,-3 1,-1 2,-4 2,-8 0,-4 -1,-7 -2,-9 -1,-2 -3,-3 -5,-3 -2,0 -4,1 -5,3 -2,2 -2,5 -2,8z"/>
   <path id="4" class="fil0" d="M620 199l0 -6 5 0 0 6 -5 0zm0 36l0 -30 5 0 0 30 -5 0z"/>
   <path id="5" class="fil0" d="M636 205l23 0 0 30 -5 0 0 -26 -13 0 0 15c0,3 0,6 -1,7 0,1 0,2 -1,3 -2,1 -3,1 -5,1 -1,0 -3,0 -4,0l0 -4 2 0c1,0 2,-1 2,-1 1,0 1,0 1,-1 1,0 1,-2 1,-4l0 -20z"/>
   <path id="6" class="fil0" d="M667 205l5 0 0 11 7 0c4,0 7,1 9,3 3,2 4,4 4,7 0,2 -1,4 -3,6 -2,2 -5,3 -9,3l-13 0 0 -30zm5 26l6 0c3,0 5,-1 7,-2 1,0 2,-2 2,-3 0,-2 -1,-3 -2,-4 -1,-1 -3,-1 -7,-1l-6 0 0 10z"/>
   <polygon id="7" class="fil0" points="690,205 715,205 715,209 705,209 705,235 700,235 700,209 690,209 "/>
   <path id="8" class="fil0" d="M720 246l0 -41 4 0 0 4c1,-2 3,-3 4,-4 1,-1 3,-1 5,-1 3,0 5,1 7,2 2,1 3,3 4,6 1,2 2,5 2,7 0,4 -1,6 -2,9 -1,2 -2,4 -5,6 -2,1 -4,1 -6,1 -2,0 -3,0 -5,-1 -1,0 -2,-1 -3,-2l0 14 -5 0zm4 -26c0,4 1,7 3,8 1,2 3,3 5,3 3,0 5,-1 6,-3 2,-2 3,-5 3,-9 0,-3 -1,-6 -3,-8 -1,-2 -3,-3 -5,-3 -3,0 -4,1 -6,3 -2,2 -3,5 -3,9z"/>
   <path class="fil0" d="M39 34l0 -5 17 0 0 15c-3,3 -5,4 -8,5 -3,1 -6,2 -9,2 -4,0 -8,-1 -11,-3 -4,-1 -6,-4 -8,-7 -2,-4 -2,-7 -2,-11 0,-4 0,-8 2,-12 2,-3 4,-6 7,-8 4,-1 7,-2 11,-2 3,0 6,0 9,1 2,1 4,3 5,4 2,2 3,4 4,7l-5 2c-1,-3 -2,-4 -3,-5 -1,-2 -2,-3 -4,-3 -1,-1 -3,-1 -6,-1 -2,0 -4,0 -6,1 -2,0 -3,1 -5,3 -1,1 -2,2 -2,4 -1,2 -2,5 -2,8 0,4 1,7 2,10 1,2 3,4 6,5 2,1 5,2 8,2 2,0 4,0 7,-1 2,-1 4,-2 5,-3l0 -8 -12 0z"/>
   <path id="1" class="fil0" d="M64 50l0 -30 4 0 0 5c1,-2 3,-4 4,-5 1,0 2,-1 3,-1 2,0 3,1 5,2l-2 5c-1,-1 -2,-1 -3,-1 -2,0 -3,0 -3,1 -1,0 -2,1 -2,3 -1,1 -1,3 -1,5l0 16 -5 0z"/>
   <path id="2" class="fil0" d="M103 47c-2,1 -4,2 -6,3 -1,1 -3,1 -5,1 -4,0 -6,-1 -8,-2 -2,-2 -3,-4 -3,-7 0,-1 1,-3 1,-4 1,-1 2,-2 3,-3 1,0 2,-1 4,-1 1,-1 2,-1 4,-1 4,-1 8,-1 9,-2 0,-1 0,-1 0,-1 0,-2 0,-4 -1,-5 -1,-1 -3,-1 -6,-1 -2,0 -4,0 -5,1 -1,1 -2,2 -3,4l-5 0c1,-2 1,-4 3,-5 1,-2 2,-3 4,-4 2,0 4,-1 7,-1 3,0 5,1 6,1 2,1 3,2 4,3 1,1 1,2 1,3 1,1 1,3 1,5l0 7c0,4 0,7 0,9 0,1 1,2 1,3l-5 0c-1,-1 -1,-2 -1,-3zm-1 -12c-1,1 -4,2 -8,2 -2,0 -4,1 -4,1 -1,0 -2,1 -2,2 -1,0 -1,1 -1,2 0,2 0,3 1,4 1,0 3,1 5,1 2,0 4,-1 5,-1 2,-1 3,-2 4,-4 0,-1 0,-3 0,-5l0 -2z"/>
   <path id="3" class="fil0" d="M116 62l0 -42 4 0 0 4c1,-2 3,-3 4,-3 1,-1 3,-2 5,-2 3,0 5,1 7,2 2,2 3,4 4,6 1,2 2,5 2,8 0,3 -1,6 -2,8 -1,3 -3,5 -5,6 -2,1 -4,2 -6,2 -2,0 -4,0 -5,-1 -1,-1 -2,-2 -3,-3l0 15 -5 0zm4 -27c0,4 1,7 3,9 1,2 3,3 5,3 3,0 5,-1 6,-3 2,-2 3,-5 3,-9 0,-4 -1,-7 -3,-9 -1,-2 -3,-3 -5,-3 -3,0 -5,1 -6,3 -2,3 -3,5 -3,9z"/>
   <path id="4" class="fil0" d="M148 50l0 -41 5 0 0 15c3,-3 6,-5 9,-5 2,0 4,1 6,2 2,1 3,2 4,3 0,2 1,4 1,7l0 19 -6 0 0 -19c0,-2 0,-4 -1,-5 -1,-2 -3,-2 -5,-2 -1,0 -3,0 -4,1 -1,1 -2,2 -3,3 -1,2 -1,3 -1,6l0 16 -5 0z"/>
   <path id="5" class="fil0" d="M180 14l0 -5 6 0 0 5 -6 0zm0 36l0 -30 6 0 0 30 -6 0z"/>
   <path id="6" class="fil0" d="M213 39l5 1c0,3 -2,6 -4,8 -2,2 -5,3 -8,3 -4,0 -8,-1 -10,-4 -3,-3 -4,-7 -4,-12 0,-3 0,-6 2,-8 1,-3 2,-5 4,-6 3,-1 5,-2 8,-2 3,0 6,1 8,3 2,2 3,4 4,7l-5 1c-1,-2 -2,-4 -3,-5 -1,-1 -2,-1 -4,-1 -3,0 -5,1 -6,2 -2,2 -3,5 -3,9 0,4 1,7 2,9 2,2 4,3 7,3 2,0 3,-1 5,-2 1,-1 2,-3 2,-6z"/>
   <path id="7" class="fil0" d="M237 41l5 -1c0,2 1,4 2,5 2,1 3,2 6,2 2,0 4,-1 5,-2 1,-1 2,-2 2,-3 0,-1 -1,-2 -2,-3 -1,0 -2,-1 -5,-2 -4,0 -6,-1 -8,-2 -1,-1 -3,-2 -3,-3 -1,-1 -1,-2 -1,-4 0,-1 0,-3 1,-4 0,-1 1,-2 2,-3 1,0 2,-1 3,-1 2,0 3,-1 5,-1 2,0 4,1 6,1 2,1 3,2 4,3 1,1 1,3 2,5l-5 1c-1,-2 -1,-3 -2,-4 -1,-1 -3,-1 -5,-1 -2,0 -4,0 -5,1 -1,1 -1,1 -1,2 0,1 0,2 0,2 1,1 1,1 2,2 1,0 2,0 5,1 3,1 6,2 7,2 2,1 3,2 4,3 0,1 1,3 1,4 0,2 -1,4 -2,5 -1,2 -2,3 -4,4 -2,1 -4,1 -6,1 -4,0 -7,-1 -9,-2 -2,-2 -4,-5 -4,-8z"/>
   <path id="8" class="fil0" d="M268 14l0 -5 5 0 0 5 -5 0zm0 36l0 -30 5 0 0 30 -5 0z"/>
   <path id="9" class="fil0" d="M280 53l5 1c0,1 1,2 2,3 1,1 3,1 5,1 2,0 4,0 5,-1 2,-1 3,-2 3,-4 0,-1 0,-3 0,-7 -2,3 -5,4 -8,4 -4,0 -7,-1 -10,-4 -2,-3 -3,-7 -3,-11 0,-3 0,-6 1,-8 2,-2 3,-4 5,-6 2,-1 4,-2 7,-2 4,0 7,2 9,5l0 -4 5 0 0 26c0,5 -1,8 -2,10 -1,2 -2,4 -4,5 -2,1 -5,2 -8,2 -4,0 -7,-1 -9,-3 -2,-1 -3,-4 -3,-7zm4 -18c0,4 1,6 3,8 1,2 3,3 5,3 3,0 5,-1 6,-3 2,-1 3,-4 3,-8 0,-4 -1,-7 -3,-9 -1,-1 -3,-2 -6,-2 -2,0 -4,1 -5,2 -2,2 -3,5 -3,9z"/>
   <path id="10" class="fil0" d="M313 50l0 -30 5 0 0 4c2,-3 5,-5 10,-5 1,0 3,1 5,1 1,1 2,2 3,3 1,1 1,2 2,4 0,1 0,2 0,5l0 18 -5 0 0 -18c0,-2 0,-4 -1,-5 0,-1 -1,-2 -2,-2 -1,-1 -2,-1 -3,-1 -3,0 -5,1 -6,2 -2,1 -3,4 -3,8l0 16 -5 0z"/>
   <path class="fil1" d="M188 123l185 0 0 185c0,70 -57,126 -126,126l-59 0c-28,0 -54,-9 -75,-24 69,-88 133,-146 215,-222 -40,18 -93,49 -143,84 -3,-24 -23,-42 -47,-42l-75 0c9,-60 62,-107 125,-107zm-50 171l-4 0 -59 0 -41 0 0 0 0 0c-9,0 -17,-8 -17,-17 0,-10 8,-18 17,-18l1 0 103 0c10,0 18,8 18,18 0,9 -8,17 -18,17l0 0zm-104 104c10,0 18,8 18,17 0,10 -8,18 -18,18 -9,0 -17,-8 -17,-18 0,-9 8,-17 17,-17zm0 -69l0 0 41 0 25 0 4 0 0 0c9,0 17,7 17,17 0,10 -8,17 -17,17l0 0 -3 0 -26 0 -41 0 0 0 0 0c-9,0 -17,-7 -17,-17 0,-10 8,-17 17,-17z"/>
  </g>
 </g>
</svg>
