<?xml version="1.0" encoding="UTF-8"?>
<!DOCTYPE svg PUBLIC "-//W3C//DTD SVG 1.1//EN" "http://www.w3.org/Graphics/SVG/1.1/DTD/svg11.dtd">
<!-- Creator: CorelDRAW X8 -->
<svg xmlns="http://www.w3.org/2000/svg" xml:space="preserve" width="425px" height="425px" version="1.1" style="shape-rendering:geometricPrecision; text-rendering:geometricPrecision; image-rendering:optimizeQuality; fill-rule:evenodd; clip-rule:evenodd"
viewBox="0 0 425 425"
 xmlns:xlink="http://www.w3.org/1999/xlink">
 <defs>
  <style type="text/css">
   <![CDATA[
    .fil0 {fill:#FEFEFE}
    .fil1 {fill:url(#id1)}
   ]]>
  </style>
     <clipPath id="id0">
      <path d="M2 2l421 0 0 421 -421 0 0 -421z"/>
     </clipPath>
  <linearGradient id="id1" gradientUnits="userSpaceOnUse" x1="261.278" y1="139.335" x2="179.263" y2="230.068">
   <stop offset="0" style="stop-opacity:1; stop-color:#96C73A"/>
   <stop offset="1" style="stop-opacity:1; stop-color:#659F4A"/>
  </linearGradient>
 </defs>
 <g id="Layer_x0020_1">
  <metadata id="CorelCorpID_0Corel-Layer"/>
  <g id="_2672058572528">
   <g>
    <g style="clip-path:url(#id0)">
     <image x="2" y="2" width="422" height="422" xlink:href="logo-color_Images\logo-color_ImgID1.png"/>
    </g>
   </g>
   <circle class="fil0" cx="213" cy="190" r="162"/>
   <path class="fil1" d="M208 121l76 0 0 76c0,28 -23,52 -52,52l-24 0c-11,0 -22,-4 -30,-10 28,-36 54,-60 88,-91 -17,7 -38,20 -59,34 -1,-10 -9,-17 -19,-17l-31 0c4,-25 25,-44 51,-44zm-20 70l-2 0 -24 0 -17 0 0 0 0 0c-4,0 -7,-3 -7,-7 0,-4 3,-7 7,-7l0 0 43 0c4,0 7,3 7,7 0,4 -3,7 -7,7l0 0zm-43 43c4,0 7,3 7,7 0,4 -3,7 -7,7 -4,0 -7,-3 -7,-7 0,-4 3,-7 7,-7zm0 -29l0 0 17 0 10 0 2 0 0 0c4,0 7,3 7,7 0,4 -3,8 -7,8l0 0 -1 0 -11 0 -17 0 0 0 0 0c-4,0 -7,-4 -7,-8 0,-4 3,-7 7,-7z"/>
  </g>
 </g>
</svg>
