<?xml version="1.0" encoding="UTF-8"?>
<!DOCTYPE svg PUBLIC "-//W3C//DTD SVG 1.1//EN" "http://www.w3.org/Graphics/SVG/1.1/DTD/svg11.dtd">
<!-- Creator: CorelDRAW X8 -->
<svg xmlns="http://www.w3.org/2000/svg" xml:space="preserve" width="47px" height="47px" version="1.1" style="shape-rendering:geometricPrecision; text-rendering:geometricPrecision; image-rendering:optimizeQuality; fill-rule:evenodd; clip-rule:evenodd"
viewBox="0 0 47 47"
 xmlns:xlink="http://www.w3.org/1999/xlink">
 <defs>
  <style type="text/css">
   <![CDATA[
    .fil0 {fill:#FEFEFE}
   ]]>
  </style>
 </defs>
 <g id="Layer_x0020_1">
  <metadata id="CorelCorpID_0Corel-Layer"/>
  <path class="fil0" d="M31 15l12 2c0,0 0,1 1,1 0,0 0,0 0,1 0,0 0,0 0,1 0,0 0,0 0,1l-9 8 0 0 0 0 2 12c0,1 0,1 0,1 0,1 0,1 -1,1l0 0 -1 0 0 0 -1 0 -10 -5 0 0 -1 0 -10 5c-1,0 -1,0 -1,0 -1,0 -1,0 -1,0 -1,0 -1,0 -1,-1 0,0 0,0 0,-1l2 -12 0 0 0 0 -9 -8c0,-1 0,-1 0,-1 0,0 0,-1 0,-1l0 0 0 0 0 0c0,-1 0,-1 0,-1 1,0 1,-1 1,-1l12 -2 0 0 0 0 6 -10c0,-1 0,-1 1,-1 0,0 0,0 1,0 0,0 0,0 0,0 1,0 1,0 1,1l6 10 0 0 0 0z"/>
 </g>
</svg>
