<?xml version="1.0" encoding="UTF-8"?>
<!DOCTYPE svg PUBLIC "-//W3C//DTD SVG 1.1//EN" "http://www.w3.org/Graphics/SVG/1.1/DTD/svg11.dtd">
<!-- Creator: CorelDRAW X8 -->
<svg xmlns="http://www.w3.org/2000/svg" xml:space="preserve" width="1323px" height="437px" version="1.1" style="shape-rendering:geometricPrecision; text-rendering:geometricPrecision; image-rendering:optimizeQuality; fill-rule:evenodd; clip-rule:evenodd"
viewBox="0 0 1323 437"
 xmlns:xlink="http://www.w3.org/1999/xlink">
 <defs>
  <style type="text/css">
   <![CDATA[
    .fil1 {fill:#FEFEFE;fill-rule:nonzero}
    .fil0 {fill:#96C73A;fill-rule:nonzero}
   ]]>
  </style>
 </defs>
 <g id="Layer_x0020_1">
  <metadata id="CorelCorpID_0Corel-Layer"/>
  <g id="_2873621287056">
   <path class="fil0" d="M6 185l18 -48 7 0 20 48 -8 0 -5 -15 -20 0 -5 15 -7 0zm14 -20l16 0 -5 -13c-1,-4 -3,-7 -3,-10 -1,3 -2,6 -3,9l-5 14z"/>
   <path id="1" class="fil0" d="M78 180c-3,2 -5,4 -7,4 -2,1 -4,2 -6,2 -4,0 -7,-1 -9,-3 -2,-2 -3,-4 -3,-7 0,-2 0,-4 1,-5 1,-1 2,-2 3,-3 1,-1 3,-2 4,-2 1,-1 3,-1 6,-1 4,-1 8,-1 10,-2 0,-1 0,-1 0,-2 0,-2 0,-4 -2,-5 -1,-1 -3,-2 -6,-2 -3,0 -5,1 -6,2 -2,1 -3,2 -3,5l-6 -1c0,-2 1,-4 3,-6 1,-1 2,-2 5,-3 2,-1 5,-2 8,-2 3,0 5,1 7,2 2,0 3,1 4,2 1,1 1,3 2,4 0,1 0,3 0,6l0 7c0,6 0,9 0,11 1,1 1,2 2,4l-6 0c-1,-1 -1,-3 -1,-5zm-1 -13c-2,1 -5,2 -10,3 -2,0 -4,0 -5,1 -1,0 -1,1 -2,2 -1,1 -1,2 -1,3 0,1 1,2 2,3 1,1 3,2 5,2 2,0 4,-1 6,-2 2,0 3,-2 4,-4 1,-1 1,-3 1,-5l0 -3z"/>
   <path id="2" class="fil0" d="M111 185l0 -48 18 0c4,0 6,1 9,2 2,1 4,2 5,4 1,2 2,4 2,6 0,2 -1,4 -2,6 -1,2 -3,3 -5,4 3,1 5,3 7,5 1,2 2,4 2,7 0,2 0,4 -1,6 -1,2 -3,4 -4,5 -1,1 -3,1 -5,2 -2,1 -5,1 -8,1l-18 0zm6 -28l11 0c2,0 4,0 6,0 1,-1 2,-2 3,-3 1,-1 2,-2 2,-4 0,-2 -1,-3 -2,-4 0,-1 -1,-2 -3,-3 -1,0 -4,0 -7,0l-10 0 0 14zm0 22l12 0c2,0 4,0 5,0 1,0 2,-1 3,-1 1,-1 2,-2 3,-3 0,-1 1,-2 1,-4 0,-2 -1,-3 -2,-5 -1,-1 -2,-2 -4,-2 -1,-1 -4,-1 -7,-1l-11 0 0 16z"/>
   <path id="3" class="fil0" d="M160 185l-5 0 0 -48 6 0 0 17c2,-3 5,-5 9,-5 2,0 4,1 6,2 2,1 4,2 5,3 1,2 2,4 3,6 1,2 1,5 1,7 0,6 -2,10 -5,14 -2,3 -6,5 -10,5 -4,0 -7,-2 -10,-6l0 5zm0 -18c0,4 1,7 2,9 2,3 4,5 7,5 3,0 5,-1 7,-4 2,-2 3,-5 3,-10 0,-4 -1,-7 -3,-9 -2,-3 -4,-4 -6,-4 -3,0 -5,1 -7,4 -2,2 -3,5 -3,9z"/>
   <path id="4" class="fil0" d="M245 168l7 2c-2,5 -4,9 -8,12 -3,2 -7,4 -12,4 -5,0 -9,-1 -13,-4 -3,-2 -5,-5 -7,-9 -2,-4 -3,-8 -3,-12 0,-5 1,-10 3,-13 2,-4 5,-7 8,-9 4,-2 8,-3 12,-3 5,0 9,2 12,4 3,2 6,6 7,10l-6 2c-2,-4 -3,-6 -5,-8 -2,-2 -5,-2 -8,-2 -4,0 -7,1 -9,2 -3,2 -5,4 -5,7 -1,3 -2,6 -2,10 0,4 1,7 2,10 1,3 3,5 5,7 3,1 5,2 8,2 4,0 7,-1 9,-3 3,-2 4,-5 5,-9z"/>
   <path id="5" class="fil0" d="M281 172l6 1c-1,4 -2,7 -5,9 -2,2 -6,4 -9,4 -5,0 -9,-2 -12,-5 -3,-3 -4,-8 -4,-13 0,-4 1,-7 2,-10 1,-3 3,-5 5,-6 3,-2 6,-3 9,-3 3,0 6,1 9,3 2,2 4,5 4,8l-5 1c-1,-2 -2,-4 -3,-5 -1,-1 -3,-2 -5,-2 -3,0 -5,1 -7,3 -2,3 -3,6 -3,10 0,5 1,9 3,11 1,2 4,3 7,3 2,0 4,-1 5,-2 2,-2 3,-4 3,-7z"/>
   <path id="6" class="fil0" d="M311 185l0 -48 17 0c3,0 6,0 8,1 3,0 5,2 7,3 3,2 5,5 6,8 1,4 2,7 2,12 0,3 -1,7 -2,9 0,3 -2,5 -3,7 -1,2 -3,4 -4,5 -2,1 -4,1 -6,2 -2,1 -5,1 -8,1l-17 0zm7 -6l10 0c3,0 5,0 7,-1 2,0 3,-1 4,-2 2,-2 3,-4 4,-6 1,-3 1,-6 1,-9 0,-5 -1,-9 -2,-12 -2,-3 -4,-4 -6,-5 -2,-1 -5,-1 -8,-1l-10 0 0 36z"/>
   <path id="7" class="fil0" d="M381 185l0 -5c-2,4 -5,6 -10,6 -2,0 -5,-1 -7,-3 -3,-1 -4,-3 -6,-6 -1,-3 -2,-6 -2,-9 0,-4 1,-7 2,-10 1,-3 3,-5 5,-6 3,-2 5,-3 8,-3 2,0 4,1 6,2 1,1 3,2 4,3l0 -17 5 0 0 48 -5 0zm-19 -17c0,4 1,7 3,9 2,3 4,4 7,4 2,0 5,-1 6,-3 2,-2 3,-6 3,-10 0,-5 -1,-8 -3,-10 -1,-3 -4,-4 -6,-4 -3,0 -5,1 -7,4 -2,2 -3,5 -3,10z"/>
   <polygon id="8" class="fil0" points="415,185 415,137 450,137 450,143 421,143 421,157 448,157 448,163 421,163 421,179 451,179 451,185 "/>
   <path id="9" class="fil0" d="M482 174l6 0c-1,4 -2,7 -5,9 -3,2 -6,3 -10,3 -5,0 -9,-2 -12,-5 -3,-3 -4,-8 -4,-13 0,-6 1,-10 4,-14 3,-3 7,-5 12,-5 4,0 8,2 11,5 3,3 5,8 5,13 0,1 -1,1 -1,2l-25 0c0,4 1,7 3,9 2,2 4,3 7,3 2,0 4,-1 6,-2 1,-1 2,-3 3,-5zm-19 -10l19 0c0,-3 -1,-5 -2,-6 -2,-3 -4,-4 -7,-4 -3,0 -5,1 -7,3 -2,2 -3,4 -3,7z"/>
   <polygon id="10" class="fil0" points="515,185 515,137 547,137 547,143 522,143 522,158 544,158 544,163 522,163 522,185 "/>
   <path id="11" class="fil0" d="M556 185l0 -30 -5 0 0 -5 5 0 0 -3c0,-3 1,-4 1,-6 1,-1 1,-2 3,-3 1,-1 3,-2 6,-2 2,0 3,0 5,1l-1 5c-1,0 -2,0 -3,0 -2,0 -3,0 -4,1 0,1 -1,2 -1,4l0 3 7 0 0 5 -7 0 0 30 -6 0z"/>
   <path id="12" class="fil0" d="M615 166l0 -6 20 0 0 18c-3,3 -6,5 -9,6 -4,1 -7,2 -11,2 -4,0 -8,-1 -12,-3 -4,-2 -7,-5 -9,-9 -2,-4 -3,-8 -3,-13 0,-4 1,-9 3,-13 2,-4 5,-7 8,-9 4,-2 8,-3 13,-3 3,0 7,1 9,2 3,1 5,3 7,5 1,2 3,4 3,7l-5 2c-1,-2 -2,-4 -3,-6 -1,-1 -2,-2 -4,-3 -2,-1 -5,-1 -7,-1 -3,0 -5,0 -7,1 -3,1 -4,2 -6,3 -1,2 -2,4 -3,5 -1,3 -1,6 -1,10 0,4 0,8 2,11 1,2 3,5 6,6 3,1 6,2 9,2 3,0 6,-1 8,-2 3,-1 5,-2 6,-3l0 -9 -14 0z"/>
   <path id="13" class="fil0" d="M643 188l5 0c1,2 1,4 2,4 2,1 4,2 6,2 3,0 5,-1 7,-2 1,-1 2,-2 3,-4 0,-1 0,-4 0,-8 -3,3 -6,5 -10,5 -4,0 -8,-2 -11,-5 -2,-4 -3,-8 -3,-13 0,-3 0,-6 1,-9 2,-3 3,-5 6,-6 2,-2 4,-3 8,-3 4,0 7,2 10,5l0 -4 5 0 0 30c0,5 -1,9 -2,12 -1,2 -2,4 -5,5 -2,1 -5,2 -9,2 -4,0 -7,-1 -10,-3 -2,-2 -3,-5 -3,-8zm5 -21c0,4 0,8 2,10 2,2 4,3 7,3 3,0 5,-1 7,-3 2,-2 3,-5 3,-10 0,-4 -1,-7 -3,-9 -2,-3 -4,-4 -7,-4 -3,0 -5,1 -7,4 -2,2 -2,5 -2,9z"/>
   <polygon id="14" class="fil0" points="719,185 719,137 725,137 725,157 750,157 750,137 756,137 756,185 750,185 750,162 725,162 725,185 "/>
   <path id="15" class="fil0" d="M766 185l0 -48 6 0 0 17c3,-3 6,-5 10,-5 3,0 5,1 7,2 2,1 3,2 4,4 1,2 1,5 1,8l0 22 -6 0 0 -22c0,-3 0,-5 -2,-6 -1,-2 -3,-2 -5,-2 -2,0 -3,0 -5,1 -1,1 -2,2 -3,4 -1,1 -1,3 -1,6l0 19 -6 0z"/>
   <polygon id="16" class="fil0" points="823,185 823,137 830,137 830,185 "/>
   <path id="17" class="fil0" d="M840 144l0 -7 6 0 0 7 -6 0zm0 41l0 -35 6 0 0 35 -6 0z"/>
   <path id="18" class="fil0" d="M871 171l6 -1c0,4 0,7 2,8 1,1 3,2 5,2 1,0 3,0 4,-1 1,-1 2,-2 2,-3 1,-1 1,-3 1,-6l0 -33 6 0 0 33c0,4 0,7 -1,9 -1,2 -3,4 -5,5 -2,1 -4,2 -7,2 -4,0 -8,-2 -10,-4 -2,-2 -3,-6 -3,-11z"/>
   <path id="19" class="fil0" d="M907 144l0 -7 6 0 0 7 -6 0zm-8 54l1 -5c2,1 2,1 3,1 1,0 2,-1 3,-1 0,-1 1,-3 1,-6l0 -37 6 0 0 37c0,4 -1,7 -2,9 -1,2 -4,3 -7,3 -2,0 -3,0 -5,-1z"/>
   <polygon id="20" class="fil0" points="941,185 941,137 947,137 947,161 971,137 979,137 959,156 980,185 972,185 955,161 947,168 947,185 "/>
   <polygon id="21" class="fil0" points="985,185 985,137 990,137 990,164 1004,150 1012,150 999,163 1013,185 1006,185 994,167 990,171 990,185 "/>
   <polygon id="22" class="fil0" points="1037,185 1037,137 1043,137 1043,179 1067,179 1067,185 "/>
   <polygon id="23" class="fil0" points="1073,185 1073,137 1079,137 1079,185 "/>
   <path id="24" class="fil0" d="M1107 185l0 -48 10 0 11 34c1,3 2,5 2,7 1,-2 2,-4 3,-8l11 -33 9 0 0 48 -6 0 0 -40 -14 40 -6 0 -14 -41 0 41 -6 0z"/>
   <path id="25" class="fil0" d="M1162 185l0 -35 6 0 0 5c1,-2 2,-3 4,-4 2,-1 4,-2 6,-2 3,0 5,1 6,2 2,1 3,3 4,5 2,-4 6,-7 10,-7 4,0 7,1 8,3 2,2 3,5 3,9l0 24 -6 0 0 -22c0,-2 0,-4 0,-5 -1,-1 -1,-2 -2,-2 -1,-1 -3,-1 -4,-1 -2,0 -4,0 -6,2 -2,2 -2,4 -2,8l0 20 -6 0 0 -23c0,-2 -1,-4 -2,-5 -1,-2 -2,-2 -4,-2 -2,0 -3,0 -5,1 -1,1 -2,2 -3,4 -1,1 -1,4 -1,7l0 18 -6 0z"/>
   <polygon id="26" class="fil0" points="1237,185 1237,137 1243,137 1268,175 1268,137 1275,137 1275,185 1268,185 1243,147 1243,185 "/>
   <path id="27" class="fil0" d="M1284 185l0 -35 6 0 0 5c2,-4 6,-6 11,-6 2,0 4,1 5,2 2,0 3,1 4,3 1,1 2,2 2,4 0,1 0,3 0,6l0 21 -5 0 0 -21c0,-3 -1,-4 -1,-6 -1,-1 -1,-2 -2,-2 -2,-1 -3,-1 -5,-1 -2,0 -4,0 -6,2 -2,2 -3,5 -3,9l0 19 -6 0z"/>
   <path id="28" class="fil0" d="M9 236c0,-8 2,-14 7,-19 4,-4 9,-6 16,-6 5,0 9,1 12,3 4,2 6,5 8,9 2,3 3,8 3,13 0,4 -1,9 -3,13 -2,3 -5,6 -8,8 -4,2 -8,3 -12,3 -4,0 -8,-1 -12,-3 -3,-2 -6,-5 -8,-9 -2,-4 -3,-8 -3,-12zm7 0c0,6 1,10 4,14 4,3 7,5 12,5 5,0 9,-2 12,-5 3,-4 4,-8 4,-14 0,-4 0,-8 -2,-11 -1,-3 -3,-5 -5,-6 -3,-2 -6,-3 -9,-3 -4,0 -8,2 -11,5 -4,3 -5,8 -5,15z"/>
   <path id="29" class="fil0" d="M60 242c0,-6 2,-11 5,-14 3,-3 7,-4 11,-4 5,0 9,2 12,5 3,3 5,7 5,13 0,4 -1,7 -2,10 -2,3 -4,5 -6,6 -3,1 -6,2 -9,2 -5,0 -8,-1 -11,-5 -3,-3 -5,-7 -5,-13zm6 0c0,4 1,8 3,10 2,2 4,3 7,3 3,0 6,-1 8,-3 2,-2 3,-6 3,-10 0,-4 -1,-8 -3,-10 -2,-2 -5,-3 -8,-3 -3,0 -5,1 -7,3 -2,2 -3,6 -3,10z"/>
   <path id="30" class="fil0" d="M119 259l0 -47 18 0c3,0 5,0 7,0 2,0 4,1 6,2 1,1 3,3 4,5 1,2 1,4 1,6 0,4 -1,8 -4,11 -2,2 -7,4 -14,4l-12 0 0 19 -6 0zm6 -25l12 0c4,0 7,-1 9,-2 2,-2 3,-4 3,-6 0,-2 -1,-4 -2,-6 -1,-1 -2,-2 -4,-2 -1,-1 -3,-1 -6,-1l-12 0 0 17z"/>
   <path id="31" class="fil0" d="M162 273l0 -48 6 0 0 4c1,-1 2,-3 4,-4 2,-1 3,-1 6,-1 3,0 5,1 8,2 2,2 3,4 5,7 1,2 1,5 1,9 0,3 0,6 -2,9 -1,3 -3,5 -5,7 -3,1 -5,2 -8,2 -2,0 -3,0 -5,-1 -2,-1 -3,-2 -4,-3l0 17 -6 0zm6 -31c0,5 1,8 2,10 2,2 4,3 7,3 2,0 5,-1 7,-3 1,-2 2,-6 2,-10 0,-5 -1,-8 -2,-10 -2,-2 -4,-3 -7,-3 -2,0 -5,1 -6,3 -2,2 -3,6 -3,10z"/>
   <path id="32" class="fil0" d="M255 254c3,2 5,4 8,5l-2 4c-3,-1 -7,-3 -10,-6 -4,2 -8,3 -12,3 -4,0 -8,-1 -12,-3 -3,-2 -6,-5 -8,-9 -2,-4 -3,-8 -3,-13 0,-4 1,-9 3,-12 2,-4 5,-7 8,-9 4,-2 8,-3 12,-3 5,0 9,1 12,3 4,2 6,5 8,9 2,3 3,8 3,12 0,4 -1,8 -2,11 -1,3 -3,6 -5,8zm-14 -8c4,1 7,3 9,5 4,-4 5,-9 5,-16 0,-3 0,-7 -2,-10 -1,-3 -3,-5 -5,-6 -3,-2 -6,-3 -9,-3 -4,0 -8,2 -11,5 -4,3 -5,8 -5,14 0,7 1,11 5,15 3,3 6,5 11,5 2,0 5,-1 7,-2 -2,-1 -4,-2 -7,-2l2 -5z"/>
   <path id="33" class="fil0" d="M292 273l0 -17c-1,1 -2,2 -4,3 -2,1 -3,1 -5,1 -4,0 -8,-2 -11,-5 -3,-3 -4,-8 -4,-13 0,-4 0,-7 2,-10 1,-2 2,-4 5,-6 2,-1 5,-2 7,-2 5,0 8,2 10,5l0 -4 6 0 0 48 -6 0zm-18 -31c0,4 1,8 3,10 1,2 4,3 6,3 3,0 5,-1 7,-3 1,-2 2,-5 2,-10 0,-4 -1,-8 -2,-10 -2,-2 -5,-3 -7,-3 -3,0 -5,1 -7,3 -1,2 -2,5 -2,10z"/>
   <path id="34" class="fil0" d="M326 259l0 -47 21 0c5,0 8,0 10,1 2,1 4,2 5,4 2,3 2,5 2,8 0,3 -1,6 -3,8 -2,2 -6,4 -10,5 2,0 3,1 4,2 2,2 3,4 5,6l8 13 -8 0 -6 -10c-2,-2 -3,-5 -5,-6 -1,-2 -2,-3 -3,-3 -1,-1 -2,-1 -3,-2 0,0 -2,0 -3,0l-7 0 0 21 -7 0zm7 -26l13 0c3,0 5,-1 7,-1 1,-1 3,-2 4,-3 0,-1 1,-3 1,-4 0,-3 -1,-5 -3,-6 -1,-1 -4,-2 -7,-2l-15 0 0 16z"/>
   <path id="35" class="fil0" d="M373 259l0 -34 6 0 0 5c1,-2 2,-4 3,-5 2,-1 3,-1 4,-1 2,0 4,1 6,2l-2 5c-1,-1 -3,-1 -4,-1 -1,0 -3,0 -4,1 -1,1 -1,2 -2,3 0,2 -1,5 -1,7l0 18 -6 0z"/>
   <path id="36" class="fil0" d="M413 244l6 -1c0,3 1,5 2,6 1,2 2,3 5,4 2,1 4,2 7,2 2,0 4,-1 6,-2 2,0 3,-1 4,-3 1,-1 2,-2 2,-4 0,-1 -1,-2 -2,-4 0,-1 -2,-2 -4,-2 -1,-1 -4,-2 -8,-3 -5,-1 -8,-2 -10,-3 -2,-1 -4,-2 -5,-4 -1,-2 -1,-4 -1,-6 0,-2 0,-5 2,-7 1,-2 3,-3 6,-5 2,-1 5,-1 8,-1 4,0 7,0 10,1 2,2 5,3 6,6 1,2 2,4 2,7l-6 1c0,-3 -1,-6 -3,-7 -2,-2 -5,-3 -8,-3 -4,0 -7,1 -9,2 -1,2 -2,4 -2,6 0,1 0,3 2,4 1,1 4,2 9,3 5,1 9,2 11,3 2,2 4,3 6,5 1,2 2,4 2,7 0,2 -1,5 -2,7 -2,2 -4,4 -7,5 -2,1 -5,2 -9,2 -4,0 -8,-1 -11,-2 -3,-1 -5,-3 -7,-5 -1,-3 -2,-6 -2,-9z"/>
   <path id="37" class="fil0" d="M456 249l6 -1c0,2 1,4 3,5 1,2 3,2 6,2 3,0 5,0 6,-1 1,-1 2,-3 2,-4 0,-2 -1,-3 -2,-3 -1,-1 -3,-2 -6,-2 -4,-1 -7,-2 -9,-3 -1,-1 -3,-2 -3,-3 -1,-2 -2,-3 -2,-5 0,-2 1,-3 1,-4 1,-2 2,-3 3,-4 1,0 2,-1 4,-1 2,-1 3,-1 5,-1 3,0 5,0 7,1 2,1 4,2 5,3 1,2 1,3 2,6l-6 1c0,-2 -1,-4 -2,-5 -2,-1 -3,-1 -6,-1 -2,0 -4,0 -5,1 -1,1 -2,2 -2,3 0,1 0,2 1,2 0,1 1,1 2,2 0,0 2,1 5,1 4,1 7,2 9,3 1,1 3,2 4,3 1,1 1,3 1,5 0,2 -1,4 -2,6 -1,1 -2,3 -5,4 -2,1 -4,1 -7,1 -4,0 -8,-1 -10,-3 -3,-2 -4,-4 -5,-8z"/>
   <polygon id="38" class="fil0" points="522,259 522,217 506,217 506,212 544,212 544,217 528,217 528,259 "/>
   <path id="39" class="fil0" d="M563 254l0 5c-1,1 -3,1 -4,1 -2,0 -4,-1 -5,-1 -1,-1 -2,-2 -2,-3 -1,-1 -1,-3 -1,-7l0 -20 -4 0 0 -4 4 0 0 -9 6 -3 0 12 6 0 0 4 -6 0 0 21c0,1 0,2 0,3 0,0 1,1 1,1 1,0 1,0 2,0 1,0 2,0 3,0z"/>
   <path id="40" class="fil0" d="M619 212l6 0 0 27c0,5 0,9 -1,12 -1,2 -3,5 -6,6 -3,2 -7,3 -11,3 -5,0 -8,-1 -11,-2 -3,-2 -5,-4 -6,-7 -2,-3 -2,-7 -2,-12l0 -27 6 0 0 27c0,4 1,7 1,9 1,2 2,4 4,5 2,1 4,1 7,1 5,0 8,-1 10,-3 2,-2 3,-6 3,-12l0 -27z"/>
   <path id="41" class="fil0" d="M658 259l0 -5c-3,4 -7,6 -11,6 -2,0 -4,0 -6,-1 -2,-1 -3,-2 -4,-3 -1,-1 -1,-3 -2,-4 0,-2 0,-3 0,-6l0 -21 6 0 0 19c0,3 0,5 0,6 1,2 1,3 3,4 1,1 2,1 4,1 2,0 3,0 5,-1 1,-1 3,-2 3,-4 1,-2 1,-4 1,-7l0 -18 6 0 0 34 -5 0z"/>
   <path id="42" class="fil0" d="M705 259l-18 -47 6 0 13 34c1,3 2,6 2,8 1,-3 2,-5 3,-8l13 -34 6 0 -18 47 -7 0z"/>
   <path id="43" class="fil0" d="M745 259l-13 -34 6 0 7 20c1,3 2,5 2,7 1,-1 2,-4 3,-6l7 -21 6 0 -13 34 -5 0z"/>
   <path id="44" class="fil0" d="M796 259l-13 -47 7 0 7 31c1,3 2,6 2,10 1,-5 2,-8 2,-9l9 -32 8 0 7 24c1,6 3,11 4,17 0,-3 1,-7 2,-11l7 -30 7 0 -13 47 -6 0 -10 -36c-1,-3 -2,-5 -2,-6 -1,3 -1,4 -1,6l-10 36 -7 0z"/>
   <path id="45" class="fil0" d="M856 259l-10 -34 6 0 5 20 2 7c0,0 1,-3 2,-7l6 -20 6 0 5 20 1 6 2 -6 6 -20 6 0 -11 34 -6 0 -5 -20 -2 -6 -7 26 -6 0z"/>
   <path id="46" class="fil0" d="M912 259l19 -24 -16 -23 7 0 9 12c2,2 3,4 4,6 1,-2 2,-4 3,-6l10 -12 7 0 -17 22 18 25 -8 0 -12 -17c0,-1 -1,-2 -2,-3 -1,2 -1,3 -2,4l-12 16 -8 0z"/>
   <path id="47" class="fil0" d="M957 259l13 -18 -12 -16 7 0 6 8c1,1 1,3 2,4 1,-2 2,-3 3,-4l5 -8 8 0 -12 16 12 18 -7 0 -7 -10 -2 -3 -9 13 -7 0z"/>
   <path id="48" class="fil0" d="M1026 259l0 -20 -19 -27 8 0 9 14c2,3 4,5 5,8 2,-2 4,-5 6,-8l9 -14 7 0 -19 27 0 20 -6 0z"/>
   <path id="49" class="fil0" d="M1056 273l-1 -6c1,1 3,1 3,1 2,0 3,-1 4,-1 0,0 1,-1 2,-2 0,0 1,-2 1,-4 0,0 1,-1 1,-2l-13 -34 6 0 7 20c1,2 2,5 3,8 0,-3 1,-6 2,-8l8 -20 5 0 -13 35c-1,4 -2,6 -3,8 -1,2 -2,3 -4,4 -1,1 -3,1 -4,1 -2,0 -3,0 -4,0z"/>
   <path id="50" class="fil0" d="M1105 259l0 -6 24 -30c2,-2 4,-4 5,-6l-26 0 0 -5 34 0 0 5 -27 33 -3 4 31 0 0 5 -38 0z"/>
   <path id="51" class="fil0" d="M1146 259l0 -4 21 -26c-2,0 -4,0 -6,0l-14 0 0 -4 28 0 0 4 -19 22 -3 4c2,-1 5,-1 7,-1l16 0 0 5 -30 0z"/>
   <path id="52" class="fil0" d="M31 408l-6 0 0 -37c-1,1 -3,3 -6,4 -2,1 -4,2 -6,3l0 -6c4,-1 6,-3 9,-5 2,-2 4,-5 5,-7l4 0 0 48z"/>
   <path id="53" class="fil0" d="M95 403l0 5 -31 0c0,-1 0,-2 0,-4 1,-2 2,-4 4,-6 2,-2 5,-5 8,-7 5,-5 9,-8 10,-10 2,-3 3,-5 3,-8 0,-2 -1,-4 -2,-5 -2,-2 -4,-3 -7,-3 -3,0 -5,1 -7,3 -1,1 -2,4 -2,7l-6 -1c0,-4 2,-8 4,-10 3,-2 7,-4 11,-4 5,0 8,2 11,4 3,3 4,6 4,10 0,2 0,3 -1,5 -1,2 -2,4 -4,6 -2,2 -5,5 -9,9 -3,2 -6,4 -7,6 -1,1 -2,2 -2,3l23 0z"/>
   <path id="54" class="fil0" d="M120 396l6 -1c1,3 2,6 3,7 2,1 4,2 6,2 3,0 5,-1 7,-3 2,-2 3,-4 3,-7 0,-2 -1,-5 -3,-6 -1,-2 -4,-3 -6,-3 -1,0 -3,0 -4,1l0 -6c1,1 1,1 1,1 3,0 5,-1 7,-2 2,-2 3,-4 3,-6 0,-3 -1,-4 -2,-6 -2,-1 -4,-2 -6,-2 -2,0 -4,1 -6,2 -1,2 -2,4 -2,7l-6 -1c0,-4 2,-7 5,-9 2,-3 5,-4 9,-4 3,0 5,1 7,2 2,1 4,3 5,5 1,2 2,4 2,6 0,2 -1,4 -2,5 -1,2 -2,3 -5,4 3,1 5,2 7,4 2,2 2,5 2,8 0,4 -1,8 -4,11 -3,3 -7,4 -12,4 -4,0 -7,-1 -10,-4 -3,-2 -5,-5 -5,-9z"/>
   <path id="55" class="fil0" d="M194 408l0 -11 -20 0 0 -6 21 -30 5 0 0 30 7 0 0 6 -7 0 0 11 -6 0zm0 -17l0 -21 -15 21 15 0z"/>
   <path id="56" class="fil0" d="M231 396l6 -1c1,3 2,6 3,7 2,2 4,2 7,2 2,0 5,-1 7,-3 2,-2 3,-5 3,-8 0,-4 -1,-6 -3,-8 -2,-2 -4,-3 -8,-3 -1,0 -3,0 -5,1 -1,1 -2,2 -3,3l-6 0 5 -25 24 0 0 6 -19 0 -3 13c3,-2 6,-3 9,-3 4,0 8,1 10,4 3,3 5,7 5,11 0,4 -1,8 -4,11 -3,4 -7,6 -12,6 -5,0 -8,-1 -11,-4 -3,-2 -4,-5 -5,-9z"/>
   <path id="57" class="fil0" d="M317 372l-6 1c0,-3 -1,-4 -2,-5 -1,-2 -3,-3 -6,-3 -2,0 -3,1 -5,2 -2,1 -3,3 -4,6 -1,2 -2,6 -2,11 2,-3 3,-4 5,-5 3,-1 5,-2 7,-2 4,0 7,2 10,5 3,2 4,6 4,11 0,3 -1,6 -2,8 -1,3 -3,5 -5,6 -2,1 -5,2 -8,2 -5,0 -9,-2 -12,-5 -3,-4 -4,-10 -4,-18 0,-9 1,-16 5,-20 3,-4 7,-6 12,-6 3,0 7,1 9,4 2,2 4,5 4,8zm-24 21c0,2 1,4 2,6 0,1 2,3 3,4 2,1 3,1 5,1 2,0 5,-1 6,-3 2,-2 3,-4 3,-8 0,-3 -1,-6 -3,-8 -1,-2 -4,-3 -6,-3 -3,0 -5,1 -7,3 -2,2 -3,5 -3,8z"/>
   <path id="58" class="fil0" d="M343 367l0 -6 31 0 0 5c-3,3 -7,7 -9,13 -3,5 -6,10 -7,16 -2,4 -2,9 -3,13l-6 0c0,-3 1,-8 3,-13 1,-6 3,-11 6,-16 2,-5 5,-9 8,-12l-23 0z"/>
   <path id="59" class="fil0" d="M407 382c-2,0 -4,-2 -5,-3 -2,-2 -2,-4 -2,-6 0,-4 1,-7 4,-9 2,-2 5,-4 9,-4 5,0 8,2 11,4 2,2 3,5 3,9 0,2 0,4 -1,6 -2,1 -3,3 -6,3 3,1 5,3 7,5 1,2 2,5 2,8 0,4 -1,7 -4,10 -3,3 -7,4 -11,4 -5,0 -9,-1 -12,-4 -3,-3 -4,-6 -4,-11 0,-3 1,-5 2,-7 2,-2 4,-4 7,-5zm-1 -10c0,3 1,5 2,6 1,1 3,2 6,2 2,0 4,-1 5,-2 2,-1 2,-3 2,-5 0,-2 0,-4 -2,-6 -1,-1 -3,-2 -5,-2 -3,0 -5,1 -6,2 -1,2 -2,3 -2,5zm-2 23c0,1 0,3 1,4 1,2 2,3 4,4 1,1 3,1 5,1 2,0 5,-1 7,-2 1,-2 2,-4 2,-7 0,-3 -1,-5 -3,-7 -1,-2 -4,-3 -7,-3 -2,0 -5,1 -6,3 -2,2 -3,4 -3,7z"/>
   <path id="60" class="fil0" d="M454 397l6 0c0,2 1,4 3,6 1,1 3,1 5,1 2,0 3,0 5,-1 1,-1 2,-2 3,-3 1,-2 2,-4 2,-6 1,-2 1,-5 1,-7 0,0 0,-1 0,-1 -1,2 -3,3 -5,4 -2,2 -4,2 -6,2 -4,0 -8,-1 -10,-4 -3,-3 -4,-7 -4,-12 0,-4 1,-8 4,-11 3,-3 6,-5 10,-5 4,0 6,1 9,3 3,2 4,4 6,7 1,3 2,8 2,13 0,7 -1,11 -2,15 -1,4 -3,6 -6,8 -3,2 -6,3 -9,3 -4,0 -7,-1 -9,-3 -3,-2 -4,-5 -5,-9zm24 -21c0,-3 -1,-6 -2,-8 -2,-2 -4,-3 -7,-3 -2,0 -5,1 -7,3 -2,3 -2,5 -2,9 0,3 0,5 2,7 2,2 4,3 7,3 3,0 5,-1 7,-3 1,-2 2,-4 2,-8z"/>
   <path id="61" class="fil0" d="M509 385c0,-6 1,-10 2,-14 1,-3 3,-6 5,-8 2,-2 5,-3 9,-3 2,0 4,1 6,2 2,1 4,2 5,4 1,2 2,5 3,7 1,3 1,7 1,12 0,5 0,10 -2,13 -1,4 -2,6 -5,8 -2,2 -5,3 -8,3 -5,0 -9,-2 -11,-5 -3,-4 -5,-10 -5,-19zm6 0c0,8 1,13 3,15 2,3 4,4 7,4 2,0 5,-1 6,-4 2,-2 3,-7 3,-15 0,-8 -1,-13 -3,-16 -1,-2 -4,-4 -6,-4 -3,0 -5,1 -7,4 -2,3 -3,8 -3,16z"/>
   <path id="62" class="fil0" d="M721 380l0 -6 7 0 0 6 -7 0zm0 28l0 -6 7 0 0 6c0,3 0,5 -1,6 -1,2 -2,3 -4,4l-2 -3c1,0 2,-1 3,-2 0,-1 1,-3 1,-5l-4 0z"/>
   <path id="63" class="fil0" d="M764 391l8 15 -5 0 -10 -15 10 -15 5 0 -8 15zm12 0l9 15 -5 0 -10 -15 10 -15 5 0 -9 15z"/>
   <path id="64" class="fil0" d="M834 391l-9 -15 5 0 11 15 -11 15 -5 0 9 -15zm-13 0l-8 -15 5 0 10 15 -10 15 -5 0 8 -15z"/>
   <path id="65" class="fil0" d="M869 361l6 0 24 37 0 -37 6 0 0 47 -7 0 -23 -37 0 37 -6 0 0 -47zm40 22c0,-4 1,-7 3,-10 2,-2 5,-3 9,-3 3,0 6,1 8,4 2,2 3,5 3,9 0,4 -1,7 -3,10 -2,2 -5,3 -8,3 -4,0 -6,-1 -9,-3 -2,-2 -3,-6 -3,-10zm6 0c0,3 0,5 1,6 2,2 3,3 5,3 1,0 3,-1 4,-2 1,-2 2,-4 2,-7 0,-3 -1,-5 -2,-7 -1,-1 -3,-2 -4,-2 -2,0 -3,1 -5,2 -1,2 -1,4 -1,7zm-5 17l22 0 0 4 -22 0 0 -4z"/>
   <polygon id="66" class="fil0" points="562,409 574,360 580,360 569,409 "/>
   <polygon id="67" class="fil0" points="584,396 584,386 602,386 602,396 "/>
   <polygon id="68" class="fil0" points="636,401 636,389 624,389 624,380 636,380 636,368 645,368 645,380 657,380 657,389 645,389 645,401 "/>
   <path id="69" class="fil0" d="M683 399l9 0 0 7c0,2 0,4 0,6 -1,2 -2,3 -3,4 -1,1 -3,2 -5,3l-2 -4c2,0 3,-1 4,-2 1,-1 1,-3 1,-5l-4 0 0 -9z"/>
   <path id="70" class="fil0" d="M970 401l0 -13c-5,-2 -8,-3 -10,-6 -2,-2 -3,-5 -3,-9 0,-3 1,-6 4,-9 2,-2 5,-4 9,-4l0 -3 4 0 0 3c4,0 7,2 9,3 2,2 3,5 4,8l-9 1c0,-2 -2,-4 -4,-5l0 13c6,1 9,3 11,5 2,3 3,5 3,9 0,4 -1,7 -4,10 -2,3 -5,4 -10,5l0 6 -4 0 0 -6c-4,0 -7,-2 -9,-4 -3,-3 -4,-6 -5,-10l8 -1c1,2 1,3 2,4 1,2 2,3 4,3zm0 -34c-2,0 -3,1 -3,2 -1,1 -2,2 -2,4 0,1 1,2 1,3 1,1 2,2 4,2l0 -11zm4 35c2,-1 3,-1 4,-3 1,-1 2,-2 2,-4 0,-1 -1,-3 -1,-4 -1,-1 -3,-1 -5,-2l0 13z"/>
   <path id="71" class="fil0" d="M1012 372c0,-4 1,-7 3,-9 2,-2 4,-3 8,-3 3,0 6,1 7,3 2,2 3,5 3,9 0,5 -1,8 -3,10 -1,2 -4,3 -7,3 -4,0 -6,-1 -8,-3 -2,-2 -3,-5 -3,-10zm7 0c0,3 1,5 1,6 1,1 2,2 3,2 1,0 1,-1 2,-2 1,-1 1,-3 1,-6 0,-3 0,-5 -1,-6 -1,-1 -1,-1 -2,-1 -1,0 -2,0 -3,1 0,1 -1,3 -1,6zm11 38l-7 0 25 -50 7 0 -25 50zm14 -12c0,-5 1,-8 3,-10 2,-2 5,-3 8,-3 3,0 6,1 8,3 2,2 2,5 2,10 0,4 0,7 -2,9 -2,2 -5,3 -8,3 -3,0 -6,-1 -8,-3 -2,-2 -3,-5 -3,-9zm8 0c0,3 0,5 1,6 0,1 1,1 2,1 1,0 2,0 2,-1 1,-1 1,-3 1,-6 0,-4 0,-6 -1,-7 0,0 -1,-1 -2,-1 -1,0 -2,1 -2,1 -1,1 -1,3 -1,7z"/>
   <polygon id="72" class="fil0" points="1091,386 1103,360 1110,360 1122,386 1113,386 1107,370 1100,386 "/>
   <path id="73" class="fil0" d="M1173 403l-5 7c-3,-2 -6,-4 -8,-6 -2,2 -4,3 -6,4 -3,1 -5,1 -8,1 -6,0 -11,-2 -14,-5 -2,-2 -3,-5 -3,-9 0,-3 1,-6 3,-8 2,-2 4,-5 8,-6 -2,-2 -3,-4 -4,-6 -1,-2 -1,-3 -1,-5 0,-3 1,-5 3,-7 3,-2 6,-3 10,-3 4,0 8,1 10,3 2,2 3,5 3,8 0,1 0,3 -1,5 -1,2 -4,4 -7,6l6 9c1,-2 2,-3 2,-6l9 2c-1,3 -2,5 -3,7 0,1 -1,2 -1,3 1,1 2,2 3,3 2,1 3,2 4,3zm-25 -27l3 -1c1,-2 2,-3 2,-5 0,-1 0,-2 -1,-3 -1,0 -2,-1 -4,-1 -1,0 -2,1 -3,1 -1,1 -1,2 -1,3 0,1 1,2 2,4l2 2zm-3 10c-2,2 -4,3 -5,4 -1,2 -2,3 -2,5 0,2 1,4 2,5 2,1 3,2 5,2 2,0 3,-1 5,-1 1,-1 2,-2 4,-3l-9 -12z"/>
   <path id="74" class="fil0" d="M1201 383l-5 -4c1,-2 3,-4 5,-5 0,-1 1,-1 1,-2 -1,0 -2,0 -5,-1 -2,0 -3,0 -3,-1l2 -5c2,1 5,2 7,3 0,-3 -1,-6 -1,-8l6 0c0,1 0,4 -1,8 1,0 2,0 3,-1 2,-1 4,-1 5,-2l2 6c-2,0 -5,1 -8,1l4 5c0,1 1,1 1,2l-5 3 -4 -7c-1,2 -3,5 -4,8z"/>
   <path id="75" class="fil0" d="M1257 422l-6 0c-4,-5 -6,-10 -8,-15 -2,-6 -2,-11 -2,-16 0,-6 1,-12 3,-18 2,-5 4,-9 7,-13l6 0c-3,6 -5,12 -6,17 -1,4 -2,9 -2,14 0,4 1,7 1,11 1,4 2,7 3,11 1,2 2,5 4,9z"/>
   <path id="76" class="fil0" d="M1280 422c2,-4 3,-7 4,-9 1,-2 1,-4 2,-7 1,-2 1,-5 1,-7 1,-3 1,-5 1,-8 0,-5 -1,-10 -2,-14 -1,-5 -3,-11 -6,-17l6 0c3,4 6,9 8,15 2,5 3,10 3,16 0,4 -1,9 -3,14 -1,6 -4,12 -8,17l-6 0z"/>
   <path class="fil1" d="M5 44l0 -42 8 0 10 30c1,3 2,5 2,6 1,-2 1,-4 2,-7l10 -29 8 0 0 42 -5 0 0 -35 -13 35 -5 0 -12 -36 0 36 -5 0z"/>
   <path id="1" class="fil1" d="M51 29c0,-6 2,-10 5,-13 2,-2 6,-3 9,-3 4,0 8,1 11,4 2,3 3,7 3,11 0,4 0,7 -1,10 -1,2 -3,4 -5,5 -3,1 -5,2 -8,2 -4,0 -7,-2 -10,-4 -3,-3 -4,-7 -4,-12zm5 0c0,4 1,7 3,9 2,2 4,2 6,2 3,0 5,0 7,-2 1,-2 2,-5 2,-9 0,-4 -1,-7 -2,-9 -2,-2 -4,-3 -7,-3 -2,0 -4,1 -6,3 -2,2 -3,5 -3,9z"/>
   <path id="2" class="fil1" d="M86 44l0 -30 4 0 0 4c2,-3 6,-5 10,-5 2,0 3,0 5,1 1,1 2,2 3,3 1,1 1,2 2,3 0,1 0,3 0,5l0 19 -5 0 0 -18c0,-2 0,-4 -1,-5 0,-1 -1,-2 -2,-3 -1,0 -2,0 -3,0 -3,0 -4,0 -6,2 -2,1 -2,4 -2,8l0 16 -5 0z"/>
   <path id="3" class="fil1" d="M129 39l1 5c-2,0 -3,0 -4,0 -2,0 -3,0 -4,0 -1,-1 -2,-2 -3,-3 0,-1 0,-3 0,-6l0 -17 -4 0 0 -4 4 0 0 -8 5 -3 0 11 5 0 0 4 -5 0 0 17c0,2 0,3 0,3 0,1 1,1 1,1 0,1 1,1 2,1 0,0 1,0 2,-1z"/>
   <path id="4" class="fil1" d="M132 35l5 -1c0,2 1,4 3,5 1,1 3,1 5,1 2,0 4,0 5,-1 1,-1 2,-2 2,-3 0,-1 -1,-2 -2,-3 0,-1 -2,-1 -5,-2 -4,-1 -6,-2 -8,-2 -1,-1 -2,-2 -3,-3 -1,-1 -1,-3 -1,-4 0,-2 0,-3 1,-4 1,-1 1,-2 2,-3 1,0 2,-1 4,-1 1,-1 3,-1 4,-1 2,0 5,0 6,1 2,1 3,2 4,3 1,1 2,3 2,5l-5 0c0,-1 -1,-2 -2,-3 -1,-1 -3,-2 -5,-2 -2,0 -4,1 -5,1 -1,1 -1,2 -1,3 0,1 0,1 1,2 0,1 1,1 2,1 0,1 2,1 4,2 4,1 6,1 8,2 1,1 2,2 3,3 1,1 1,2 1,4 0,2 0,3 -1,5 -1,1 -3,3 -5,3 -1,1 -4,2 -6,2 -4,0 -7,-1 -9,-3 -2,-1 -3,-4 -4,-7z"/>
   <path id="5" class="fil1" d="M184 34l5 1c-1,3 -2,5 -4,7 -3,2 -6,3 -9,3 -4,0 -8,-2 -11,-4 -2,-3 -3,-7 -3,-12 0,-5 1,-9 4,-12 2,-2 6,-4 10,-4 4,0 7,1 10,4 2,3 3,7 3,12 0,0 0,1 0,1l-22 0c0,4 1,6 3,8 1,2 3,2 6,2 2,0 3,0 5,-1 1,-1 2,-3 3,-5zm-17 -8l17 0c0,-3 -1,-4 -2,-6 -2,-2 -4,-3 -6,-3 -3,0 -5,1 -6,3 -2,1 -3,3 -3,6z"/>
   <path id="6" class="fil1" d="M196 44l0 -30 4 0 0 4c1,-2 3,-3 4,-4 1,-1 2,-1 3,-1 2,0 3,1 5,2l-2 4c-1,0 -2,-1 -3,-1 -2,0 -3,1 -3,1 -1,1 -2,2 -2,3 -1,2 -1,4 -1,6l0 16 -5 0z"/>
   <path id="7" class="fil1" d="M215 44l0 -30 5 0 0 4c1,-2 2,-3 3,-4 1,-1 2,-1 3,-1 2,0 4,1 6,2l-2 4c-2,0 -3,-1 -4,-1 -1,0 -2,1 -3,1 -1,1 -2,2 -2,3 -1,2 -1,4 -1,6l0 16 -5 0z"/>
   <path id="8" class="fil1" d="M254 40c-2,2 -3,3 -5,4 -2,0 -4,1 -6,1 -3,0 -6,-1 -8,-3 -1,-1 -2,-3 -2,-6 0,-1 0,-3 1,-4 0,-1 1,-2 2,-3 2,-1 3,-1 4,-2 1,0 3,0 5,0 4,-1 7,-1 9,-2 0,-1 0,-1 0,-1 0,-3 -1,-4 -2,-5 -1,-1 -3,-2 -5,-2 -3,0 -5,1 -6,2 -1,0 -2,2 -2,4l-5 -1c0,-2 1,-3 2,-5 1,-1 3,-2 4,-3 2,-1 5,-1 7,-1 3,0 5,0 7,1 1,1 2,1 3,2 1,1 2,2 2,4 0,1 0,2 0,5l0 6c0,5 0,8 0,9 1,2 1,3 2,4l-6 0c0,-1 -1,-2 -1,-4zm0 -11c-2,1 -5,1 -8,2 -3,0 -4,0 -5,1 -1,0 -2,1 -2,1 0,1 -1,2 -1,3 0,1 1,2 2,3 1,1 2,2 4,2 2,0 4,-1 6,-2 1,-1 2,-2 3,-3 1,-1 1,-3 1,-5l0 -2z"/>
   <path id="9" class="fil1" d="M278 39l1 5c-2,0 -3,0 -4,0 -2,0 -3,0 -4,0 -1,-1 -2,-2 -3,-3 0,-1 0,-3 0,-6l0 -17 -4 0 0 -4 4 0 0 -8 5 -3 0 11 5 0 0 4 -5 0 0 17c0,2 0,3 0,3 0,1 1,1 1,1 1,1 1,1 2,1 0,0 1,0 2,-1z"/>
   <path id="10" class="fil1" d="M300 2l16 0c4,0 6,0 8,1 2,0 3,1 4,1 2,1 3,2 3,4 1,1 2,3 2,5 0,2 -1,3 -2,5 -1,2 -2,3 -4,4 2,1 4,2 6,4 1,1 2,3 2,6 0,2 -1,4 -2,5 0,2 -2,4 -3,5 -2,1 -4,1 -6,2 -1,0 -5,0 -10,0l-14 0 0 -42zm8 7l0 10 6 0c3,0 5,0 6,0 1,0 2,-1 3,-2 1,-1 2,-2 2,-3 0,-1 -1,-2 -2,-3 0,-1 -1,-1 -3,-2 -1,0 -3,0 -7,0l-5 0zm0 17l0 11 8 0c3,0 5,0 6,0 1,-1 2,-1 3,-2 1,-1 1,-2 1,-4 0,-1 0,-2 -1,-3 0,-1 -1,-1 -2,-2 -2,0 -4,0 -8,0l-7 0z"/>
   <path id="11" class="fil1" d="M340 23c0,-4 1,-7 2,-10 1,-2 2,-4 4,-6 2,-2 3,-3 5,-4 3,-1 6,-2 9,-2 7,0 11,2 15,6 4,4 6,9 6,16 0,7 -2,12 -6,16 -3,4 -8,6 -15,6 -6,0 -11,-2 -14,-6 -4,-4 -6,-9 -6,-16zm9 0c0,5 1,8 3,11 2,2 5,4 8,4 4,0 7,-2 9,-4 2,-3 3,-6 3,-11 0,-5 -1,-8 -3,-11 -2,-2 -5,-3 -9,-3 -3,0 -6,1 -8,3 -2,3 -3,6 -3,11z"/>
   <polygon id="12" class="fil1" points="387,44 387,3 396,3 396,37 417,37 417,44 "/>
   <path id="13" class="fil1" d="M423 2l15 0c4,0 6,1 8,1 3,1 5,2 6,4 2,2 4,4 4,7 1,2 2,6 2,10 0,3 -1,6 -1,8 -2,3 -3,6 -5,8 -1,1 -3,2 -6,3 -2,1 -4,1 -7,1l-16 0 0 -42zm8 7l0 28 7 0c2,0 4,0 5,0 1,-1 2,-1 3,-2 1,-1 2,-2 2,-4 1,-2 1,-5 1,-8 0,-3 0,-6 -1,-7 0,-2 -1,-3 -2,-4 -1,-1 -2,-2 -4,-2 -1,-1 -3,-1 -7,-1l-4 0z"/>
  </g>
 </g>
</svg>
