<?xml version="1.0" encoding="UTF-8"?>
<!DOCTYPE svg PUBLIC "-//W3C//DTD SVG 1.1//EN" "http://www.w3.org/Graphics/SVG/1.1/DTD/svg11.dtd">
<!-- Creator: CorelDRAW X8 -->
<svg xmlns="http://www.w3.org/2000/svg" xml:space="preserve" width="1311px" height="437px" version="1.1" style="shape-rendering:geometricPrecision; text-rendering:geometricPrecision; image-rendering:optimizeQuality; fill-rule:evenodd; clip-rule:evenodd"
viewBox="0 0 1311 437"
 xmlns:xlink="http://www.w3.org/1999/xlink">
 <defs>
  <style type="text/css">
   <![CDATA[
    .fil1 {fill:#FEFEFE;fill-rule:nonzero}
    .fil0 {fill:#96C73A;fill-rule:nonzero}
   ]]>
  </style>
 </defs>
 <g id="Layer_x0020_1">
  <metadata id="CorelCorpID_0Corel-Layer"/>
  <g id="_2873621279632">
   <path class="fil0" d="M3 186l18 -48 7 0 20 48 -8 0 -5 -15 -20 0 -5 15 -7 0zm14 -20l16 0 -5 -13c-2,-4 -3,-8 -4,-10 0,3 -1,6 -2,9l-5 14z"/>
   <path id="1" class="fil0" d="M74 181c-2,2 -4,3 -6,4 -2,1 -4,1 -6,1 -4,0 -7,-1 -9,-2 -2,-2 -3,-5 -3,-8 0,-1 0,-3 1,-4 1,-2 2,-3 3,-4 1,0 3,-1 4,-1 1,-1 3,-1 5,-1 5,-1 9,-2 11,-2 0,-1 0,-2 0,-2 0,-2 -1,-4 -2,-5 -1,-1 -3,-2 -6,-2 -3,0 -5,1 -7,2 -1,1 -2,2 -2,5l-6 -1c0,-3 1,-5 2,-6 2,-2 3,-3 6,-4 2,0 4,-1 7,-1 3,0 6,1 8,1 1,1 3,2 4,3 1,1 1,2 2,4 0,1 0,3 0,5l0 8c0,5 0,9 0,10 0,2 1,3 2,5l-7 0c0,-2 0,-3 -1,-5zm0 -13c-2,1 -5,2 -10,2 -2,1 -4,1 -5,2 -1,0 -2,1 -2,1 -1,1 -1,2 -1,3 0,2 1,3 2,4 1,1 3,2 5,2 2,0 4,-1 6,-2 2,-1 3,-2 4,-4 1,-1 1,-3 1,-6l0 -2z"/>
   <path id="2" class="fil0" d="M108 186l0 -48 18 0c3,0 6,0 8,1 3,1 4,3 6,5 1,2 2,4 2,6 0,2 -1,4 -2,6 -1,2 -3,3 -5,4 3,1 5,2 7,4 1,3 2,5 2,8 0,2 -1,4 -2,6 -1,2 -2,3 -3,4 -1,1 -3,2 -5,3 -2,0 -5,1 -8,1l-18 0zm6 -28l10 0c3,0 5,0 6,-1 2,0 3,-1 4,-2 1,-1 1,-3 1,-4 0,-2 0,-3 -1,-4 -1,-2 -2,-2 -3,-3 -1,0 -4,-1 -7,-1l-10 0 0 15zm0 22l12 0c2,0 4,0 4,0 2,-1 3,-1 4,-2 1,0 2,-1 2,-2 1,-1 1,-3 1,-4 0,-2 0,-4 -1,-5 -1,-1 -2,-2 -4,-3 -1,0 -4,-1 -7,-1l-11 0 0 17z"/>
   <path id="3" class="fil0" d="M157 186l-5 0 0 -48 6 0 0 17c2,-3 5,-5 9,-5 2,0 4,1 6,2 2,0 4,2 5,3 1,2 2,4 3,6 0,2 1,4 1,7 0,6 -2,10 -5,13 -3,4 -6,5 -10,5 -4,0 -7,-1 -10,-5l0 5zm0 -18c0,4 1,7 2,9 2,3 4,4 7,4 3,0 5,-1 7,-3 2,-2 3,-5 3,-10 0,-4 -1,-8 -3,-10 -2,-2 -4,-3 -6,-3 -3,0 -5,1 -7,3 -2,3 -3,6 -3,10z"/>
   <path id="4" class="fil0" d="M242 169l6 1c-1,6 -3,10 -7,12 -3,3 -7,4 -12,4 -5,0 -10,-1 -13,-3 -3,-2 -6,-5 -7,-9 -2,-4 -3,-8 -3,-13 0,-5 1,-9 3,-13 2,-3 5,-6 8,-8 4,-2 8,-3 12,-3 5,0 9,1 12,4 3,2 5,6 7,10l-7 1c-1,-3 -2,-6 -4,-7 -2,-2 -5,-3 -8,-3 -4,0 -7,1 -10,3 -2,2 -4,4 -5,7 -1,3 -1,6 -1,9 0,4 0,8 2,11 1,3 3,5 5,7 3,1 5,2 8,2 4,0 7,-1 9,-3 3,-2 4,-5 5,-9z"/>
   <path id="5" class="fil0" d="M278 173l6 1c-1,4 -2,7 -5,9 -3,2 -6,3 -10,3 -4,0 -8,-1 -11,-4 -3,-3 -4,-8 -4,-14 0,-3 0,-7 2,-9 1,-3 3,-5 5,-7 3,-1 6,-2 8,-2 4,0 7,1 10,3 2,2 4,5 4,8l-5 1c-1,-2 -2,-4 -3,-5 -2,-1 -3,-2 -5,-2 -3,0 -6,1 -7,3 -2,2 -3,6 -3,10 0,5 1,8 2,10 2,2 5,3 7,3 3,0 5,0 6,-2 2,-1 3,-3 3,-6z"/>
   <path id="6" class="fil0" d="M308 186l0 -48 16 0c4,0 7,0 9,1 3,0 5,1 7,3 2,2 4,5 6,8 1,3 1,7 1,11 0,4 0,7 -1,10 -1,3 -2,5 -3,7 -1,2 -3,3 -4,4 -2,1 -4,2 -6,3 -2,0 -5,1 -8,1l-17 0zm6 -6l11 0c3,0 5,0 7,-1 2,-1 3,-1 4,-2 2,-2 3,-4 4,-6 1,-3 1,-6 1,-10 0,-5 -1,-9 -2,-11 -2,-3 -4,-5 -6,-6 -2,0 -5,-1 -9,-1l-10 0 0 37z"/>
   <path id="7" class="fil0" d="M378 186l0 -5c-2,4 -6,5 -10,5 -3,0 -5,0 -7,-2 -3,-1 -5,-4 -6,-6 -1,-3 -2,-6 -2,-10 0,-3 1,-6 2,-9 1,-3 3,-5 5,-7 2,-1 5,-2 8,-2 2,0 4,1 5,2 2,0 3,2 4,3l0 -17 6 0 0 48 -5 0zm-19 -18c0,5 1,8 3,10 2,2 4,3 7,3 2,0 4,-1 6,-3 2,-2 3,-5 3,-9 0,-5 -1,-8 -3,-11 -2,-2 -4,-3 -7,-3 -2,0 -4,1 -6,3 -2,2 -3,6 -3,10z"/>
   <polygon id="8" class="fil0" points="412,186 412,138 446,138 446,143 418,143 418,158 445,158 445,164 418,164 418,180 447,180 447,186 "/>
   <path id="9" class="fil0" d="M479 174l6 1c-1,4 -3,6 -5,8 -3,2 -6,3 -10,3 -5,0 -9,-1 -12,-4 -3,-3 -4,-8 -4,-13 0,-6 1,-11 4,-14 3,-3 7,-5 12,-5 4,0 8,2 11,5 3,3 4,8 4,13 0,1 0,1 0,2l-25 0c0,4 1,6 3,8 2,2 4,3 7,3 2,0 4,0 5,-1 2,-1 3,-3 4,-6zm-19 -9l19 0c0,-3 -1,-5 -2,-7 -2,-2 -4,-3 -7,-3 -3,0 -5,1 -7,3 -2,2 -3,4 -3,7z"/>
   <polygon id="10" class="fil0" points="512,186 512,138 544,138 544,143 518,143 518,158 541,158 541,164 518,164 518,186 "/>
   <path id="11" class="fil0" d="M553 186l0 -31 -5 0 0 -4 5 0 0 -4c0,-2 0,-4 1,-5 0,-1 1,-3 3,-4 1,-1 3,-1 6,-1 1,0 3,0 5,1l-1 5c-1,0 -2,-1 -3,-1 -2,0 -3,1 -4,2 -1,0 -1,2 -1,4l0 3 7 0 0 4 -7 0 0 31 -6 0z"/>
   <path id="12" class="fil0" d="M612 167l0 -6 20 0 0 18c-3,2 -6,4 -10,5 -3,2 -6,2 -10,2 -4,0 -9,-1 -13,-3 -3,-2 -6,-5 -8,-8 -2,-4 -3,-8 -3,-13 0,-5 1,-9 3,-13 2,-4 5,-7 8,-9 4,-2 8,-3 13,-3 3,0 6,1 9,2 3,1 5,2 7,4 1,2 2,5 3,8l-5 2c-1,-3 -2,-5 -3,-6 -1,-1 -3,-2 -5,-3 -2,-1 -4,-2 -6,-2 -3,0 -6,1 -8,2 -2,1 -3,2 -5,3 -1,2 -2,3 -3,5 -1,3 -2,6 -2,10 0,4 1,7 3,10 1,3 3,5 6,7 3,1 6,2 9,2 3,0 5,-1 8,-2 2,-1 4,-2 6,-3l0 -9 -14 0z"/>
   <path id="13" class="fil0" d="M639 188l6 1c0,2 1,3 2,4 2,1 4,2 6,2 3,0 5,-1 6,-2 2,-1 3,-3 3,-4 1,-2 1,-4 1,-8 -3,3 -6,5 -10,5 -5,0 -8,-2 -11,-6 -2,-3 -4,-7 -4,-12 0,-3 1,-6 2,-9 1,-3 3,-5 5,-6 3,-2 5,-3 8,-3 4,0 8,2 10,5l0 -4 6 0 0 30c0,5 -1,9 -2,11 -1,3 -3,4 -5,6 -2,1 -5,2 -9,2 -4,0 -7,-1 -10,-3 -2,-2 -4,-5 -4,-9zm5 -20c0,4 1,7 3,10 2,2 4,3 7,3 2,0 5,-1 7,-3 1,-2 2,-6 2,-10 0,-4 -1,-8 -3,-10 -1,-2 -4,-3 -6,-3 -3,0 -5,1 -7,3 -2,2 -3,6 -3,10z"/>
   <polygon id="14" class="fil0" points="716,186 716,138 722,138 722,157 747,157 747,138 753,138 753,186 747,186 747,163 722,163 722,186 "/>
   <path id="15" class="fil0" d="M763 186l0 -48 6 0 0 17c2,-3 6,-5 10,-5 2,0 5,1 7,2 1,1 3,2 4,4 0,2 1,4 1,8l0 22 -6 0 0 -22c0,-3 -1,-5 -2,-7 -1,-1 -3,-2 -5,-2 -2,0 -4,1 -5,2 -2,1 -3,2 -3,3 -1,2 -1,4 -1,7l0 19 -6 0z"/>
   <polygon id="16" class="fil0" points="820,186 820,138 826,138 826,186 "/>
   <path id="17" class="fil0" d="M837 144l0 -6 6 0 0 6 -6 0zm0 42l0 -35 6 0 0 35 -6 0z"/>
   <path id="18" class="fil0" d="M868 172l5 -1c1,4 1,6 2,8 2,1 3,2 5,2 2,0 3,-1 5,-1 1,-1 1,-2 2,-3 0,-2 1,-4 1,-6l0 -33 6 0 0 32c0,4 -1,7 -2,10 -1,2 -2,3 -4,5 -2,1 -5,1 -7,1 -5,0 -8,-1 -10,-3 -2,-3 -3,-6 -3,-11z"/>
   <path id="19" class="fil0" d="M903 145l0 -7 6 0 0 7 -6 0zm-7 54l1 -5c1,0 2,0 3,0 1,0 2,0 3,-1 0,-1 0,-3 0,-6l0 -36 6 0 0 36c0,5 0,8 -1,9 -2,2 -4,4 -7,4 -2,0 -3,-1 -5,-1z"/>
   <polygon id="20" class="fil0" points="937,186 937,138 944,138 944,161 967,138 976,138 956,157 977,186 968,186 951,161 944,169 944,186 "/>
   <polygon id="21" class="fil0" points="981,186 981,138 987,138 987,165 1001,151 1009,151 995,164 1010,186 1003,186 991,168 987,172 987,186 "/>
   <polygon id="22" class="fil0" points="1034,186 1034,138 1040,138 1040,180 1063,180 1063,186 "/>
   <polygon id="23" class="fil0" points="1070,186 1070,138 1076,138 1076,186 "/>
   <path id="24" class="fil0" d="M1104 186l0 -48 9 0 12 34c1,3 2,5 2,7 1,-2 1,-5 3,-8l11 -33 9 0 0 48 -7 0 0 -40 -13 40 -6 0 -14 -41 0 41 -6 0z"/>
   <path id="25" class="fil0" d="M1159 186l0 -35 5 0 0 5c1,-2 3,-3 5,-4 1,-1 3,-2 6,-2 2,0 4,1 6,2 2,1 3,2 3,4 3,-4 7,-6 11,-6 4,0 6,1 8,3 2,2 3,5 3,9l0 24 -6 0 0 -22c0,-3 0,-4 -1,-5 0,-1 -1,-2 -2,-3 -1,0 -2,-1 -3,-1 -3,0 -5,1 -6,3 -2,1 -3,4 -3,7l0 21 -6 0 0 -23c0,-2 0,-4 -1,-6 -1,-1 -2,-2 -5,-2 -1,0 -3,1 -4,2 -2,0 -3,2 -3,3 -1,2 -1,4 -1,8l0 18 -6 0z"/>
   <polygon id="26" class="fil0" points="1234,186 1234,138 1240,138 1265,175 1265,138 1271,138 1271,186 1265,186 1240,148 1240,186 "/>
   <path id="27" class="fil0" d="M1281 186l0 -35 5 0 0 5c3,-4 7,-6 11,-6 2,0 4,1 6,1 2,1 3,2 4,3 1,2 1,3 2,5 0,1 0,3 0,5l0 22 -6 0 0 -21c0,-3 0,-5 0,-6 -1,-1 -2,-2 -3,-3 -1,0 -2,-1 -4,-1 -2,0 -5,1 -6,3 -2,1 -3,4 -3,9l0 19 -6 0z"/>
   <path id="28" class="fil0" d="M6 237c0,-8 2,-14 7,-19 4,-4 9,-6 16,-6 4,0 8,1 12,3 3,2 6,5 8,8 2,4 3,8 3,13 0,5 -1,9 -3,13 -2,4 -5,7 -8,9 -4,2 -8,3 -12,3 -5,0 -9,-1 -12,-3 -4,-3 -6,-6 -8,-9 -2,-4 -3,-8 -3,-12zm7 0c0,6 1,10 4,13 3,4 7,5 12,5 5,0 9,-1 12,-5 3,-3 4,-8 4,-14 0,-4 0,-7 -2,-10 -1,-3 -3,-5 -5,-7 -3,-1 -6,-2 -9,-2 -4,0 -8,2 -12,5 -3,3 -4,8 -4,15z"/>
   <path id="29" class="fil0" d="M57 243c0,-7 2,-11 5,-14 3,-3 7,-4 11,-4 5,0 9,1 12,4 3,3 4,8 4,13 0,5 0,8 -2,11 -1,2 -3,4 -5,6 -3,1 -6,2 -9,2 -5,0 -9,-2 -12,-5 -3,-3 -4,-7 -4,-13zm6 0c0,4 1,7 3,10 2,2 4,3 7,3 3,0 6,-1 7,-3 2,-3 3,-6 3,-10 0,-5 -1,-8 -3,-10 -2,-2 -4,-3 -7,-3 -3,0 -5,1 -7,3 -2,2 -3,5 -3,10z"/>
   <path id="30" class="fil0" d="M115 260l0 -48 18 0c4,0 6,0 8,1 2,0 4,1 6,2 1,1 3,3 3,5 1,2 2,4 2,6 0,4 -1,8 -4,10 -3,3 -7,5 -14,5l-12 0 0 19 -7 0zm7 -25l12 0c4,0 7,-1 9,-2 2,-2 2,-4 2,-7 0,-2 0,-3 -1,-5 -1,-1 -2,-2 -4,-3 -1,0 -3,0 -6,0l-12 0 0 17z"/>
   <path id="31" class="fil0" d="M159 273l0 -48 6 0 0 5c1,-2 2,-3 4,-4 1,-1 3,-1 6,-1 2,0 5,0 7,2 3,1 4,4 5,6 2,3 2,6 2,9 0,4 0,7 -2,10 -1,3 -3,5 -5,7 -3,1 -5,2 -8,2 -2,0 -4,-1 -5,-1 -2,-1 -3,-2 -4,-4l0 17 -6 0zm6 -30c0,4 0,8 2,10 2,2 4,3 7,3 2,0 5,-1 6,-3 2,-3 3,-6 3,-11 0,-4 -1,-7 -3,-9 -1,-3 -4,-4 -6,-4 -3,0 -5,1 -7,4 -2,2 -2,6 -2,10z"/>
   <path id="32" class="fil0" d="M252 255c3,2 5,3 8,4l-2 5c-4,-1 -7,-3 -10,-6 -4,2 -8,3 -12,3 -4,0 -8,-1 -12,-3 -3,-2 -6,-5 -8,-9 -2,-4 -3,-8 -3,-13 0,-5 1,-9 3,-13 2,-4 5,-6 8,-8 4,-2 8,-3 12,-3 4,0 8,1 12,3 3,2 6,5 8,8 2,4 3,8 3,13 0,4 -1,8 -2,11 -1,3 -3,6 -5,8zm-14 -8c3,1 6,2 9,4 3,-3 5,-8 5,-15 0,-4 0,-7 -2,-10 -1,-3 -3,-5 -5,-7 -3,-1 -6,-2 -9,-2 -5,0 -9,2 -12,5 -3,3 -4,8 -4,14 0,6 1,11 4,14 3,4 7,5 12,5 2,0 4,0 6,-1 -2,-1 -4,-2 -6,-3l2 -4z"/>
   <path id="33" class="fil0" d="M289 273l0 -17c-1,2 -3,3 -4,4 -2,0 -4,1 -5,1 -5,0 -8,-2 -11,-5 -3,-3 -4,-8 -4,-14 0,-3 0,-6 1,-9 2,-3 3,-5 6,-6 2,-2 4,-2 7,-2 4,0 8,1 10,5l0 -5 5 0 0 48 -5 0zm-18 -30c0,4 0,7 2,10 2,2 4,3 7,3 3,0 5,-1 6,-3 2,-2 3,-6 3,-10 0,-4 -1,-8 -3,-10 -2,-3 -4,-4 -6,-4 -3,0 -5,1 -7,4 -2,2 -2,5 -2,10z"/>
   <path id="34" class="fil0" d="M323 260l0 -48 21 0c4,0 8,1 10,2 2,0 4,2 5,4 1,2 2,5 2,7 0,4 -1,7 -3,9 -2,2 -6,4 -10,4 1,1 3,2 4,3 1,1 3,3 5,6l8 13 -8 0 -6 -10c-2,-3 -4,-5 -5,-6 -1,-2 -2,-3 -3,-4 -1,0 -2,-1 -3,-1 -1,0 -2,0 -3,0l-8 0 0 21 -6 0zm6 -27l14 0c3,0 5,0 7,-1 1,0 2,-1 3,-2 1,-2 2,-3 2,-5 0,-2 -1,-4 -3,-5 -1,-2 -4,-2 -8,-2l-15 0 0 15z"/>
   <path id="35" class="fil0" d="M370 260l0 -35 5 0 0 6c2,-3 3,-4 4,-5 1,-1 3,-1 4,-1 2,0 4,0 6,2l-2 5c-2,-1 -3,-1 -4,-1 -2,0 -3,0 -4,1 -1,1 -2,2 -2,3 -1,2 -1,4 -1,7l0 18 -6 0z"/>
   <path id="36" class="fil0" d="M410 245l6 -1c0,3 0,5 2,6 1,2 2,3 4,4 2,1 5,1 8,1 2,0 4,0 6,-1 2,-1 3,-2 4,-3 1,-1 1,-2 1,-4 0,-1 0,-3 -1,-4 -1,-1 -2,-2 -4,-3 -1,0 -4,-1 -9,-2 -4,-1 -7,-2 -9,-3 -2,-1 -4,-3 -5,-4 -1,-2 -2,-4 -2,-6 0,-3 1,-5 2,-7 2,-2 4,-4 6,-5 3,-1 6,-1 9,-1 4,0 7,0 10,1 2,1 4,3 6,5 1,2 2,5 2,8l-6 0c0,-3 -1,-5 -3,-7 -2,-1 -5,-2 -9,-2 -3,0 -6,1 -8,2 -2,2 -3,3 -3,5 0,2 1,3 2,5 2,1 5,2 10,3 5,1 9,2 10,3 3,1 5,3 7,5 1,2 2,4 2,7 0,2 -1,4 -3,7 -1,2 -3,4 -6,5 -3,1 -6,2 -9,2 -4,0 -8,-1 -11,-2 -3,-1 -5,-3 -7,-6 -1,-2 -2,-5 -2,-8z"/>
   <path id="37" class="fil0" d="M453 250l6 -1c0,2 1,4 3,5 1,1 3,2 6,2 3,0 5,-1 6,-2 1,-1 2,-2 2,-4 0,-1 -1,-2 -2,-3 -1,0 -3,-1 -6,-2 -4,-1 -7,-2 -9,-2 -2,-1 -3,-2 -4,-4 0,-1 -1,-3 -1,-4 0,-2 0,-3 1,-5 1,-1 2,-2 3,-3 1,-1 2,-1 4,-2 1,0 3,0 5,0 2,0 5,0 7,1 2,1 3,2 4,3 1,1 2,3 2,5l-5 1c-1,-2 -1,-3 -3,-4 -1,-1 -3,-1 -5,-1 -2,0 -4,0 -6,1 -1,1 -1,2 -1,3 0,1 0,1 0,2 1,1 2,1 3,2 0,0 2,0 5,1 4,1 7,2 9,3 1,0 2,2 3,3 1,1 2,3 2,5 0,2 -1,4 -2,5 -1,2 -3,3 -5,4 -2,1 -4,2 -7,2 -5,0 -8,-1 -10,-3 -3,-2 -4,-5 -5,-8z"/>
   <polygon id="38" class="fil0" points="519,260 519,218 503,218 503,212 541,212 541,218 525,218 525,260 "/>
   <path id="39" class="fil0" d="M559 255l1 5c-1,0 -3,1 -4,1 -2,0 -4,-1 -5,-2 -1,0 -2,-1 -3,-2 0,-1 0,-4 0,-7l0 -20 -5 0 0 -5 5 0 0 -8 6 -4 0 12 5 0 0 5 -5 0 0 20c0,2 0,3 0,3 0,1 0,1 1,2 0,0 1,0 2,0 1,0 1,0 2,0z"/>
   <path id="40" class="fil0" d="M616 212l6 0 0 28c0,5 0,8 -2,11 -1,3 -3,5 -5,7 -3,2 -7,3 -12,3 -4,0 -8,-1 -10,-2 -3,-2 -5,-4 -7,-7 -1,-3 -1,-7 -1,-12l0 -28 6 0 0 28c0,4 0,7 1,9 1,2 2,4 4,5 2,1 4,1 7,1 5,0 8,-1 10,-3 2,-2 3,-6 3,-12l0 -28z"/>
   <path id="41" class="fil0" d="M654 260l0 -5c-2,4 -6,6 -10,6 -3,0 -4,-1 -6,-1 -2,-1 -3,-2 -4,-3 -1,-2 -2,-3 -2,-5 0,-1 0,-3 0,-5l0 -22 6 0 0 20c0,3 0,5 0,6 0,1 1,3 2,3 1,1 3,2 5,2 1,0 3,-1 5,-2 1,-1 2,-2 3,-3 1,-2 1,-4 1,-7l0 -19 6 0 0 35 -6 0z"/>
   <path id="42" class="fil0" d="M702 260l-19 -48 7 0 13 35c1,3 1,5 2,8 1,-3 2,-5 3,-8l12 -35 7 0 -19 48 -6 0z"/>
   <path id="43" class="fil0" d="M741 260l-13 -35 7 0 7 21c1,2 2,5 2,7 1,-2 1,-4 2,-6l8 -22 6 0 -13 35 -6 0z"/>
   <path id="44" class="fil0" d="M793 260l-13 -48 7 0 7 32c1,3 1,6 2,9 1,-5 2,-8 2,-8l9 -33 8 0 7 24c1,6 2,12 3,17 1,-3 2,-6 3,-10l7 -31 6 0 -13 48 -6 0 -10 -36c-1,-3 -1,-5 -1,-6 -1,2 -1,4 -2,6l-10 36 -6 0z"/>
   <path id="45" class="fil0" d="M853 260l-11 -35 7 0 5 20 2 8c0,-1 1,-3 2,-7l5 -21 6 0 5 21 2 6 2 -7 6 -20 6 0 -11 35 -6 0 -6 -21 -1 -6 -7 27 -6 0z"/>
   <path id="46" class="fil0" d="M909 260l19 -25 -17 -23 8 0 9 13c1,2 3,4 3,5 1,-1 3,-3 4,-5l10 -13 7 0 -17 23 18 25 -8 0 -12 -17c-1,-1 -1,-2 -2,-3 -1,2 -2,3 -2,3l-12 17 -8 0z"/>
   <path id="47" class="fil0" d="M954 260l12 -18 -11 -17 7 0 5 9c1,1 2,2 3,3 1,-1 2,-2 2,-3l6 -9 7 0 -12 17 13 18 -7 0 -7 -11 -2 -2 -9 13 -7 0z"/>
   <path id="48" class="fil0" d="M1022 260l0 -20 -18 -28 8 0 9 15c2,2 4,5 5,8 1,-3 3,-6 5,-9l10 -14 7 0 -19 28 0 20 -7 0z"/>
   <path id="49" class="fil0" d="M1052 273l0 -5c1,0 2,0 3,0 1,0 3,0 3,0 1,-1 2,-1 2,-2 1,-1 1,-2 2,-4 0,-1 0,-1 1,-2l-14 -35 7 0 7 20c1,3 2,6 2,8 1,-2 2,-5 3,-7l7 -21 6 0 -13 36c-1,3 -3,6 -3,7 -1,2 -3,4 -4,5 -1,1 -3,1 -5,1 -1,0 -2,0 -4,-1z"/>
   <path id="50" class="fil0" d="M1102 260l0 -6 24 -30c2,-3 3,-4 5,-6l-27 0 0 -6 34 0 0 6 -26 33 -3 3 30 0 0 6 -37 0z"/>
   <path id="51" class="fil0" d="M1142 260l0 -5 22 -25c-2,0 -5,0 -6,0l-14 0 0 -5 28 0 0 4 -19 22 -4 4c3,0 5,0 8,0l16 0 0 5 -31 0z"/>
   <path id="52" class="fil0" d="M28 409l-6 0 0 -37c-2,1 -3,2 -6,4 -2,1 -4,2 -6,3l0 -6c3,-1 6,-3 9,-6 2,-2 4,-4 5,-6l4 0 0 48z"/>
   <path id="53" class="fil0" d="M92 403l0 6 -32 0c0,-1 1,-3 1,-4 1,-2 2,-4 4,-6 2,-3 4,-5 8,-8 5,-4 8,-7 10,-10 2,-2 3,-5 3,-7 0,-2 -1,-4 -3,-6 -1,-1 -3,-2 -6,-2 -3,0 -5,1 -7,2 -2,2 -2,4 -2,7l-6 0c0,-5 2,-8 4,-10 3,-3 7,-4 11,-4 5,0 8,1 11,4 3,2 4,6 4,9 0,2 0,4 -1,6 -1,2 -2,4 -4,6 -2,2 -5,5 -9,8 -4,3 -6,5 -7,6 -1,1 -2,2 -2,3l23 0z"/>
   <path id="54" class="fil0" d="M117 396l6 0c0,3 2,5 3,7 2,1 4,2 6,2 3,0 5,-1 7,-3 2,-2 3,-4 3,-7 0,-3 -1,-5 -3,-7 -1,-1 -4,-2 -6,-2 -2,0 -3,0 -5,0l1 -5c0,0 1,0 1,0 3,0 5,0 7,-2 2,-1 3,-3 3,-6 0,-2 -1,-4 -2,-5 -2,-1 -4,-2 -6,-2 -2,0 -4,1 -6,2 -1,1 -2,4 -3,7l-6 -2c1,-3 3,-7 5,-9 3,-2 6,-3 10,-3 2,0 5,1 7,2 2,1 4,2 5,4 1,2 2,4 2,6 0,2 -1,4 -2,6 -1,2 -3,3 -5,4 3,1 5,2 7,4 1,2 2,5 2,8 0,4 -1,8 -4,10 -3,3 -7,5 -12,5 -4,0 -8,-1 -10,-4 -3,-2 -5,-6 -5,-10z"/>
   <path id="55" class="fil0" d="M191 409l0 -11 -21 0 0 -6 22 -31 5 0 0 31 6 0 0 6 -6 0 0 11 -6 0zm0 -17l0 -21 -15 21 15 0z"/>
   <path id="56" class="fil0" d="M228 396l6 0c1,3 2,5 3,7 2,1 4,2 6,2 3,0 6,-1 8,-3 1,-2 2,-5 2,-9 0,-3 -1,-6 -2,-8 -2,-2 -5,-2 -8,-2 -2,0 -3,0 -5,1 -1,1 -3,2 -3,3l-6 -1 5 -24 23 0 0 5 -19 0 -2 13c3,-2 6,-3 9,-3 4,0 7,2 10,5 3,3 5,6 5,11 0,4 -2,8 -4,11 -3,4 -7,6 -13,6 -4,0 -8,-1 -10,-4 -3,-2 -5,-6 -5,-10z"/>
   <path id="57" class="fil0" d="M314 373l-6 0c0,-2 -1,-4 -2,-5 -2,-1 -4,-2 -6,-2 -2,0 -3,0 -5,1 -2,2 -3,4 -4,6 -1,3 -2,7 -2,11 2,-2 3,-3 5,-4 2,-1 4,-2 7,-2 4,0 7,1 10,4 2,3 4,7 4,11 0,3 -1,6 -2,9 -1,2 -3,4 -5,6 -3,1 -5,2 -8,2 -5,0 -9,-2 -12,-6 -3,-3 -5,-9 -5,-17 0,-10 2,-16 5,-20 3,-4 7,-6 12,-6 4,0 7,1 10,3 2,2 4,5 4,9zm-24 21c0,2 0,3 1,5 1,2 2,4 4,5 1,1 3,1 5,1 2,0 4,-1 6,-3 2,-2 3,-5 3,-8 0,-3 -1,-6 -3,-8 -2,-2 -4,-3 -6,-3 -3,0 -5,1 -7,3 -2,2 -3,4 -3,8z"/>
   <path id="58" class="fil0" d="M339 367l0 -5 31 0 0 4c-3,4 -6,8 -9,13 -3,6 -5,11 -7,17 -1,4 -2,8 -2,13l-6 0c0,-4 1,-8 2,-14 2,-5 4,-10 6,-15 3,-5 6,-9 9,-13l-24 0z"/>
   <path id="59" class="fil0" d="M404 383c-3,-1 -4,-2 -6,-4 -1,-1 -1,-3 -1,-6 0,-3 1,-6 3,-8 3,-3 6,-4 10,-4 4,0 8,1 10,4 3,2 4,5 4,9 0,2 0,4 -2,5 -1,2 -3,3 -5,4 3,1 5,3 7,5 1,2 2,4 2,7 0,4 -1,8 -4,11 -3,2 -7,4 -12,4 -4,0 -8,-2 -11,-4 -3,-3 -4,-7 -4,-11 0,-3 0,-6 2,-8 2,-2 4,-3 7,-4zm-1 -10c0,2 0,4 2,6 1,1 3,2 5,2 3,0 5,-1 6,-2 1,-2 2,-3 2,-6 0,-2 -1,-3 -2,-5 -2,-1 -3,-2 -6,-2 -2,0 -4,1 -5,2 -2,1 -2,3 -2,5zm-2 22c0,2 0,4 1,5 1,2 2,3 3,4 2,1 4,1 5,1 3,0 6,-1 7,-3 2,-2 3,-4 3,-7 0,-2 -1,-5 -3,-7 -2,-1 -4,-2 -7,-2 -3,0 -5,1 -7,2 -1,2 -2,4 -2,7z"/>
   <path id="60" class="fil0" d="M451 398l6 -1c0,3 1,5 2,6 2,1 4,2 6,2 1,0 3,0 4,-1 2,-1 3,-2 4,-4 1,-1 1,-3 2,-5 0,-2 1,-5 1,-7 0,-1 0,-1 0,-1 -1,1 -3,3 -5,4 -2,1 -4,2 -7,2 -4,0 -7,-2 -10,-5 -2,-2 -4,-6 -4,-11 0,-5 2,-9 5,-12 2,-2 6,-4 10,-4 3,0 6,1 9,3 2,1 4,4 6,7 1,3 2,7 2,13 0,6 -1,11 -2,15 -2,3 -4,6 -6,8 -3,2 -6,3 -9,3 -4,0 -7,-1 -10,-3 -2,-2 -3,-5 -4,-9zm24 -21c0,-3 -1,-6 -3,-8 -1,-2 -4,-3 -6,-3 -3,0 -5,1 -7,3 -2,2 -3,5 -3,8 0,3 1,6 3,8 2,2 4,3 7,3 3,0 5,-1 6,-3 2,-2 3,-5 3,-8z"/>
   <path id="61" class="fil0" d="M506 385c0,-5 0,-10 2,-13 1,-4 2,-6 5,-8 2,-2 5,-3 8,-3 3,0 5,1 7,2 2,1 4,2 5,4 1,2 2,4 3,7 1,3 1,7 1,11 0,6 -1,11 -2,14 -1,3 -3,6 -5,8 -2,2 -5,3 -9,3 -4,0 -8,-2 -10,-5 -4,-4 -5,-11 -5,-20zm6 0c0,8 1,14 3,16 1,3 4,4 6,4 3,0 5,-1 7,-4 2,-2 3,-8 3,-16 0,-7 -1,-13 -3,-15 -2,-3 -4,-4 -7,-4 -2,0 -5,1 -6,3 -2,3 -3,9 -3,16z"/>
   <path id="62" class="fil0" d="M718 381l0 -7 7 0 0 7 -7 0zm0 28l0 -7 7 0 0 7c0,2 -1,4 -1,6 -1,1 -3,3 -5,3l-1 -2c1,-1 2,-1 3,-2 0,-2 0,-3 1,-5l-4 0z"/>
   <path id="63" class="fil0" d="M760 392l9 15 -5 0 -10 -15 10 -15 5 0 -9 15zm13 0l9 15 -5 0 -11 -15 11 -15 5 0 -9 15z"/>
   <path id="64" class="fil0" d="M831 392l-9 -15 5 0 10 15 -10 15 -5 0 9 -15zm-13 0l-9 -15 5 0 11 15 -11 15 -5 0 9 -15z"/>
   <path id="65" class="fil0" d="M866 361l6 0 23 37 0 -37 6 0 0 48 -6 0 -23 -37 0 37 -6 0 0 -48zm40 22c0,-3 1,-7 3,-9 2,-2 5,-3 9,-3 3,0 6,1 8,3 2,3 3,6 3,10 0,4 -1,7 -3,9 -2,3 -5,4 -9,4 -3,0 -6,-1 -8,-3 -2,-2 -3,-6 -3,-11zm5 1c0,2 1,5 2,6 1,2 3,2 4,2 2,0 3,0 5,-2 1,-1 1,-3 1,-6 0,-3 0,-6 -1,-7 -2,-1 -3,-2 -5,-2 -1,0 -3,1 -4,2 -1,2 -2,4 -2,7zm-5 16l22 0 0 5 -22 0 0 -5z"/>
   <polygon id="66" class="fil0" points="555,410 581,360 586,360 560,410 "/>
   <polygon id="67" class="fil0" points="580,395 581,389 599,389 598,395 "/>
   <polygon id="68" class="fil0" points="637,401 637,388 624,388 624,383 637,383 637,370 642,370 642,383 655,383 655,388 642,388 642,401 "/>
   <path id="69" class="fil0" d="M679 409l1 -7 7 0 -1 6c-1,4 -2,6 -4,8 -1,1 -3,2 -5,3l0 -3c3,-1 5,-3 6,-7l-4 0z"/>
   <path id="70" class="fil0" d="M965 409c-3,0 -6,-2 -8,-4 -2,-3 -3,-6 -3,-10l6 0c0,2 1,5 2,6 1,2 2,3 4,4l4 -18c-3,-2 -4,-3 -6,-4 -1,-1 -2,-2 -3,-4 -1,-2 -2,-4 -2,-5 0,-4 2,-7 5,-9 2,-3 6,-4 10,-4 0,0 1,0 1,0l1 -3 3 0 0 3c3,1 5,2 7,4 1,2 2,5 3,8l-6 0c0,-2 -1,-3 -2,-5 -1,-1 -2,-2 -3,-2l-4 16c5,2 8,4 9,6 2,2 3,5 3,7 0,3 -1,5 -3,8 -1,2 -3,4 -5,5 -3,1 -6,2 -9,2 0,0 0,0 -1,0l-1 5 -3 0 1 -6zm6 -28l3 -16c-1,0 -3,1 -4,1 -2,1 -3,2 -4,3 0,1 -1,3 -1,4 0,2 1,3 1,5 1,1 3,2 5,3zm2 7l-4 17c3,0 6,-1 8,-2 2,-2 3,-5 3,-7 0,-2 -1,-3 -2,-5 -1,-1 -2,-2 -5,-3z"/>
   <path id="71" class="fil0" d="M1015 411l40 -51 5 0 -39 51 -6 0zm-3 -35c0,-1 1,-2 1,-4 0,-2 1,-4 2,-5 1,-2 2,-3 2,-4 1,0 2,-1 4,-2 1,0 2,0 3,0 3,0 6,1 7,2 2,2 3,4 3,7 0,3 -1,5 -2,8 -1,3 -2,5 -4,6 -2,1 -4,2 -7,2 -3,0 -5,-1 -6,-2 -2,-2 -3,-5 -3,-8zm5 1c0,2 1,3 2,4 0,1 1,1 2,1 2,0 3,0 4,-2 1,-1 2,-2 3,-5 0,-2 1,-4 1,-6 0,-1 -1,-2 -1,-3 -1,-1 -2,-1 -3,-1 -2,0 -3,0 -4,1 -1,1 -2,3 -2,5 -1,2 -2,4 -2,6zm25 24c0,-1 0,-3 0,-4 1,-2 1,-4 2,-5 1,-2 2,-3 3,-4 0,-1 2,-1 3,-2 1,0 2,0 3,0 4,0 6,0 7,2 2,1 3,4 3,7 0,2 -1,5 -2,8 -1,2 -2,4 -4,6 -2,1 -4,2 -7,2 -3,0 -5,-1 -6,-3 -2,-1 -2,-4 -2,-7zm5 1c0,2 0,3 1,4 0,0 1,1 2,1 2,0 3,-1 4,-2 1,-1 2,-3 3,-5 0,-2 1,-4 1,-6 0,-1 -1,-3 -1,-3 -1,-1 -2,-1 -3,-1 -2,0 -3,0 -4,1 -1,1 -2,3 -2,5 -1,2 -1,4 -1,6z"/>
   <polygon id="72" class="fil0" points="1094,387 1088,387 1100,360 1105,360 1116,387 1110,387 1102,367 "/>
   <path id="73" class="fil0" d="M1148 404c-3,3 -5,4 -7,5 -2,1 -4,1 -6,1 -5,0 -8,-1 -11,-4 -2,-2 -4,-6 -4,-9 0,-3 1,-5 2,-7 1,-2 2,-4 4,-5 2,-1 4,-3 7,-4 -1,-3 -2,-4 -2,-5 -1,-1 -1,-3 -1,-4 0,-2 1,-4 2,-6 1,-1 2,-3 4,-4 2,-1 4,-2 6,-2 3,0 6,1 8,3 2,2 2,4 2,7 0,2 0,4 -2,6 -2,2 -5,4 -9,7 2,5 5,9 8,12 1,-2 3,-4 4,-6l5 2c-1,3 -3,6 -5,9 1,2 3,4 5,7l-4 3c-3,-2 -4,-4 -6,-6zm-10 -26c4,-1 6,-3 7,-5 1,-1 2,-2 2,-3 0,-2 -1,-3 -2,-3 0,-1 -2,-2 -3,-2 -1,0 -3,1 -4,2 -1,1 -2,3 -2,4 0,2 1,5 2,7zm7 22c-4,-6 -8,-10 -10,-15 -3,2 -5,3 -6,5 -2,1 -3,4 -3,6 0,2 1,4 3,6 2,2 4,3 6,3 3,0 6,-2 10,-5z"/>
   <path id="74" class="fil0" d="M1186 370l1 -5c4,2 6,3 8,4 -1,-4 -1,-7 -1,-9l5 0c0,3 -1,5 -1,9 2,-2 5,-3 8,-4l1 5c-3,1 -5,2 -8,2 1,1 3,3 6,6l-4 3c-2,-2 -3,-4 -5,-7 -1,3 -3,5 -4,7l-4 -3c3,-3 5,-5 6,-6 -3,-1 -6,-1 -8,-2z"/>
   <path id="75" class="fil0" d="M1233 423c-3,-7 -5,-15 -5,-23 0,-5 1,-10 2,-15 1,-4 4,-9 6,-13 2,-3 5,-7 9,-12l5 0c-3,3 -5,7 -8,12 -3,5 -5,10 -6,14 -2,5 -2,10 -2,15 0,7 1,14 4,22l-5 0z"/>
   <path id="76" class="fil0" d="M1276 360c4,8 5,16 5,23 0,6 0,11 -2,15 -1,5 -3,9 -6,14 -2,2 -5,6 -9,11l-4 0c2,-3 5,-7 8,-11 2,-5 5,-10 6,-15 1,-5 2,-10 2,-14 0,-7 -2,-15 -4,-23l4 0z"/>
   <path class="fil1" d="M2 45l0 -42 8 0 10 30c1,2 2,4 2,6 0,-2 1,-4 2,-7l10 -29 8 0 0 42 -6 0 0 -35 -12 35 -5 0 -12 -36 0 36 -5 0z"/>
   <path id="1" class="fil1" d="M48 30c0,-6 2,-10 5,-13 2,-2 5,-3 9,-3 4,0 8,1 10,4 3,3 4,6 4,11 0,4 0,7 -1,9 -2,3 -3,4 -6,6 -2,1 -4,1 -7,1 -4,0 -7,-1 -10,-4 -3,-2 -4,-6 -4,-11zm5 0c0,4 1,6 3,8 1,2 4,3 6,3 3,0 5,-1 7,-3 1,-2 2,-5 2,-9 0,-3 -1,-6 -2,-8 -2,-2 -4,-3 -7,-3 -2,0 -5,1 -6,3 -2,2 -3,5 -3,9z"/>
   <path id="2" class="fil1" d="M82 45l0 -30 5 0 0 4c2,-3 5,-5 10,-5 1,0 3,0 5,1 1,0 2,1 3,2 1,1 1,3 2,4 0,1 0,3 0,5l0 19 -5 0 0 -19c0,-2 0,-3 -1,-4 0,-1 -1,-2 -2,-3 -1,0 -2,-1 -4,-1 -2,0 -4,1 -5,2 -2,2 -3,4 -3,8l0 17 -5 0z"/>
   <path id="3" class="fil1" d="M126 40l1 5c-2,0 -3,0 -4,0 -2,0 -4,0 -5,-1 -1,0 -1,-1 -2,-2 0,-1 0,-3 0,-6l0 -18 -4 0 0 -3 4 0 0 -8 5 -3 0 11 5 0 0 3 -5 0 0 18c0,2 0,3 0,3 0,0 1,1 1,1 0,0 1,0 2,0 0,0 1,0 2,0z"/>
   <path id="4" class="fil1" d="M129 36l5 -1c0,2 1,4 2,5 2,1 4,1 6,1 2,0 4,0 5,-1 1,-1 2,-2 2,-4 0,-1 -1,-2 -2,-2 0,-1 -2,-1 -5,-2 -4,-1 -6,-2 -8,-3 -1,0 -2,-1 -3,-2 -1,-2 -1,-3 -1,-4 0,-2 0,-3 1,-4 0,-1 1,-2 2,-3 1,-1 2,-1 3,-2 2,0 3,0 5,0 2,0 4,0 6,1 2,1 3,2 4,3 1,1 2,2 2,4l-5 1c0,-1 -1,-3 -2,-4 -1,0 -3,-1 -5,-1 -2,0 -4,0 -5,1 -1,1 -1,2 -1,3 0,1 0,1 0,2 1,0 1,1 2,1 1,0 2,1 5,1 3,1 6,2 7,3 2,0 3,1 4,2 1,2 1,3 1,5 0,2 0,3 -1,5 -1,1 -3,2 -5,3 -2,1 -4,1 -6,1 -4,0 -7,0 -9,-2 -2,-2 -4,-4 -4,-7z"/>
   <path id="5" class="fil1" d="M181 35l5 1c-1,3 -2,5 -5,7 -2,2 -5,2 -8,2 -5,0 -8,-1 -11,-4 -2,-2 -4,-6 -4,-11 0,-5 2,-9 4,-12 3,-3 6,-4 11,-4 4,0 7,1 9,4 3,3 4,7 4,12 0,0 0,0 0,1l-22 0c0,3 1,6 2,8 2,1 4,2 7,2 2,0 3,0 5,-1 1,-1 2,-3 3,-5zm-17 -8l17 0c0,-3 -1,-5 -2,-6 -2,-2 -4,-3 -6,-3 -3,0 -5,1 -6,2 -2,2 -3,4 -3,7z"/>
   <path id="6" class="fil1" d="M192 45l0 -30 5 0 0 4c1,-2 2,-3 3,-4 1,-1 2,-1 4,-1 1,0 3,0 5,1l-2 5c-1,0 -2,-1 -4,-1 -1,0 -2,1 -3,1 -1,1 -1,2 -2,3 0,2 0,4 0,6l0 16 -6 0z"/>
   <path id="7" class="fil1" d="M212 45l0 -30 5 0 0 4c1,-2 2,-3 3,-4 1,-1 2,-1 3,-1 2,0 4,0 5,1l-1 5c-2,0 -3,-1 -4,-1 -1,0 -2,1 -3,1 -1,1 -2,2 -2,3 -1,2 -1,4 -1,6l0 16 -5 0z"/>
   <path id="8" class="fil1" d="M251 41c-2,2 -4,3 -5,3 -2,1 -4,1 -6,1 -3,0 -6,0 -8,-2 -1,-2 -2,-4 -2,-6 0,-2 0,-3 1,-4 0,-1 1,-2 2,-3 1,-1 3,-2 4,-2 1,0 3,0 5,-1 4,0 7,-1 9,-1 0,-1 0,-2 0,-2 0,-2 -1,-3 -2,-4 -1,-1 -3,-2 -6,-2 -2,0 -4,1 -5,1 -1,1 -2,3 -2,5l-6 -1c1,-2 2,-4 3,-5 1,-1 2,-2 4,-3 2,-1 5,-1 7,-1 3,0 5,0 6,1 2,0 3,1 4,2 1,1 1,2 2,4 0,0 0,2 0,4l0 7c0,5 0,8 0,9 0,1 1,3 1,4l-5 0c0,-1 -1,-3 -1,-4zm0 -11c-2,0 -5,1 -9,2 -2,0 -3,0 -4,1 -1,0 -2,0 -2,1 -1,1 -1,2 -1,3 0,1 1,2 2,3 1,1 2,1 4,1 2,0 4,0 5,-1 2,-1 3,-2 4,-3 0,-2 1,-3 1,-6l0 -1z"/>
   <path id="9" class="fil1" d="M275 40l1 5c-2,0 -3,0 -4,0 -2,0 -4,0 -5,-1 -1,0 -1,-1 -2,-2 0,-1 0,-3 0,-6l0 -18 -4 0 0 -3 4 0 0 -8 5 -3 0 11 5 0 0 3 -5 0 0 18c0,2 0,3 0,3 0,0 1,1 1,1 0,0 1,0 2,0 0,0 1,0 2,0z"/>
   <polygon id="10" class="fil1" points="295,45 304,3 309,3 301,40 323,40 322,45 "/>
   <path id="11" class="fil1" d="M334 9l1 -6 6 0 -2 6 -5 0zm-7 36l6 -30 5 0 -6 30 -5 0z"/>
   <path id="12" class="fil1" d="M339 48l6 0c0,1 0,2 0,3 0,0 1,1 2,1 0,0 2,1 3,1 3,0 6,-1 7,-3 1,-1 2,-3 2,-7l1 -2c-3,2 -6,4 -9,4 -3,0 -5,-1 -7,-4 -2,-2 -3,-5 -3,-9 0,-4 0,-7 2,-10 2,-2 4,-5 6,-6 2,-1 4,-2 7,-2 4,0 7,2 9,5l1 -4 5 0 -6 29c-1,3 -2,5 -3,7 -1,2 -3,3 -5,4 -2,1 -4,2 -6,2 -3,0 -5,0 -7,-1 -1,-1 -3,-2 -3,-3 -1,-1 -2,-2 -2,-4 0,0 0,-1 0,-1zm7 -17c0,2 0,4 0,5 1,2 2,3 3,3 1,1 2,2 3,2 2,0 4,-1 5,-2 2,-1 3,-3 5,-6 1,-2 1,-5 1,-7 0,-2 -1,-4 -2,-6 -1,-1 -3,-2 -5,-2 -1,0 -3,0 -4,1 -1,1 -2,2 -3,3 -1,1 -2,3 -2,5 -1,2 -1,3 -1,4z"/>
   <path id="13" class="fil1" d="M372 45l9 -42 5 0 -3 16c2,-2 3,-3 5,-4 2,-1 3,-1 5,-1 2,0 4,1 6,2 1,1 2,3 2,5 0,1 -1,3 -1,6l-4 18 -5 0 4 -19c0,-2 1,-4 1,-5 0,-1 -1,-1 -1,-2 -1,-1 -2,-1 -3,-1 -2,0 -4,1 -6,2 -1,1 -3,2 -3,4 -1,1 -2,4 -3,8l-3 13 -5 0z"/>
   <path id="14" class="fil1" d="M417 41l-1 4c-2,0 -3,0 -4,0 -2,0 -4,0 -5,-1 -1,-1 -1,-2 -1,-3 0,-1 0,-3 1,-5l3 -18 -4 0 1 -3 4 0 2 -8 6 -3 -3 11 5 0 -1 3 -5 0 -3 17c-1,2 -1,4 -1,4 0,1 0,1 1,1 0,1 1,1 2,1 1,0 2,0 3,0z"/>
   <polygon id="15" class="fil1" points="438,45 447,3 453,3 444,45 "/>
   <path id="16" class="fil1" d="M465 41l-1 4c-1,0 -2,0 -3,0 -2,0 -4,0 -5,-1 -1,-1 -2,-2 -2,-3 0,-1 1,-3 1,-5l4 -18 -4 0 1 -3 4 0 1 -8 6 -3 -2 11 5 0 -1 3 -5 0 -3 17c-1,2 -1,4 -1,4 0,1 0,1 0,1 1,1 1,1 2,1 1,0 2,0 3,0z"/>
   <path id="17" class="fil1" d="M490 41c-2,2 -4,3 -5,3 -2,1 -4,1 -6,1 -3,0 -5,0 -6,-2 -2,-2 -3,-4 -3,-6 0,-2 0,-4 1,-5 1,-1 2,-2 3,-3 1,-1 3,-1 5,-2 1,0 3,0 6,0 4,0 6,-1 7,-1 1,-2 1,-3 1,-4 0,-1 0,-2 -1,-3 -1,0 -3,-1 -6,-1 -2,0 -3,1 -5,2 -1,0 -2,2 -3,4l-5 -1c1,-3 3,-5 5,-7 2,-1 5,-2 9,-2 3,0 6,1 9,3 1,1 2,3 2,5 0,1 0,3 -1,5l-1 8c-1,2 -1,4 -1,6 0,1 0,2 1,4l-6 0c0,-1 0,-2 0,-4zm2 -12c-1,1 -2,1 -3,1 -1,0 -2,0 -4,1 -3,0 -5,0 -6,1 -1,0 -2,1 -3,2 -1,0 -1,1 -1,2 0,2 1,3 2,4 1,1 2,1 4,1 2,0 3,0 5,-1 1,-1 3,-2 3,-4 1,-1 2,-4 3,-7z"/>
   <polygon id="18" class="fil1" points="501,45 510,3 515,3 507,45 "/>
   <path id="19" class="fil1" d="M522 9l1 -6 5 0 -1 6 -5 0zm-7 36l6 -30 5 0 -6 30 -5 0z"/>
   <path id="20" class="fil1" d="M549 34l5 0c-2,4 -3,7 -6,9 -2,2 -5,2 -8,2 -3,0 -6,-1 -8,-3 -2,-2 -3,-5 -3,-9 0,-3 1,-6 2,-9 1,-4 3,-6 6,-8 2,-1 5,-2 8,-2 3,0 6,1 8,3 2,1 3,4 3,7l-6 0c0,-2 0,-3 -1,-4 -1,-1 -3,-2 -5,-2 -2,0 -3,1 -5,2 -1,1 -3,3 -4,6 0,3 -1,5 -1,8 0,2 1,4 2,6 1,1 2,1 4,1 2,0 3,0 5,-1 1,-2 3,-4 4,-6z"/>
  </g>
 </g>
</svg>
