<?xml version="1.0" encoding="UTF-8"?>
<!DOCTYPE svg PUBLIC "-//W3C//DTD SVG 1.1//EN" "http://www.w3.org/Graphics/SVG/1.1/DTD/svg11.dtd">
<!-- Creator: CorelDRAW X8 -->
<svg xmlns="http://www.w3.org/2000/svg" xml:space="preserve" width="1323px" height="437px" version="1.1" style="shape-rendering:geometricPrecision; text-rendering:geometricPrecision; image-rendering:optimizeQuality; fill-rule:evenodd; clip-rule:evenodd"
viewBox="0 0 1323 437"
 xmlns:xlink="http://www.w3.org/1999/xlink">
 <defs>
  <style type="text/css">
   <![CDATA[
    .fil1 {fill:#FEFEFE;fill-rule:nonzero}
    .fil0 {fill:#96C73A;fill-rule:nonzero}
   ]]>
  </style>
 </defs>
 <g id="Layer_x0020_1">
  <metadata id="CorelCorpID_0Corel-Layer"/>
  <g id="_2873623559248">
   <path class="fil0" d="M9 186l18 -48 7 0 19 48 -7 0 -5 -15 -20 0 -6 15 -6 0zm13 -20l17 0 -5 -13c-2,-4 -3,-8 -4,-10 0,3 -1,6 -2,9l-6 14z"/>
   <path id="1" class="fil0" d="M80 181c-2,2 -4,3 -6,4 -2,1 -4,1 -6,1 -4,0 -7,-1 -9,-2 -2,-2 -3,-5 -3,-8 0,-1 0,-3 1,-4 1,-2 2,-3 3,-4 1,0 3,-1 4,-1 1,-1 3,-1 5,-1 5,-1 9,-2 11,-2 0,-1 0,-2 0,-2 0,-2 -1,-4 -2,-5 -1,-1 -4,-2 -7,-2 -2,0 -4,1 -6,2 -1,1 -2,2 -3,5l-5 -1c0,-3 1,-5 2,-6 1,-2 3,-3 5,-4 3,0 5,-1 8,-1 3,0 6,1 8,1 1,1 3,2 4,3 0,1 1,2 1,4 1,1 1,3 1,5l0 8c0,6 0,9 0,10 0,2 1,3 2,5l-7 0c0,-2 -1,-3 -1,-5zm0 -13c-2,1 -6,2 -10,2 -2,1 -4,1 -5,2 -1,0 -2,1 -2,2 -1,0 -1,1 -1,2 0,2 1,3 2,4 1,1 3,2 5,2 2,0 4,-1 6,-2 2,-1 3,-2 4,-4 0,-1 1,-3 1,-6l0 -2z"/>
   <path id="2" class="fil0" d="M114 186l0 -48 18 0c3,0 6,0 8,1 3,1 4,3 6,5 1,2 1,4 1,6 0,2 0,4 -1,6 -1,2 -3,3 -5,4 3,1 5,2 6,5 2,2 3,4 3,7 0,2 -1,4 -2,6 -1,2 -2,3 -3,4 -2,1 -3,2 -5,3 -2,0 -5,1 -8,1l-18 0zm6 -28l10 0c3,0 5,0 6,-1 2,0 3,-1 4,-2 1,-1 1,-3 1,-4 0,-2 0,-3 -1,-4 -1,-2 -2,-2 -3,-3 -2,0 -4,-1 -7,-1l-10 0 0 15zm0 22l12 0c2,0 3,0 4,0 2,-1 3,-1 4,-2 1,0 2,-1 2,-2 1,-1 1,-3 1,-4 0,-2 0,-4 -1,-5 -1,-1 -2,-2 -4,-3 -2,0 -4,0 -7,0l-11 0 0 16z"/>
   <path id="3" class="fil0" d="M163 186l-5 0 0 -48 6 0 0 17c2,-3 5,-5 9,-5 2,0 4,1 6,2 2,0 3,2 5,3 1,2 2,4 3,6 0,2 1,4 1,7 0,6 -2,10 -5,13 -3,4 -6,5 -10,5 -4,0 -8,-1 -10,-5l0 5zm0 -18c0,4 1,7 2,9 2,3 4,5 7,5 3,0 5,-2 7,-4 2,-2 3,-5 3,-10 0,-4 -1,-8 -3,-10 -2,-2 -4,-3 -7,-3 -2,0 -4,1 -6,3 -2,3 -3,6 -3,10z"/>
   <path id="4" class="fil0" d="M248 169l6 1c-1,6 -3,10 -7,12 -3,3 -7,4 -12,4 -6,0 -10,-1 -13,-3 -3,-2 -6,-5 -7,-9 -2,-4 -3,-8 -3,-13 0,-5 1,-9 3,-13 2,-3 5,-6 8,-8 4,-2 8,-3 12,-3 4,0 9,1 12,4 3,2 5,6 7,10l-7 1c-1,-3 -2,-6 -4,-7 -3,-2 -5,-3 -8,-3 -4,0 -7,1 -10,3 -2,2 -4,4 -5,7 -1,3 -1,6 -1,9 0,4 0,8 2,11 1,3 3,5 5,7 3,1 5,2 8,2 4,0 7,-1 9,-3 2,-2 4,-5 5,-9z"/>
   <path id="5" class="fil0" d="M284 173l6 1c-1,4 -2,7 -5,9 -3,2 -6,3 -10,3 -4,0 -8,-1 -11,-4 -3,-3 -4,-8 -4,-14 0,-3 0,-7 2,-9 1,-3 3,-5 5,-7 3,-1 5,-2 8,-2 4,0 7,1 10,3 2,2 4,5 4,8l-5 1c-1,-2 -2,-4 -3,-5 -2,-1 -3,-2 -5,-2 -3,0 -6,1 -8,3 -1,2 -2,6 -2,10 0,5 1,8 2,10 2,2 4,4 7,4 3,0 5,-1 6,-3 2,-1 3,-3 3,-6z"/>
   <path id="6" class="fil0" d="M314 186l0 -48 16 0c4,0 7,0 9,1 3,0 5,1 7,3 2,2 4,5 6,8 1,3 1,7 1,11 0,4 0,7 -1,10 -1,3 -2,5 -3,7 -1,2 -3,3 -4,4 -2,1 -4,2 -6,3 -2,0 -5,1 -8,1l-17 0zm6 -6l10 0c4,0 6,0 8,-1 2,0 3,-1 4,-2 2,-2 3,-4 4,-6 0,-3 1,-6 1,-10 0,-5 -1,-8 -3,-11 -1,-3 -3,-5 -6,-6 -1,0 -4,-1 -8,-1l-10 0 0 37z"/>
   <path id="7" class="fil0" d="M384 186l0 -5c-2,4 -6,5 -10,5 -3,0 -5,0 -8,-2 -2,-1 -4,-4 -5,-6 -1,-3 -2,-6 -2,-10 0,-3 1,-6 2,-9 1,-3 3,-5 5,-7 2,-1 5,-2 8,-2 2,0 4,1 5,2 2,0 3,2 4,3l0 -17 6 0 0 48 -5 0zm-19 -18c0,5 1,8 3,10 2,2 4,4 7,4 2,0 4,-2 6,-4 2,-2 3,-5 3,-9 0,-5 -1,-8 -3,-11 -2,-2 -4,-3 -7,-3 -2,0 -4,1 -6,3 -2,2 -3,6 -3,10z"/>
   <polygon id="8" class="fil0" points="418,186 418,138 452,138 452,143 424,143 424,158 450,158 450,164 424,164 424,180 453,180 453,186 "/>
   <path id="9" class="fil0" d="M485 174l6 1c-1,4 -3,6 -5,8 -3,2 -6,3 -10,3 -5,0 -9,-1 -12,-4 -3,-3 -5,-8 -5,-13 0,-6 2,-11 5,-14 3,-3 7,-5 12,-5 4,0 8,2 11,5 3,3 4,8 4,13 0,1 0,1 0,2l-26 0c1,4 2,6 4,8 2,3 4,4 7,4 2,0 4,-1 5,-2 2,-1 3,-3 4,-6zm-19 -9l19 0c0,-3 -1,-5 -2,-7 -2,-2 -4,-3 -7,-3 -3,0 -5,1 -7,3 -2,2 -3,4 -3,7z"/>
   <polygon id="10" class="fil0" points="518,186 518,138 550,138 550,143 524,143 524,158 547,158 547,164 524,164 524,186 "/>
   <path id="11" class="fil0" d="M559 186l0 -30 -5 0 0 -5 5 0 0 -4c0,-2 0,-4 1,-5 0,-1 1,-3 3,-4 1,0 3,-1 6,-1 1,0 3,0 5,1l-1 5c-1,0 -2,-1 -3,-1 -2,0 -3,1 -4,2 -1,0 -1,2 -1,4l0 3 7 0 0 5 -7 0 0 30 -6 0z"/>
   <path id="12" class="fil0" d="M618 167l0 -6 20 0 0 18c-3,2 -6,4 -10,6 -3,1 -6,1 -10,1 -4,0 -9,-1 -13,-3 -3,-2 -6,-5 -8,-8 -2,-4 -3,-8 -3,-13 0,-5 1,-9 3,-13 2,-4 5,-7 8,-9 4,-2 8,-3 13,-3 3,0 6,1 9,2 3,1 5,2 7,4 1,2 2,5 3,8l-5 2c-1,-3 -2,-5 -3,-6 -1,-1 -3,-2 -5,-3 -2,-1 -4,-2 -6,-2 -3,0 -6,1 -8,2 -2,1 -3,2 -5,3 -1,2 -2,3 -3,5 -1,3 -2,6 -2,10 0,4 1,7 3,10 1,3 3,5 6,7 3,1 6,2 9,2 3,0 5,-1 8,-2 2,-1 4,-2 6,-3l0 -9 -14 0z"/>
   <path id="13" class="fil0" d="M645 188l6 1c0,2 1,3 2,4 2,1 4,2 6,2 3,0 5,-1 6,-2 2,-1 3,-2 3,-4 1,-2 1,-4 1,-8 -3,3 -6,5 -10,5 -5,0 -8,-2 -11,-6 -2,-3 -4,-7 -4,-12 0,-3 1,-6 2,-9 1,-3 3,-5 5,-6 3,-2 5,-3 8,-3 4,0 8,2 10,5l0 -4 6 0 0 30c0,5 -1,9 -2,11 -1,3 -3,4 -5,6 -2,1 -5,2 -9,2 -4,0 -7,-1 -10,-3 -2,-2 -4,-5 -4,-9zm5 -20c0,4 1,8 3,10 2,2 4,3 7,3 2,0 5,-1 7,-3 1,-2 2,-6 2,-10 0,-4 -1,-8 -3,-10 -1,-2 -4,-3 -6,-3 -3,0 -5,1 -7,3 -2,2 -3,6 -3,10z"/>
   <polygon id="14" class="fil0" points="722,186 722,138 728,138 728,158 753,158 753,138 759,138 759,186 753,186 753,163 728,163 728,186 "/>
   <path id="15" class="fil0" d="M769 186l0 -48 6 0 0 17c2,-3 6,-5 10,-5 2,0 5,1 7,2 1,1 3,2 4,4 0,2 1,4 1,8l0 22 -6 0 0 -22c0,-3 -1,-5 -2,-7 -1,-1 -3,-2 -5,-2 -2,0 -4,1 -5,2 -2,1 -3,2 -3,3 -1,2 -1,4 -1,7l0 19 -6 0z"/>
   <polygon id="16" class="fil0" points="826,186 826,138 832,138 832,186 "/>
   <path id="17" class="fil0" d="M843 145l0 -7 6 0 0 7 -6 0zm0 41l0 -35 6 0 0 35 -6 0z"/>
   <path id="18" class="fil0" d="M874 172l5 -1c1,4 1,6 2,8 2,1 3,2 5,2 2,0 3,-1 5,-1 1,-1 2,-2 2,-3 0,-2 1,-4 1,-6l0 -33 6 0 0 32c0,4 -1,7 -2,10 0,2 -2,4 -4,5 -2,1 -5,1 -7,1 -5,0 -8,-1 -10,-3 -2,-3 -3,-6 -3,-11z"/>
   <path id="19" class="fil0" d="M909 145l0 -7 6 0 0 7 -6 0zm-7 54l1 -5c1,0 2,0 3,0 1,0 2,0 3,-1 0,-1 0,-3 0,-6l0 -36 6 0 0 36c0,5 0,8 -1,9 -2,3 -4,4 -7,4 -2,0 -3,-1 -5,-1z"/>
   <polygon id="20" class="fil0" points="943,186 943,138 950,138 950,162 973,138 982,138 962,157 983,186 974,186 957,161 950,169 950,186 "/>
   <polygon id="21" class="fil0" points="987,186 987,138 993,138 993,165 1007,151 1015,151 1001,164 1016,186 1009,186 997,168 993,172 993,186 "/>
   <polygon id="22" class="fil0" points="1040,186 1040,138 1046,138 1046,180 1069,180 1069,186 "/>
   <polygon id="23" class="fil0" points="1076,186 1076,138 1082,138 1082,186 "/>
   <path id="24" class="fil0" d="M1110 186l0 -48 10 0 11 34c1,3 2,5 2,7 1,-2 2,-5 3,-8l11 -33 9 0 0 48 -6 0 0 -40 -14 40 -6 0 -14 -41 0 41 -6 0z"/>
   <path id="25" class="fil0" d="M1165 186l0 -35 5 0 0 5c1,-2 3,-3 5,-4 1,-1 3,-2 6,-2 2,0 4,1 6,2 2,1 3,2 3,4 3,-4 7,-6 11,-6 4,0 6,1 8,3 2,2 3,5 3,9l0 24 -6 0 0 -22c0,-3 0,-4 -1,-5 0,-1 -1,-2 -2,-3 -1,0 -2,-1 -3,-1 -3,0 -5,1 -6,3 -2,1 -3,4 -3,8l0 20 -5 0 0 -23c0,-2 -1,-4 -2,-6 -1,-1 -2,-2 -5,-2 -1,0 -3,1 -4,2 -2,0 -3,2 -3,3 -1,2 -1,5 -1,8l0 18 -6 0z"/>
   <polygon id="26" class="fil0" points="1240,186 1240,138 1246,138 1271,175 1271,138 1277,138 1277,186 1271,186 1246,148 1246,186 "/>
   <path id="27" class="fil0" d="M1287 186l0 -35 5 0 0 5c3,-4 7,-6 11,-6 3,0 4,1 6,1 2,1 3,2 4,3 1,2 2,3 2,5 0,1 0,3 0,5l0 22 -6 0 0 -21c0,-3 0,-5 0,-6 -1,-1 -2,-2 -3,-3 -1,0 -2,-1 -4,-1 -2,0 -4,1 -6,3 -2,1 -3,4 -3,9l0 19 -6 0z"/>
   <path id="28" class="fil0" d="M12 237c0,-8 2,-14 6,-19 5,-4 10,-6 17,-6 4,0 8,1 12,3 3,2 6,5 8,8 2,4 3,9 3,13 0,5 -1,9 -3,13 -2,4 -5,7 -9,9 -3,2 -7,3 -11,3 -5,0 -9,-1 -12,-3 -4,-3 -6,-6 -8,-9 -2,-4 -3,-8 -3,-12zm7 0c0,6 1,10 4,14 3,3 7,4 12,4 5,0 8,-1 12,-5 3,-3 4,-8 4,-14 0,-4 0,-7 -2,-10 -1,-3 -3,-5 -6,-7 -2,-1 -5,-2 -8,-2 -5,0 -8,2 -12,5 -3,3 -4,8 -4,15z"/>
   <path id="29" class="fil0" d="M63 243c0,-7 2,-11 5,-14 3,-3 7,-4 11,-4 5,0 9,1 12,4 3,4 4,8 4,13 0,5 0,8 -2,11 -1,2 -3,4 -6,6 -2,1 -5,2 -8,2 -5,0 -9,-2 -12,-5 -3,-3 -4,-7 -4,-13zm6 0c0,4 1,8 3,10 2,2 4,3 7,3 3,0 5,-1 7,-3 2,-3 3,-6 3,-10 0,-5 -1,-8 -3,-10 -2,-2 -4,-3 -7,-3 -3,0 -5,1 -7,3 -2,2 -3,5 -3,10z"/>
   <path id="30" class="fil0" d="M121 260l0 -48 18 0c4,0 6,0 8,1 2,0 4,1 6,2 1,1 2,3 3,5 1,2 2,4 2,6 0,4 -1,8 -4,10 -3,3 -7,5 -14,5l-12 0 0 19 -7 0zm7 -25l12 0c4,0 7,-1 9,-2 1,-2 2,-4 2,-7 0,-2 0,-3 -1,-5 -1,-1 -3,-2 -4,-3 -1,0 -3,0 -6,0l-12 0 0 17z"/>
   <path id="31" class="fil0" d="M165 273l0 -48 5 0 0 5c2,-2 3,-3 5,-4 1,-1 3,-1 5,-1 3,0 6,0 8,2 3,2 4,4 5,6 2,3 2,6 2,10 0,3 -1,6 -2,9 -1,3 -3,5 -5,7 -3,1 -5,2 -8,2 -2,0 -4,-1 -5,-1 -2,-1 -3,-2 -4,-4l0 17 -6 0zm5 -30c0,4 1,8 3,10 2,2 4,3 7,3 2,0 4,-1 6,-3 2,-2 3,-6 3,-11 0,-4 -1,-7 -3,-9 -1,-3 -4,-4 -6,-4 -3,0 -5,2 -7,4 -2,2 -3,6 -3,10z"/>
   <path id="32" class="fil0" d="M258 255c2,2 5,3 8,4l-2 5c-4,-1 -7,-3 -10,-6 -4,2 -8,3 -12,3 -4,0 -8,-1 -12,-3 -3,-2 -6,-5 -8,-9 -2,-4 -3,-8 -3,-13 0,-4 1,-9 3,-13 2,-3 5,-6 8,-8 4,-2 8,-3 12,-3 4,0 8,1 12,3 3,2 6,5 8,8 2,4 3,8 3,13 0,4 -1,8 -2,11 -1,3 -3,6 -5,8zm-14 -8c3,1 6,2 9,4 3,-3 5,-8 5,-15 0,-4 0,-7 -2,-10 -1,-3 -3,-5 -6,-7 -2,-1 -5,-2 -8,-2 -5,0 -9,2 -12,5 -3,3 -4,8 -4,14 0,6 1,11 4,15 3,3 7,4 12,4 2,0 4,0 6,-1 -2,-1 -4,-2 -6,-3l2 -4z"/>
   <path id="33" class="fil0" d="M295 273l0 -17c-1,2 -3,3 -4,4 -2,0 -4,1 -5,1 -5,0 -8,-2 -11,-5 -3,-3 -5,-8 -5,-14 0,-3 1,-6 2,-9 1,-3 3,-5 6,-6 2,-2 4,-2 7,-2 4,0 8,2 10,5l0 -5 5 0 0 48 -5 0zm-19 -30c0,4 1,7 3,10 2,2 4,3 7,3 2,0 5,-1 6,-3 2,-2 3,-5 3,-10 0,-4 -1,-8 -3,-10 -2,-3 -4,-4 -6,-4 -3,0 -5,1 -7,4 -2,2 -3,5 -3,10z"/>
   <path id="34" class="fil0" d="M329 260l0 -48 21 0c4,0 8,1 10,2 2,0 4,2 5,4 1,2 2,5 2,7 0,4 -1,7 -3,9 -2,2 -6,4 -10,4 1,1 3,2 3,3 2,1 4,4 6,6l8 13 -8 0 -6 -10c-2,-3 -4,-5 -5,-6 -1,-2 -2,-3 -3,-4 -1,0 -2,-1 -3,-1 -1,0 -2,0 -3,0l-8 0 0 21 -6 0zm6 -27l14 0c3,0 5,0 7,0 1,-1 2,-2 3,-3 1,-2 2,-3 2,-5 0,-2 -1,-4 -3,-5 -2,-2 -4,-2 -8,-2l-15 0 0 15z"/>
   <path id="35" class="fil0" d="M376 260l0 -35 5 0 0 6c2,-3 3,-4 4,-5 1,-1 3,-1 4,-1 2,0 4,0 6,2l-2 5c-2,-1 -3,-1 -4,-1 -2,0 -3,0 -4,1 -1,1 -2,2 -2,3 -1,2 -1,5 -1,7l0 18 -6 0z"/>
   <path id="36" class="fil0" d="M416 245l6 -1c0,3 0,5 1,6 2,2 3,3 5,4 2,1 5,1 8,1 2,0 4,0 6,-1 2,-1 3,-2 4,-3 1,-1 1,-2 1,-4 0,-1 0,-3 -1,-4 -1,-1 -2,-2 -4,-3 -1,0 -4,-1 -9,-2 -4,-1 -7,-2 -9,-3 -2,-1 -4,-3 -5,-4 -1,-2 -2,-4 -2,-6 0,-3 1,-5 2,-7 2,-2 4,-4 6,-5 3,-1 6,-1 9,-1 4,0 7,0 10,1 2,1 4,3 6,5 1,2 2,5 2,8l-6 0c0,-3 -1,-5 -3,-7 -2,-1 -5,-2 -9,-2 -3,0 -6,1 -8,2 -2,2 -3,3 -3,5 0,2 1,3 2,5 2,1 5,2 10,3 5,1 8,2 10,3 3,1 5,3 7,5 1,2 2,4 2,7 0,2 -1,5 -3,7 -1,2 -3,4 -6,5 -3,1 -6,2 -9,2 -4,0 -8,-1 -11,-2 -3,-1 -5,-3 -7,-6 -1,-2 -2,-5 -2,-8z"/>
   <path id="37" class="fil0" d="M459 250l6 -1c0,2 1,4 3,5 1,1 3,2 6,2 3,0 5,-1 6,-2 1,-1 2,-2 2,-3 0,-2 -1,-3 -2,-4 -1,0 -3,-1 -6,-2 -4,-1 -7,-2 -9,-2 -2,-1 -3,-2 -4,-4 -1,-1 -1,-3 -1,-4 0,-2 0,-3 1,-5 1,-1 2,-2 3,-3 1,-1 2,-1 4,-2 1,0 3,0 5,0 2,0 5,0 7,1 2,1 3,2 4,3 1,1 2,3 2,5l-5 1c-1,-2 -1,-3 -3,-4 -1,-1 -3,-1 -5,-1 -3,0 -4,0 -6,1 -1,1 -1,2 -1,3 0,1 0,1 0,2 1,1 2,1 3,2 0,0 2,0 5,1 4,1 7,2 8,3 2,1 3,2 4,3 1,1 2,3 2,5 0,2 -1,4 -2,5 -1,2 -3,3 -5,4 -2,1 -4,2 -7,2 -5,0 -8,-1 -10,-3 -3,-2 -4,-5 -5,-8z"/>
   <polygon id="38" class="fil0" points="525,260 525,218 509,218 509,212 547,212 547,218 531,218 531,260 "/>
   <path id="39" class="fil0" d="M565 255l1 5c-1,0 -3,1 -4,1 -2,0 -4,-1 -5,-1 -1,-1 -2,-2 -3,-3 0,-1 0,-4 0,-7l0 -20 -5 0 0 -5 5 0 0 -8 6 -4 0 12 5 0 0 5 -5 0 0 20c0,2 0,3 0,4 0,0 0,0 1,1 0,0 1,0 2,0 1,0 1,0 2,0z"/>
   <path id="40" class="fil0" d="M622 212l6 0 0 28c0,5 0,9 -2,11 -1,3 -3,5 -5,7 -3,2 -7,3 -12,3 -4,0 -8,-1 -10,-2 -3,-2 -5,-4 -7,-7 -1,-3 -1,-7 -1,-12l0 -28 6 0 0 28c0,4 0,7 1,9 1,2 2,4 4,5 2,1 4,1 7,1 5,0 8,-1 10,-3 2,-2 3,-6 3,-12l0 -28z"/>
   <path id="41" class="fil0" d="M660 260l0 -5c-2,4 -6,6 -10,6 -3,0 -4,-1 -6,-1 -2,-1 -3,-2 -4,-3 -1,-1 -2,-3 -2,-5 0,-1 0,-3 0,-5l0 -22 6 0 0 20c0,3 0,5 0,6 0,1 1,3 2,3 1,1 3,2 5,2 1,0 3,-1 5,-2 1,-1 2,-2 3,-3 1,-2 1,-4 1,-7l0 -19 6 0 0 35 -6 0z"/>
   <path id="42" class="fil0" d="M708 260l-19 -48 7 0 13 35c1,3 1,5 2,8 1,-3 2,-5 3,-8l13 -35 6 0 -19 48 -6 0z"/>
   <path id="43" class="fil0" d="M747 260l-13 -35 7 0 7 21c1,2 2,5 2,7 1,-2 1,-4 2,-6l8 -22 6 0 -13 35 -6 0z"/>
   <path id="44" class="fil0" d="M799 260l-13 -48 7 0 7 32c1,3 1,6 2,9 1,-5 2,-8 2,-8l9 -33 8 0 7 25c1,6 2,11 3,16 1,-3 2,-6 3,-10l7 -31 7 0 -14 48 -6 0 -10 -36c-1,-3 -1,-5 -1,-6 -1,2 -1,4 -2,6l-10 36 -6 0z"/>
   <path id="45" class="fil0" d="M859 260l-11 -35 7 0 5 20 2 8c0,0 1,-3 2,-7l5 -21 6 0 5 21 2 6 2 -7 6 -20 6 0 -11 35 -6 0 -6 -21 -1 -6 -7 27 -6 0z"/>
   <path id="46" class="fil0" d="M915 260l19 -25 -17 -23 8 0 9 13c1,2 3,4 3,5 1,-1 3,-3 4,-5l10 -13 7 0 -17 23 18 25 -8 0 -12 -17c-1,-1 -1,-2 -2,-3 -1,2 -2,3 -2,4l-12 16 -8 0z"/>
   <path id="47" class="fil0" d="M960 260l12 -18 -11 -17 7 0 5 9c1,1 2,2 3,3 1,-1 2,-2 2,-3l6 -9 7 0 -11 17 12 18 -7 0 -7 -11 -2 -2 -9 13 -7 0z"/>
   <path id="48" class="fil0" d="M1029 260l0 -20 -19 -28 8 0 9 15c2,2 4,5 5,8 2,-3 3,-5 5,-9l10 -14 7 0 -19 28 0 20 -6 0z"/>
   <path id="49" class="fil0" d="M1059 273l-1 -5c1,0 2,0 3,0 2,0 3,0 3,0 1,-1 2,-1 2,-2 1,-1 1,-2 2,-4 0,-1 0,-1 1,-2l-14 -35 7 0 7 20c1,3 2,6 2,8 1,-2 2,-5 3,-7l7 -21 6 0 -13 36c-1,3 -2,6 -3,7 -1,2 -2,4 -4,5 -1,1 -3,1 -5,1 -1,0 -2,0 -3,-1z"/>
   <path id="50" class="fil0" d="M1108 260l0 -6 24 -30c2,-3 3,-4 5,-6l-27 0 0 -6 35 0 0 6 -27 33 -3 3 30 0 0 6 -37 0z"/>
   <path id="51" class="fil0" d="M1148 260l0 -5 22 -25c-2,0 -5,0 -6,0l-14 0 0 -5 28 0 0 4 -19 22 -4 4c3,0 6,0 8,0l16 0 0 5 -31 0z"/>
   <path id="52" class="fil0" d="M34 409l-6 0 0 -37c-2,1 -3,2 -6,4 -2,1 -4,2 -6,3l0 -6c3,-1 6,-3 9,-6 2,-2 4,-4 5,-6l4 0 0 48z"/>
   <path id="53" class="fil0" d="M98 403l0 6 -32 0c0,-1 1,-3 1,-4 1,-2 2,-4 4,-6 2,-2 4,-5 8,-8 5,-4 8,-7 10,-10 2,-2 3,-5 3,-7 0,-2 -1,-4 -3,-6 -1,-1 -3,-2 -6,-2 -3,0 -5,1 -7,3 -2,1 -2,4 -3,7l-6 -1c1,-5 2,-8 5,-10 3,-3 6,-4 11,-4 5,0 8,1 11,4 3,2 4,6 4,9 0,2 -1,4 -1,6 -1,2 -2,4 -4,6 -2,2 -5,5 -9,8 -4,3 -6,5 -7,6 -1,1 -2,2 -2,3l23 0z"/>
   <path id="54" class="fil0" d="M123 396l6 0c0,3 1,5 3,7 2,1 4,2 6,2 3,0 5,-1 7,-3 2,-2 3,-4 3,-7 0,-3 -1,-5 -3,-7 -2,-1 -4,-2 -6,-2 -2,0 -3,0 -5,0l1 -5c0,0 1,0 1,0 2,0 5,0 7,-2 2,-1 3,-3 3,-6 0,-2 -1,-4 -2,-5 -2,-1 -4,-2 -6,-2 -2,0 -4,1 -6,2 -1,2 -2,4 -3,7l-6 -1c1,-4 3,-7 5,-10 3,-2 6,-3 10,-3 2,0 5,1 7,2 2,1 4,2 5,4 1,2 2,4 2,6 0,3 -1,4 -2,6 -1,2 -3,3 -5,4 3,1 5,2 7,4 1,2 2,5 2,8 0,4 -1,8 -5,11 -3,2 -6,4 -11,4 -4,0 -8,-1 -10,-4 -3,-2 -5,-6 -5,-10z"/>
   <path id="55" class="fil0" d="M197 409l0 -11 -21 0 0 -6 22 -31 5 0 0 31 6 0 0 6 -6 0 0 11 -6 0zm0 -17l0 -21 -15 21 15 0z"/>
   <path id="56" class="fil0" d="M234 397l6 -1c1,3 2,5 3,7 2,1 4,2 6,2 3,0 6,-1 7,-3 2,-2 3,-5 3,-9 0,-3 -1,-6 -2,-8 -2,-1 -5,-2 -8,-2 -2,0 -3,0 -5,1 -1,1 -3,2 -3,3l-6 -1 5 -24 23 0 0 6 -19 0 -2 12c3,-2 6,-3 9,-3 4,0 7,2 10,5 3,3 5,6 5,11 0,4 -2,8 -4,11 -3,4 -7,6 -13,6 -4,0 -8,-1 -10,-4 -3,-2 -5,-5 -5,-9z"/>
   <path id="57" class="fil0" d="M320 373l-6 0c0,-2 -1,-4 -2,-5 -2,-1 -4,-2 -6,-2 -2,0 -3,0 -5,1 -2,2 -3,4 -4,6 -1,3 -2,7 -2,11 1,-2 3,-3 5,-4 2,-1 4,-2 7,-2 4,0 7,1 10,4 2,3 4,7 4,12 0,3 -1,5 -2,8 -1,2 -3,4 -5,6 -3,1 -5,2 -8,2 -5,0 -9,-2 -12,-6 -3,-3 -5,-9 -5,-17 0,-10 2,-16 5,-20 3,-4 7,-6 12,-6 4,0 7,1 10,3 2,2 4,5 4,9zm-24 21c0,2 0,4 1,5 1,2 2,4 4,5 1,1 3,1 5,1 2,0 4,-1 6,-3 2,-2 3,-5 3,-8 0,-3 -1,-6 -3,-8 -2,-2 -4,-3 -6,-3 -3,0 -5,1 -7,3 -2,2 -3,4 -3,8z"/>
   <path id="58" class="fil0" d="M345 368l0 -6 31 0 0 4c-3,4 -6,8 -9,13 -3,6 -5,11 -7,17 -1,4 -2,8 -2,13l-6 0c0,-4 1,-8 2,-14 2,-5 4,-10 6,-15 3,-5 6,-9 9,-12l-24 0z"/>
   <path id="59" class="fil0" d="M410 383c-3,-1 -5,-2 -6,-4 -1,-1 -1,-3 -1,-6 0,-3 1,-6 3,-8 3,-3 6,-4 10,-4 4,0 8,1 10,4 3,2 4,5 4,9 0,2 0,4 -2,5 -1,2 -3,3 -5,4 3,1 5,3 7,5 1,2 2,4 2,7 0,4 -1,8 -4,11 -3,2 -7,4 -12,4 -4,0 -8,-2 -11,-4 -3,-3 -4,-7 -4,-11 0,-3 0,-5 2,-8 2,-2 4,-3 7,-4zm-1 -10c0,2 0,4 2,6 1,1 3,2 5,2 3,0 5,-1 6,-2 1,-2 2,-3 2,-5 0,-3 -1,-4 -2,-6 -2,-1 -3,-2 -6,-2 -2,0 -4,1 -5,2 -2,2 -2,3 -2,5zm-2 22c0,2 0,4 1,5 1,2 2,3 3,4 2,1 4,1 5,1 3,0 5,-1 7,-3 2,-1 3,-4 3,-7 0,-2 -1,-5 -3,-7 -2,-1 -4,-2 -7,-2 -3,0 -5,1 -7,2 -1,2 -2,5 -2,7z"/>
   <path id="60" class="fil0" d="M457 398l6 0c0,2 1,4 2,5 2,1 4,2 6,2 1,0 3,0 4,-1 2,-1 3,-2 4,-4 1,-1 1,-3 2,-5 0,-2 1,-5 1,-7 0,-1 0,-1 0,-1 -1,1 -3,3 -5,4 -2,1 -4,2 -7,2 -4,0 -7,-2 -10,-4 -2,-3 -4,-7 -4,-12 0,-5 2,-9 5,-11 2,-3 6,-5 10,-5 3,0 6,1 9,3 2,1 4,4 6,7 1,3 2,7 2,13 0,6 -1,11 -2,15 -2,3 -4,6 -6,8 -3,2 -6,3 -9,3 -4,0 -7,-1 -10,-3 -2,-2 -3,-5 -4,-9zm24 -21c0,-3 -1,-6 -3,-8 -1,-2 -4,-3 -6,-3 -3,0 -5,1 -7,3 -2,2 -3,5 -3,8 0,3 1,6 3,8 2,2 4,3 7,3 2,0 5,-1 6,-3 2,-2 3,-5 3,-8z"/>
   <path id="61" class="fil0" d="M512 385c0,-5 0,-10 2,-13 1,-4 2,-6 5,-8 2,-2 5,-3 8,-3 3,0 5,1 7,2 2,1 4,2 5,4 1,2 2,4 3,7 1,3 1,7 1,11 0,6 -1,11 -2,14 -1,4 -3,6 -5,8 -2,2 -5,3 -9,3 -4,0 -8,-2 -10,-5 -4,-4 -5,-11 -5,-20zm6 1c0,7 1,13 3,15 1,3 4,4 6,4 3,0 5,-1 7,-4 2,-2 3,-8 3,-15 0,-8 -1,-14 -3,-16 -2,-3 -4,-4 -7,-4 -2,0 -5,1 -6,3 -2,3 -3,9 -3,17z"/>
   <path id="62" class="fil0" d="M724 381l0 -7 7 0 0 7 -7 0zm0 28l0 -7 7 0 0 7c0,3 -1,4 -1,6 -1,2 -3,3 -5,4l-1 -3c1,-1 2,-1 3,-2 0,-1 0,-3 1,-5l-4 0z"/>
   <path id="63" class="fil0" d="M766 392l9 15 -5 0 -10 -15 10 -15 5 0 -9 15zm13 0l9 15 -5 0 -11 -15 11 -15 5 0 -9 15z"/>
   <path id="64" class="fil0" d="M837 392l-9 -15 5 0 10 15 -10 15 -5 0 9 -15zm-13 0l-9 -15 5 0 11 15 -11 15 -5 0 9 -15z"/>
   <path id="65" class="fil0" d="M872 361l6 0 23 37 0 -37 6 0 0 48 -6 0 -23 -37 0 37 -6 0 0 -48zm40 22c0,-3 1,-6 3,-9 2,-2 5,-3 9,-3 3,0 6,1 8,3 2,3 3,6 3,10 0,4 -1,7 -3,9 -2,3 -5,4 -9,4 -3,0 -5,-1 -8,-3 -2,-2 -3,-6 -3,-11zm5 1c0,3 1,5 2,6 1,2 3,2 4,2 2,0 3,0 5,-2 1,-1 2,-3 2,-6 0,-3 -1,-5 -2,-7 -2,-1 -3,-2 -5,-2 -1,0 -3,1 -4,2 -1,2 -2,4 -2,7zm-5 16l23 0 0 5 -23 0 0 -5z"/>
   <polygon id="66" class="fil0" points="565,410 578,361 583,361 569,410 "/>
   <polygon id="67" class="fil0" points="585,395 585,389 603,389 603,395 "/>
   <polygon id="68" class="fil0" points="641,401 641,388 628,388 628,383 641,383 641,370 646,370 646,383 659,383 659,388 646,388 646,401 "/>
   <path id="69" class="fil0" d="M687 409l0 -7 7 0 0 7c0,3 -1,4 -1,6 -1,2 -3,3 -5,4l-1 -3c1,-1 2,-1 3,-2 0,-1 0,-3 1,-5l-4 0z"/>
   <path id="70" class="fil0" d="M973 416l0 -6c-3,0 -5,-1 -7,-2 -2,-1 -3,-2 -5,-4 -1,-3 -2,-5 -2,-8l6 -1c0,3 1,5 2,7 2,2 4,3 6,3l0 -18c-2,-1 -5,-2 -7,-3 -2,-1 -4,-3 -5,-5 -1,-2 -1,-4 -1,-6 0,-4 1,-8 4,-10 2,-2 5,-3 9,-3l0 -3 4 0 0 3c3,0 6,1 8,3 2,2 4,5 4,9l-6 0c0,-2 -1,-4 -2,-5 -1,-1 -3,-2 -4,-2l0 17c3,0 4,1 5,1 2,1 4,2 5,3 1,1 2,3 3,4 0,2 0,4 0,5 0,5 -1,8 -3,11 -3,2 -6,4 -10,4l0 6 -4 0zm0 -51c-2,0 -4,1 -5,2 -2,2 -2,4 -2,6 0,2 0,3 1,5 2,1 3,2 6,3l0 -16zm4 40c2,0 4,-1 5,-3 2,-2 2,-4 2,-6 0,-2 0,-4 -1,-5 -1,-2 -3,-3 -6,-3l0 17z"/>
   <path id="71" class="fil0" d="M1016 373c0,-4 1,-7 3,-9 1,-2 4,-3 7,-3 3,0 5,1 7,3 2,2 3,5 3,9 0,4 -1,7 -3,9 -2,3 -4,4 -7,4 -3,0 -5,-1 -7,-4 -2,-2 -3,-5 -3,-9zm10 -8c-1,0 -2,0 -3,1 -1,2 -2,4 -2,7 0,3 1,6 2,7 1,1 2,2 3,2 2,0 3,-1 4,-2 1,-1 1,-4 1,-7 0,-3 0,-5 -1,-7 -1,-1 -2,-1 -4,-1zm0 46l26 -50 5 0 -26 50 -5 0zm21 -13c0,-4 1,-6 2,-9 2,-2 5,-3 8,-3 3,0 5,1 7,3 2,2 3,5 3,9 0,4 -1,7 -3,10 -2,2 -4,3 -7,3 -3,0 -5,-1 -7,-3 -2,-3 -3,-6 -3,-10zm10 -8c-2,0 -3,0 -4,2 -1,1 -1,3 -1,6 0,3 0,6 1,7 1,1 3,2 4,2 1,0 3,-1 4,-2 1,-1 1,-4 1,-7 0,-3 0,-5 -1,-6 -1,-2 -3,-2 -4,-2z"/>
   <polygon id="72" class="fil0" points="1098,387 1092,387 1103,361 1108,361 1119,387 1113,387 1105,367 "/>
   <path id="73" class="fil0" d="M1153 403c-2,3 -4,4 -7,5 -2,1 -4,2 -7,2 -5,0 -9,-2 -12,-5 -2,-3 -3,-6 -3,-9 0,-3 1,-6 3,-8 2,-2 5,-5 8,-6 -2,-3 -3,-5 -4,-6 -1,-2 -1,-3 -1,-5 0,-3 1,-5 3,-7 3,-2 5,-3 9,-3 3,0 6,1 8,3 2,2 3,4 3,7 0,4 -3,8 -9,11l8 11c1,-2 2,-4 3,-6l6 1c-1,4 -3,7 -4,10 2,3 4,5 7,7l-4 5c-2,-1 -5,-4 -7,-7zm-12 -24c2,-2 4,-3 5,-4 1,-1 1,-3 1,-4 0,-2 -1,-3 -2,-4 -1,-1 -2,-2 -4,-2 -1,0 -2,1 -3,2 -2,1 -2,2 -2,4 0,0 0,1 0,2 1,1 1,2 2,3l3 3zm8 20l-11 -14c-3,2 -5,4 -6,6 -1,1 -2,3 -2,4 0,2 1,4 3,6 1,3 3,4 6,4 2,0 4,-1 6,-2 1,-1 3,-2 4,-4z"/>
   <path id="74" class="fil0" d="M1186 370l2 -5c3,2 6,3 7,4 0,-4 0,-7 -1,-8l5 0c0,2 0,4 -1,8 3,-2 5,-3 8,-4l2 5c-3,1 -6,2 -8,2 1,1 3,3 5,6l-4 3c-1,-2 -3,-4 -4,-7 -2,3 -3,5 -4,7l-4 -3c2,-3 4,-5 5,-6 -3,-1 -5,-1 -8,-2z"/>
   <path id="75" class="fil0" d="M1244 423c-3,-4 -6,-9 -8,-14 -2,-6 -3,-11 -3,-17 0,-5 0,-10 2,-15 2,-6 5,-11 9,-16l4 0c-2,4 -4,7 -5,9 -1,3 -2,6 -3,10 -1,4 -1,8 -1,12 0,10 3,21 9,31l-4 0z"/>
   <path id="76" class="fil0" d="M1278 423l-5 0c7,-10 10,-21 10,-31 0,-4 0,-8 -1,-12 -1,-4 -2,-7 -3,-10 -1,-2 -3,-5 -6,-9l5 0c4,5 7,10 9,16 1,5 2,10 2,15 0,6 -1,11 -3,17 -3,5 -5,10 -8,14z"/>
   <path class="fil1" d="M8 45l0 -42 8 0 10 30c1,2 2,4 2,6 0,-2 1,-4 2,-7l10 -29 8 0 0 42 -6 0 0 -35 -12 35 -5 0 -12 -36 0 36 -5 0z"/>
   <path id="1" class="fil1" d="M54 30c0,-6 1,-10 5,-13 2,-2 5,-3 9,-3 4,0 8,1 10,4 3,3 4,6 4,11 0,4 0,7 -2,9 -1,3 -2,4 -5,6 -2,1 -4,1 -7,1 -4,0 -8,-1 -10,-4 -3,-2 -4,-6 -4,-11zm5 0c0,4 1,6 3,8 1,2 4,3 6,3 3,0 5,-1 6,-3 2,-2 3,-5 3,-9 0,-3 -1,-6 -3,-8 -1,-2 -3,-3 -6,-3 -2,0 -5,1 -6,3 -2,2 -3,5 -3,9z"/>
   <path id="2" class="fil1" d="M88 45l0 -30 5 0 0 4c2,-3 5,-5 9,-5 2,0 4,0 5,1 2,1 3,1 4,2 1,1 1,3 2,4 0,1 0,3 0,5l0 19 -5 0 0 -19c0,-2 -1,-3 -1,-4 0,-1 -1,-2 -2,-3 -1,0 -2,-1 -4,-1 -2,0 -4,1 -5,2 -2,2 -3,4 -3,8l0 17 -5 0z"/>
   <path id="3" class="fil1" d="M132 40l1 5c-2,0 -3,0 -4,0 -2,0 -4,0 -5,-1 -1,0 -1,-1 -2,-2 0,-1 0,-3 0,-6l0 -18 -4 0 0 -3 4 0 0 -8 5 -3 0 11 5 0 0 3 -5 0 0 18c0,2 0,3 0,3 0,0 0,1 1,1 0,0 1,0 2,0 0,0 1,0 2,0z"/>
   <path id="4" class="fil1" d="M135 36l5 -1c0,2 1,4 2,5 2,1 3,1 6,1 2,0 4,0 5,-1 1,-1 2,-2 2,-4 0,-1 -1,-2 -2,-2 -1,-1 -2,-1 -5,-2 -4,-1 -6,-2 -8,-3 -1,0 -2,-1 -3,-2 -1,-2 -1,-3 -1,-4 0,-2 0,-3 1,-4 0,-1 1,-2 2,-3 1,-1 2,-1 3,-2 2,0 3,0 5,0 2,0 4,0 6,1 2,1 3,2 4,3 1,1 1,2 2,4l-5 1c0,-1 -1,-3 -2,-4 -1,0 -3,-1 -5,-1 -2,0 -4,0 -5,1 -1,1 -1,2 -1,3 0,1 0,1 0,2 1,0 1,1 2,1 1,0 2,1 5,1 3,1 6,2 7,3 2,0 3,1 4,2 1,2 1,3 1,5 0,2 -1,3 -2,5 -1,1 -2,2 -4,3 -2,1 -4,1 -6,1 -4,0 -7,0 -9,-2 -2,-2 -4,-4 -4,-7z"/>
   <path id="5" class="fil1" d="M187 35l5 1c-1,3 -2,5 -5,7 -2,2 -5,2 -8,2 -5,0 -8,-1 -11,-4 -2,-2 -4,-6 -4,-11 0,-5 2,-9 4,-12 3,-3 6,-4 10,-4 4,0 8,1 10,4 3,3 4,7 4,12 0,0 0,0 0,1l-22 0c0,3 1,6 2,8 2,1 4,2 7,2 2,0 3,0 5,-1 1,-1 2,-3 3,-5zm-17 -8l17 0c0,-3 -1,-5 -2,-6 -2,-2 -4,-3 -7,-3 -2,0 -4,1 -5,2 -2,2 -3,4 -3,7z"/>
   <path id="6" class="fil1" d="M198 45l0 -30 5 0 0 4c1,-2 2,-3 3,-4 1,-1 2,-1 4,-1 1,0 3,0 5,1l-2 5c-1,0 -2,-1 -4,-1 -1,0 -2,1 -3,1 -1,1 -1,2 -2,3 0,2 0,4 0,6l0 16 -6 0z"/>
   <path id="7" class="fil1" d="M218 45l0 -30 4 0 0 4c2,-2 3,-3 4,-4 1,-1 2,-1 3,-1 2,0 3,0 5,1l-2 5c-1,0 -2,-1 -3,-1 -1,0 -2,1 -3,1 -1,1 -2,2 -2,3 -1,2 -1,4 -1,6l0 16 -5 0z"/>
   <path id="8" class="fil1" d="M257 41c-2,2 -4,3 -5,3 -2,1 -4,1 -6,1 -3,0 -6,0 -8,-2 -2,-2 -2,-4 -2,-6 0,-2 0,-3 1,-4 0,-1 1,-2 2,-3 1,-1 3,-1 4,-2 1,0 2,0 4,-1 5,0 8,-1 10,-1 0,-1 0,-2 0,-2 0,-2 -1,-3 -2,-4 -1,-1 -3,-2 -6,-2 -2,0 -4,1 -5,1 -1,1 -2,3 -3,5l-5 -1c1,-2 2,-4 3,-5 1,-1 2,-2 4,-3 2,-1 5,-1 7,-1 3,0 5,0 6,1 2,0 3,1 4,2 1,1 1,2 2,4 0,0 0,2 0,4l0 7c0,5 0,8 0,9 0,1 1,3 1,4l-5 0c0,-1 -1,-3 -1,-4zm0 -11c-2,0 -5,1 -9,2 -2,0 -3,0 -4,1 -1,0 -2,0 -2,1 -1,1 -1,2 -1,3 0,1 1,2 2,3 1,1 2,1 4,1 2,0 4,0 5,-1 2,-1 3,-2 4,-3 0,-2 1,-3 1,-6l0 -1z"/>
   <path id="9" class="fil1" d="M281 40l1 5c-2,0 -3,0 -4,0 -2,0 -4,0 -5,-1 -1,0 -1,-1 -2,-2 0,-1 0,-3 0,-6l0 -18 -4 0 0 -3 4 0 0 -8 5 -3 0 11 5 0 0 3 -5 0 0 18c0,2 0,3 0,3 0,0 0,1 1,1 0,0 1,0 2,0 0,0 1,0 2,0z"/>
   <polygon id="10" class="fil1" points="303,45 303,3 308,3 308,40 329,40 329,45 "/>
   <path id="11" class="fil1" d="M335 9l0 -6 5 0 0 6 -5 0zm0 36l0 -30 5 0 0 30 -5 0z"/>
   <path id="12" class="fil1" d="M347 47l5 1c0,2 0,3 1,3 2,1 3,2 6,2 2,0 4,-1 5,-2 1,-1 2,-2 3,-4 0,-1 0,-3 0,-6 -2,2 -5,4 -8,4 -5,0 -8,-2 -10,-5 -2,-3 -3,-6 -3,-10 0,-3 0,-6 1,-8 1,-3 3,-5 5,-6 2,-1 4,-2 7,-2 3,0 6,1 8,4l0 -3 5 0 0 26c0,4 0,8 -1,10 -1,2 -3,3 -5,4 -2,1 -4,2 -7,2 -4,0 -7,-1 -9,-2 -2,-2 -3,-4 -3,-8zm4 -18c0,4 1,7 2,9 2,2 4,3 6,3 2,0 4,-1 6,-3 2,-2 2,-5 2,-9 0,-3 0,-6 -2,-8 -2,-2 -4,-3 -6,-3 -2,0 -4,1 -6,3 -1,2 -2,4 -2,8z"/>
   <path id="13" class="fil1" d="M380 45l0 -42 5 0 0 15c2,-3 5,-4 9,-4 2,0 4,0 6,1 2,1 3,2 3,4 1,1 2,4 2,7l0 19 -6 0 0 -19c0,-3 0,-5 -1,-6 -1,-1 -3,-2 -5,-2 -1,0 -3,1 -4,1 -2,1 -2,2 -3,4 -1,1 -1,3 -1,5l0 17 -5 0z"/>
   <path id="14" class="fil1" d="M424 40l0 5c-1,0 -2,0 -4,0 -1,0 -3,0 -4,-1 -1,0 -2,-1 -2,-2 -1,-1 -1,-3 -1,-6l0 -18 -4 0 0 -3 4 0 0 -8 5 -3 0 11 6 0 0 3 -6 0 0 18c0,2 0,3 1,3 0,0 0,1 1,1 0,0 1,0 1,0 1,0 2,0 3,0z"/>
   <polygon id="15" class="fil1" points="445,45 445,3 451,3 473,36 473,3 478,3 478,45 473,45 451,12 451,45 "/>
   <path id="16" class="fil1" d="M485 30c0,-6 2,-10 5,-13 2,-2 5,-3 9,-3 4,0 8,1 10,4 3,3 4,6 4,11 0,4 0,7 -1,9 -2,3 -3,4 -6,6 -2,1 -4,1 -7,1 -4,0 -7,-1 -10,-4 -3,-2 -4,-6 -4,-11zm5 0c0,4 1,6 3,8 1,2 4,3 6,3 3,0 5,-1 7,-3 1,-2 2,-5 2,-9 0,-3 -1,-6 -2,-8 -2,-2 -4,-3 -7,-3 -2,0 -5,1 -6,3 -2,2 -3,5 -3,9z"/>
   <path id="17" class="fil1" d="M519 45l0 -30 5 0 0 4c1,-2 2,-3 3,-4 1,-1 2,-1 3,-1 2,0 4,0 6,1l-2 5c-1,0 -3,-1 -4,-1 -1,0 -2,1 -3,1 -1,1 -1,2 -2,3 0,2 -1,4 -1,6l0 16 -5 0z"/>
   <path id="18" class="fil1" d="M539 45l0 -30 4 0 0 4c1,-2 3,-3 4,-4 2,-1 4,-1 6,-1 2,0 4,0 5,1 1,1 2,2 3,4 2,-3 6,-5 9,-5 3,0 6,1 7,2 2,2 3,5 3,8l0 21 -5 0 0 -19c0,-2 0,-4 -1,-5 0,-1 -1,-1 -2,-2 -1,0 -2,-1 -3,-1 -2,0 -4,1 -5,2 -1,2 -2,4 -2,7l0 18 -5 0 0 -20c0,-2 -1,-4 -2,-5 0,-1 -2,-2 -4,-2 -1,0 -2,1 -4,1 -1,1 -2,2 -2,4 -1,1 -1,3 -1,6l0 16 -5 0z"/>
   <path id="19" class="fil1" d="M607 41c-2,2 -4,3 -5,3 -2,1 -4,1 -6,1 -3,0 -6,0 -8,-2 -2,-2 -2,-4 -2,-6 0,-2 0,-3 1,-4 0,-1 1,-2 2,-3 1,-1 3,-1 4,-2 1,0 2,0 5,-1 4,0 7,-1 9,-1 0,-1 0,-2 0,-2 0,-2 -1,-3 -2,-4 -1,-1 -3,-2 -6,-2 -2,0 -4,1 -5,1 -1,1 -2,3 -3,5l-5 -1c1,-2 2,-4 3,-5 1,-1 2,-2 4,-3 2,-1 5,-1 7,-1 3,0 5,0 6,1 2,0 3,1 4,2 1,1 1,2 2,4 0,0 0,2 0,4l0 7c0,5 0,8 0,9 0,1 1,3 1,4l-5 0c0,-1 -1,-3 -1,-4zm0 -11c-2,0 -5,1 -9,2 -2,0 -3,0 -4,1 -1,0 -2,0 -2,1 -1,1 -1,2 -1,3 0,1 1,2 2,3 1,1 2,1 4,1 2,0 4,0 5,-1 2,-1 3,-2 4,-3 0,-2 1,-3 1,-6l0 -1z"/>
   <polygon id="20" class="fil1" points="620,45 620,3 625,3 625,45 "/>
  </g>
 </g>
</svg>
