<?xml version="1.0" encoding="UTF-8"?>
<!DOCTYPE svg PUBLIC "-//W3C//DTD SVG 1.1//EN" "http://www.w3.org/Graphics/SVG/1.1/DTD/svg11.dtd">
<!-- Creator: CorelDRAW X8 -->
<svg xmlns="http://www.w3.org/2000/svg" xml:space="preserve" width="2126px" height="1311px" version="1.1" style="shape-rendering:geometricPrecision; text-rendering:geometricPrecision; image-rendering:optimizeQuality; fill-rule:evenodd; clip-rule:evenodd"
viewBox="0 0 2126 1311"
 xmlns:xlink="http://www.w3.org/1999/xlink">
 <defs>
  <style type="text/css">
   <![CDATA[
    .str1 {stroke:#B2B3B3;stroke-width:2.36222}
    .str2 {stroke:#9D9E9E;stroke-width:2.36222}
    .str0 {stroke:#B2B3B3;stroke-width:1.18111}
    .fil1 {fill:none}
    .fil2 {fill:#B2B3B3}
    .fil3 {fill:#B2B3B3;fill-rule:nonzero}
    .fil4 {fill:#9D9E9E;fill-rule:nonzero}
    .fil0 {fill:#022635;fill-rule:nonzero}
    .fil5 {fill:#EBECEC;fill-opacity:0.721569}
   ]]>
  </style>
 </defs>
 <g id="Layer_x0020_1">
  <metadata id="CorelCorpID_0Corel-Layer"/>
  <g id="_2873626274592">
   <path class="fil0" d="M12 1275l5 -1c0,2 1,4 3,6 2,2 4,3 7,3 3,0 5,-1 7,-2 1,-2 2,-3 2,-6 0,-2 -1,-4 -2,-5 -2,-1 -5,-2 -8,-2l-2 0 0 -5c2,0 4,0 6,0 1,-1 2,-1 3,-3 1,-1 2,-2 2,-4 0,-2 -1,-3 -2,-4 -2,-2 -4,-2 -6,-2 -2,0 -4,0 -5,1 -2,1 -3,3 -4,4 0,2 0,3 0,4l-6 -1c2,-9 6,-13 15,-13 4,0 7,1 10,3 2,2 3,5 3,8 0,4 -2,7 -5,9 2,1 4,2 5,4 1,1 2,4 2,6 0,4 -1,7 -4,9 -3,3 -6,4 -11,4 -8,0 -13,-4 -15,-13z"/>
   <path id="1" class="fil0" d="M68 1283c-2,2 -4,3 -5,4 -2,0 -4,1 -6,1 -3,0 -6,-1 -8,-3 -1,-1 -2,-3 -2,-6 0,-1 0,-3 1,-4 0,-1 1,-2 2,-3 1,-1 3,-1 4,-2 1,0 3,0 5,0 4,-1 7,-1 9,-2 0,-1 0,-1 0,-1 0,-2 -1,-4 -2,-5 -1,-1 -3,-2 -6,-2 -2,0 -4,1 -5,2 -1,1 -2,2 -2,4l-5 0c0,-3 1,-4 2,-6 1,-1 2,-2 4,-3 2,0 5,-1 7,-1 3,0 5,1 7,1 1,1 2,2 3,2 1,1 1,3 2,4 0,1 0,2 0,5l0 6c0,5 0,8 0,9 0,2 1,3 2,4l-6 0c0,-1 -1,-2 -1,-4zm0 -11c-2,1 -5,1 -9,2 -2,0 -3,1 -4,1 -1,0 -2,1 -2,2 -1,0 -1,1 -1,2 0,1 1,2 2,3 1,1 2,2 4,2 2,0 4,-1 6,-2 1,0 2,-2 3,-3 0,-1 1,-3 1,-5l0 -2z"/>
   <polygon id="2" class="fil0" points="81,1257 98,1257 98,1261 86,1261 86,1287 81,1287 "/>
   <path id="3" class="fil0" d="M121 1283c-2,2 -4,3 -6,4 -2,0 -4,1 -6,1 -3,0 -5,-1 -7,-3 -2,-1 -3,-3 -3,-6 0,-1 0,-3 1,-4 1,-1 2,-2 3,-3 1,-1 2,-1 3,-2 1,0 3,0 5,0 4,-1 7,-1 9,-2 0,-1 0,-1 0,-1 0,-2 0,-4 -1,-5 -2,-1 -4,-2 -6,-2 -3,0 -4,1 -5,2 -2,1 -2,2 -3,4l-5 0c0,-3 1,-4 2,-6 1,-1 3,-2 5,-3 2,0 4,-1 7,-1 2,0 4,1 6,1 2,1 3,2 4,2 0,1 1,3 1,4 0,1 0,2 0,5l0 6c0,5 0,8 1,9 0,2 0,3 1,4l-5 0c-1,-1 -1,-2 -1,-4zm-1 -11c-2,1 -4,1 -8,2 -2,0 -4,1 -5,1 -1,0 -1,1 -2,2 0,0 0,1 0,2 0,1 0,2 1,3 1,1 3,2 5,2 2,0 3,-1 5,-2 1,0 3,-2 3,-3 1,-1 1,-3 1,-5l0 -2z"/>
   <path id="4" class="fil0" d="M136 1257l24 0 0 30 -6 0 0 -26 -13 0 0 15c0,4 0,6 0,7 -1,1 -1,2 -2,3 -1,1 -3,1 -5,1 -1,0 -2,0 -4,0l0 -4 2 0c1,0 2,0 3,-1 0,0 0,0 1,-1 0,0 0,-2 0,-4l0 -20z"/>
   <path id="5" class="fil0" d="M167 1257l5 0 0 12 7 0c4,0 7,1 10,2 2,2 3,4 3,7 0,2 -1,5 -3,6 -2,2 -5,3 -9,3l-13 0 0 -30zm5 26l6 0c3,0 5,0 7,-1 1,-1 2,-2 2,-4 0,-1 -1,-2 -2,-3 -1,-2 -3,-2 -7,-2l-6 0 0 10z"/>
   <polygon id="6" class="fil0" points="198,1257 203,1257 203,1269 217,1269 217,1257 222,1257 222,1287 217,1287 217,1274 203,1274 203,1287 198,1287 "/>
   <path id="7" class="fil0" d="M250 1283c-2,2 -4,3 -6,4 -2,0 -3,1 -5,1 -4,0 -6,-1 -8,-3 -2,-1 -3,-3 -3,-6 0,-1 0,-3 1,-4 1,-1 2,-2 3,-3 1,-1 2,-1 4,-2 1,0 2,0 4,0 4,-1 7,-1 9,-2 0,-1 0,-1 0,-1 0,-2 0,-4 -1,-5 -1,-1 -3,-2 -6,-2 -2,0 -4,1 -5,2 -2,1 -2,2 -3,4l-5 0c0,-3 1,-4 2,-6 1,-1 3,-2 5,-3 2,0 4,-1 7,-1 2,0 4,1 6,1 2,1 3,2 4,2 0,1 1,3 1,4 0,1 0,2 0,5l0 6c0,5 1,8 1,9 0,2 0,3 1,4l-5 0c-1,-1 -1,-2 -1,-4zm-1 -11c-2,1 -4,1 -8,2 -2,0 -4,1 -5,1 0,0 -1,1 -2,2 0,0 0,1 0,2 0,1 0,2 1,3 1,1 3,2 5,2 2,0 3,-1 5,-2 2,0 3,-2 3,-3 1,-1 1,-3 1,-5l0 -2z"/>
   <path id="8" class="fil0" d="M278 1257l6 0 0 13c1,0 2,0 3,-1 1,-1 2,-2 3,-5 1,-3 2,-4 2,-5 1,-1 2,-1 3,-2 0,0 2,0 4,0l1 0 0 4 -2 0c-1,0 -2,0 -2,1 -1,0 -1,1 -2,3 -1,2 -2,4 -2,5 -1,0 -2,1 -3,2 2,0 4,2 6,6l6 9 -6 0 -5 -9c-2,-2 -3,-3 -3,-4 -1,-1 -2,-1 -3,-1l0 14 -6 0 0 -30z"/>
   <path id="9" class="fil0" d="M303 1272c0,-6 1,-10 4,-12 3,-3 6,-4 10,-4 4,0 8,2 10,4 3,3 4,7 4,12 0,3 0,7 -2,9 -1,2 -2,4 -5,5 -2,1 -4,2 -7,2 -4,0 -8,-2 -10,-4 -3,-3 -4,-7 -4,-12zm5 0c0,4 1,7 3,9 1,2 3,3 6,3 3,0 5,-1 6,-3 2,-2 3,-5 3,-9 0,-4 -1,-7 -3,-9 -1,-2 -3,-3 -6,-3 -3,0 -5,1 -6,3 -2,2 -3,5 -3,9z"/>
   <polygon id="10" class="fil0" points="337,1257 345,1257 353,1281 362,1257 369,1257 369,1287 364,1287 364,1263 355,1287 351,1287 342,1262 342,1287 337,1287 "/>
   <polygon id="11" class="fil0" points="377,1257 401,1257 401,1287 396,1287 396,1261 382,1261 382,1287 377,1287 "/>
   <path id="12" class="fil0" d="M407 1272c0,-6 1,-10 5,-12 2,-3 5,-4 9,-4 4,0 8,2 10,4 3,3 4,7 4,12 0,3 0,7 -1,9 -2,2 -3,4 -6,5 -2,1 -4,2 -7,2 -4,0 -8,-2 -10,-4 -3,-3 -4,-7 -4,-12zm5 0c0,4 1,7 3,9 1,2 4,3 6,3 3,0 5,-1 7,-3 1,-2 2,-5 2,-9 0,-4 -1,-7 -3,-9 -1,-2 -3,-3 -6,-3 -2,0 -5,1 -6,3 -2,2 -3,5 -3,9z"/>
   <polygon id="13" class="fil0" points="441,1257 446,1257 446,1269 461,1269 461,1257 466,1257 466,1287 461,1287 461,1274 446,1274 446,1287 441,1287 "/>
   <path id="14" class="fil0" d="M472 1272c0,-6 1,-10 4,-12 3,-3 6,-4 10,-4 4,0 7,2 10,4 3,3 4,7 4,12 0,3 -1,7 -2,9 -1,2 -3,4 -5,5 -2,1 -5,2 -7,2 -4,0 -8,-2 -10,-4 -3,-3 -4,-7 -4,-12zm5 0c0,4 1,7 2,9 2,2 4,3 7,3 2,0 4,-1 6,-3 2,-2 3,-5 3,-9 0,-4 -1,-7 -3,-9 -2,-2 -4,-3 -6,-3 -3,0 -5,1 -7,3 -1,2 -2,5 -2,9z"/>
   <path id="15" class="fil0" d="M506 1257l12 0c3,0 5,0 6,1 2,0 3,1 4,2 1,2 1,3 1,5 0,1 0,3 0,4 -1,1 -2,2 -3,2 1,1 2,2 3,3 1,1 2,3 2,5 0,3 -1,5 -3,6 -2,1 -5,2 -8,2l-14 0 0 -30zm5 13l6 0c2,0 3,0 4,-1 1,0 2,0 2,-1 1,-1 1,-2 1,-3 0,-1 0,-2 -2,-3 -1,-1 -3,-1 -5,-1l-6 0 0 9zm0 13l7 0c3,0 5,0 6,-1 1,-1 1,-2 2,-4 0,-1 -1,-1 -1,-2 -1,-1 -2,-2 -3,-2 -1,0 -2,0 -5,0l-6 0 0 9z"/>
   <path id="16" class="fil0" d="M537 1257l5 0 0 13c2,0 3,0 3,-1 1,-1 2,-2 3,-5 1,-3 2,-4 3,-5 0,-1 1,-1 2,-2 1,0 2,0 4,0l1 0 0 4 -1 0c-2,0 -3,0 -3,1 0,0 -1,1 -2,3 -1,2 -1,4 -2,5 -1,0 -2,1 -3,2 2,0 4,2 6,6l6 9 -6 0 -5 -9c-1,-2 -2,-3 -3,-4 -1,-1 -2,-1 -3,-1l0 14 -5 0 0 -30z"/>
   <path id="17" class="fil0" d="M584 1283c-2,2 -4,3 -6,4 -2,0 -4,1 -6,1 -3,0 -6,-1 -7,-3 -2,-1 -3,-3 -3,-6 0,-1 0,-3 1,-4 1,-1 2,-2 3,-3 1,-1 2,-1 3,-2 1,0 3,0 5,0 4,-1 7,-1 9,-2 0,-1 0,-1 0,-1 0,-2 0,-4 -1,-5 -2,-1 -4,-2 -6,-2 -3,0 -4,1 -6,2 -1,1 -2,2 -2,4l-5 0c0,-3 1,-4 2,-6 1,-1 3,-2 5,-3 2,0 4,-1 7,-1 2,0 4,1 6,1 2,1 3,2 3,2 1,1 2,3 2,4 0,1 0,2 0,5l0 6c0,5 0,8 1,9 0,2 0,3 1,4l-5 0c-1,-1 -1,-2 -1,-4zm-1 -11c-2,1 -5,1 -8,2 -2,0 -4,1 -5,1 -1,0 -1,1 -2,2 0,0 -1,1 -1,2 0,1 1,2 2,3 1,1 3,2 5,2 2,0 3,-1 5,-2 1,0 3,-2 3,-3 1,-1 1,-3 1,-5l0 -2z"/>
   <path id="18" class="fil0" d="M615 1257l24 0 0 30 -5 0 0 -26 -14 0 0 15c0,4 0,6 0,7 -1,1 -1,2 -2,3 -1,1 -3,1 -5,1 -1,0 -2,0 -4,0l0 -4 3 0c1,0 1,0 2,-1 0,0 1,0 1,-1 0,0 0,-2 0,-4l0 -20z"/>
   <path id="19" class="fil0" d="M645 1272c0,-6 2,-10 5,-12 2,-3 6,-4 9,-4 5,0 8,2 11,4 2,3 4,7 4,12 0,3 -1,7 -2,9 -1,2 -3,4 -5,5 -3,1 -5,2 -8,2 -4,0 -7,-2 -10,-4 -3,-3 -4,-7 -4,-12zm5 0c0,4 1,7 3,9 2,2 4,3 6,3 3,0 5,-1 7,-3 1,-2 2,-5 2,-9 0,-4 -1,-7 -2,-9 -2,-2 -4,-3 -7,-3 -2,0 -4,1 -6,3 -2,2 -3,5 -3,9z"/>
   <polygon id="20" class="fil0" points="680,1257 697,1257 697,1261 685,1261 685,1287 680,1287 "/>
   <path id="21" class="fil0" d="M698 1272c0,-6 1,-10 4,-12 3,-3 6,-4 10,-4 4,0 7,2 10,4 3,3 4,7 4,12 0,3 -1,7 -2,9 -1,2 -3,4 -5,5 -2,1 -5,2 -7,2 -4,0 -8,-2 -10,-4 -3,-3 -4,-7 -4,-12zm5 0c0,4 1,7 2,9 2,2 4,3 7,3 2,0 4,-1 6,-3 2,-2 3,-5 3,-9 0,-4 -1,-7 -3,-9 -2,-2 -4,-3 -6,-3 -3,0 -5,1 -7,3 -1,2 -2,5 -2,9z"/>
   <polygon id="22" class="fil0" points="728,1257 753,1257 753,1261 743,1261 743,1287 738,1287 738,1261 728,1261 "/>
   <polygon id="23" class="fil0" points="757,1257 763,1257 763,1280 777,1257 782,1257 782,1287 777,1287 777,1264 763,1287 757,1287 "/>
   <polygon id="24" class="fil0" points="790,1257 814,1257 814,1287 809,1287 809,1261 795,1261 795,1287 790,1287 "/>
   <path id="25" class="fil0" d="M821 1299l0 -5c1,0 2,0 3,0 1,0 2,0 2,0 1,0 2,-1 2,-2 0,0 1,-1 2,-4 0,0 0,0 0,-1l-11 -30 5 0 6 17c1,3 2,5 3,7 0,-2 1,-4 2,-6l6 -18 5 0 -11 31c-1,3 -2,5 -3,7 -1,1 -2,2 -3,3 -1,1 -3,1 -4,1 -1,0 -2,0 -4,0z"/>
   <g>
    <g>
     <g>
      <g>
       <rect class="fil1 str0" x="1172" y="701" width="61.0398" height="61.0351"/>
       <rect class="fil1 str0" x="1233" y="701" width="61.0398" height="61.0351"/>
       <rect class="fil1 str0" x="1294" y="701" width="61.0398" height="61.0351"/>
       <rect class="fil1 str0" x="1355" y="701" width="61.0398" height="61.0351"/>
       <rect class="fil1 str0" x="1416" y="701" width="61.0398" height="61.0351"/>
       <rect class="fil1 str0" x="1477" y="701" width="61.0398" height="61.0351"/>
       <rect class="fil1 str0" x="1538" y="701" width="61.0398" height="61.0351"/>
       <rect class="fil1 str0" x="1599" y="701" width="61.0398" height="61.0351"/>
       <rect class="fil1 str0" x="1660" y="701" width="61.0398" height="61.0351"/>
       <rect class="fil1 str0" x="1721" y="701" width="61.0398" height="61.0351"/>
       <rect class="fil1 str0" x="1172" y="762" width="61.0398" height="61.0351"/>
       <rect class="fil1 str0" x="1233" y="762" width="61.0398" height="61.0351"/>
       <rect class="fil1 str0" x="1294" y="762" width="61.0398" height="61.0351"/>
       <rect class="fil1 str0" x="1355" y="762" width="61.0398" height="61.0351"/>
       <rect class="fil1 str0" x="1416" y="762" width="61.0398" height="61.0351"/>
       <rect class="fil1 str0" x="1477" y="762" width="61.0398" height="61.0351"/>
       <rect class="fil1 str0" x="1538" y="762" width="61.0398" height="61.0351"/>
       <rect class="fil1 str0" x="1599" y="762" width="61.0398" height="61.0351"/>
       <rect class="fil1 str0" x="1660" y="762" width="61.0398" height="61.0351"/>
       <rect class="fil1 str0" x="1721" y="762" width="61.0398" height="61.0351"/>
       <rect class="fil1 str0" x="1172" y="579" width="61.0398" height="61.0351"/>
       <rect class="fil1 str0" x="1233" y="579" width="61.0398" height="61.0351"/>
       <rect class="fil1 str0" x="1294" y="579" width="61.0398" height="61.0351"/>
       <rect class="fil1 str0" x="1416" y="579" width="61.0398" height="61.0351"/>
       <rect class="fil1 str0" x="1477" y="579" width="61.0398" height="61.0351"/>
       <rect class="fil1 str0" x="1538" y="579" width="61.0398" height="61.0351"/>
       <rect class="fil1 str0" x="1599" y="579" width="61.0398" height="61.0351"/>
       <rect class="fil1 str0" x="1660" y="579" width="61.0398" height="61.0351"/>
       <rect class="fil1 str0" x="1721" y="579" width="61.0398" height="61.0351"/>
       <rect class="fil1 str0" x="1172" y="640" width="61.0398" height="61.0351"/>
       <rect class="fil1 str0" x="1233" y="640" width="61.0398" height="61.0351"/>
       <rect class="fil1 str0" x="1294" y="640" width="61.0398" height="61.0351"/>
       <rect class="fil1 str0" x="1355" y="640" width="61.0398" height="61.0351"/>
       <rect class="fil1 str0" x="1416" y="640" width="61.0398" height="61.0351"/>
       <rect class="fil1 str0" x="1477" y="640" width="61.0398" height="61.0351"/>
       <rect class="fil1 str0" x="1538" y="640" width="61.0398" height="61.0351"/>
       <rect class="fil1 str0" x="1599" y="640" width="61.0398" height="61.0351"/>
       <rect class="fil1 str0" x="1660" y="640" width="61.0398" height="61.0351"/>
       <rect class="fil1 str0" x="1721" y="640" width="61.0398" height="61.0351"/>
       <rect class="fil1 str0" x="1172" y="457" width="61.0398" height="61.0351"/>
       <rect class="fil1 str0" x="1233" y="457" width="61.0398" height="61.0351"/>
       <rect class="fil1 str0" x="1294" y="457" width="61.0398" height="61.0351"/>
       <rect class="fil1 str0" x="1355" y="457" width="61.0398" height="61.0351"/>
       <rect class="fil1 str0" x="1416" y="457" width="61.0398" height="61.0351"/>
       <rect class="fil1 str0" x="1477" y="457" width="61.0398" height="61.0351"/>
       <rect class="fil1 str0" x="1538" y="457" width="61.0398" height="61.0351"/>
       <rect class="fil1 str0" x="1599" y="457" width="61.0398" height="61.0351"/>
       <rect class="fil1 str0" x="1660" y="457" width="61.0398" height="61.0351"/>
       <rect class="fil1 str0" x="1721" y="457" width="61.0398" height="61.0351"/>
       <rect class="fil1 str0" x="1172" y="518" width="61.0398" height="61.0351"/>
       <rect class="fil1 str0" x="1233" y="518" width="61.0398" height="61.0351"/>
       <rect class="fil1 str0" x="1294" y="518" width="61.0398" height="61.0351"/>
       <rect class="fil1 str0" x="1355" y="518" width="61.0398" height="61.0351"/>
       <rect class="fil1 str0" x="1416" y="518" width="61.0398" height="61.0351"/>
       <rect class="fil1 str0" x="1477" y="518" width="61.0398" height="61.0351"/>
       <rect class="fil1 str0" x="1538" y="518" width="61.0398" height="61.0351"/>
       <rect class="fil1 str0" x="1599" y="518" width="61.0398" height="61.0351"/>
       <rect class="fil1 str0" x="1660" y="518" width="61.0398" height="61.0351"/>
       <rect class="fil1 str0" x="1721" y="518" width="61.0398" height="61.0351"/>
       <rect class="fil1 str0" x="1172" y="335" width="61.0398" height="61.0351"/>
       <rect class="fil1 str0" x="1233" y="335" width="61.0398" height="61.0351"/>
       <rect class="fil1 str0" x="1294" y="335" width="61.0398" height="61.0351"/>
       <rect class="fil1 str0" x="1355" y="335" width="61.0398" height="61.0351"/>
       <rect class="fil1 str0" x="1416" y="335" width="61.0398" height="61.0351"/>
       <rect class="fil1 str0" x="1477" y="335" width="61.0398" height="61.0351"/>
       <rect class="fil1 str0" x="1538" y="335" width="61.0398" height="61.0351"/>
       <rect class="fil1 str0" x="1599" y="335" width="61.0398" height="61.0351"/>
       <rect class="fil1 str0" x="1660" y="335" width="61.0398" height="61.0351"/>
       <rect class="fil1 str0" x="1721" y="335" width="61.0398" height="61.0351"/>
       <rect class="fil1 str0" x="1172" y="396" width="61.0398" height="61.0351"/>
       <rect class="fil1 str0" x="1233" y="396" width="61.0398" height="61.0351"/>
       <rect class="fil1 str0" x="1294" y="396" width="61.0398" height="61.0351"/>
       <rect class="fil1 str0" x="1355" y="396" width="61.0398" height="61.0351"/>
       <rect class="fil1 str0" x="1416" y="396" width="61.0398" height="61.0351"/>
       <rect class="fil1 str0" x="1477" y="396" width="61.0398" height="61.0351"/>
       <rect class="fil1 str0" x="1538" y="396" width="61.0398" height="61.0351"/>
       <rect class="fil1 str0" x="1599" y="396" width="61.0398" height="61.0351"/>
       <rect class="fil1 str0" x="1660" y="396" width="61.0398" height="61.0351"/>
       <rect class="fil1 str0" x="1721" y="396" width="61.0398" height="61.0351"/>
       <rect class="fil1 str0" x="1172" y="823" width="61.0398" height="61.0351"/>
       <rect class="fil1 str0" x="1233" y="823" width="61.0398" height="61.0351"/>
       <rect class="fil1 str0" x="1294" y="823" width="61.0398" height="61.0351"/>
       <rect class="fil1 str0" x="1355" y="823" width="61.0398" height="61.0351"/>
       <rect class="fil1 str0" x="1416" y="823" width="61.0398" height="61.0351"/>
       <rect class="fil1 str0" x="1477" y="823" width="61.0398" height="61.0351"/>
       <rect class="fil1 str0" x="1538" y="823" width="61.0398" height="61.0351"/>
       <rect class="fil1 str0" x="1599" y="823" width="61.0398" height="61.0351"/>
       <rect class="fil1 str0" x="1660" y="823" width="61.0398" height="61.0351"/>
       <rect class="fil1 str0" x="1721" y="823" width="61.0398" height="61.0351"/>
      </g>
      <g>
       <rect class="fil1 str0" x="1172" y="274" width="61.0398" height="61.0351"/>
       <rect class="fil1 str0" x="1233" y="274" width="61.0398" height="61.0351"/>
       <rect class="fil1 str0" x="1294" y="274" width="61.0398" height="61.0351"/>
       <rect class="fil1 str0" x="1355" y="274" width="61.0398" height="61.0351"/>
       <rect class="fil1 str0" x="1416" y="274" width="61.0398" height="61.0351"/>
       <rect class="fil1 str0" x="1477" y="274" width="61.0398" height="61.0351"/>
       <rect class="fil1 str0" x="1538" y="274" width="61.0398" height="61.0351"/>
       <rect class="fil1 str0" x="1599" y="274" width="61.0398" height="61.0351"/>
       <rect class="fil1 str0" x="1660" y="274" width="61.0398" height="61.0351"/>
       <rect class="fil1 str0" x="1721" y="274" width="61.0398" height="61.0351"/>
      </g>
      <g>
       <rect class="fil1 str0" x="1172" y="884" width="61.0398" height="61.0351"/>
       <rect class="fil1 str0" x="1233" y="884" width="61.0398" height="61.0351"/>
       <rect class="fil1 str0" x="1294" y="884" width="61.0398" height="61.0351"/>
       <rect class="fil1 str0" x="1355" y="884" width="61.0398" height="61.0351"/>
       <rect class="fil1 str0" x="1416" y="884" width="61.0398" height="61.0351"/>
       <rect class="fil1 str0" x="1477" y="884" width="61.0398" height="61.0351"/>
       <rect class="fil1 str0" x="1538" y="884" width="61.0398" height="61.0351"/>
       <rect class="fil1 str0" x="1599" y="884" width="61.0398" height="61.0351"/>
       <rect class="fil1 str0" x="1660" y="884" width="61.0398" height="61.0351"/>
       <rect class="fil1 str0" x="1721" y="884" width="61.0398" height="61.0351"/>
      </g>
      <g>
       <rect class="fil1 str0" transform="matrix(2.73547E-14 -1.03286 1 2.64845E-14 1782.27 883.909)" width="59.0981" height="61.0351"/>
       <rect class="fil1 str0" transform="matrix(2.73547E-14 -1.03286 1 2.64845E-14 1782.27 822.869)" width="59.0981" height="61.0351"/>
       <rect class="fil1 str0" transform="matrix(2.73547E-14 -1.03286 1 2.64845E-14 1782.27 761.83)" width="59.0981" height="61.0351"/>
       <rect class="fil1 str0" transform="matrix(2.73547E-14 -1.03286 1 2.64845E-14 1782.27 700.79)" width="59.0981" height="61.0351"/>
       <rect class="fil1 str0" transform="matrix(2.73547E-14 -1.03286 1 2.64845E-14 1782.27 639.75)" width="59.0981" height="61.0351"/>
       <rect class="fil1 str0" transform="matrix(2.73547E-14 -1.03286 1 2.64845E-14 1782.27 578.71)" width="59.0981" height="61.0351"/>
       <rect class="fil1 str0" transform="matrix(2.73547E-14 -1.03286 1 2.64845E-14 1782.27 517.67)" width="59.0981" height="61.0351"/>
       <rect class="fil1 str0" transform="matrix(2.73547E-14 -1.03286 1 2.64845E-14 1782.27 456.631)" width="59.0981" height="61.0351"/>
       <rect class="fil1 str0" transform="matrix(2.73547E-14 -1.03286 1 2.64845E-14 1782.27 395.591)" width="59.0981" height="61.0351"/>
       <rect class="fil1 str0" transform="matrix(2.73547E-14 -1.03286 1 2.64845E-14 1782.27 334.551)" width="59.0981" height="61.0351"/>
      </g>
      <g>
       <rect class="fil1 str0" transform="matrix(2.73547E-14 -1.03286 1 2.64845E-14 1110.83 883.909)" width="59.0981" height="61.0351"/>
       <rect class="fil1 str0" transform="matrix(2.73547E-14 -1.03286 1 2.64845E-14 1110.83 822.869)" width="59.0981" height="61.0351"/>
       <rect class="fil1 str0" transform="matrix(2.73547E-14 -1.03286 1 2.64845E-14 1110.83 761.83)" width="59.0981" height="61.0351"/>
       <rect class="fil1 str0" transform="matrix(2.73547E-14 -1.03286 1 2.64845E-14 1110.83 700.79)" width="59.0981" height="61.0351"/>
       <rect class="fil1 str0" transform="matrix(2.73547E-14 -1.03286 1 2.64845E-14 1110.83 639.75)" width="59.0981" height="61.0351"/>
       <rect class="fil1 str0" transform="matrix(2.73547E-14 -1.03286 1 2.64845E-14 1110.83 578.71)" width="59.0981" height="61.0351"/>
       <rect class="fil1 str0" transform="matrix(2.73547E-14 -1.03286 1 2.64845E-14 1110.83 517.67)" width="59.0981" height="61.0351"/>
       <rect class="fil1 str0" transform="matrix(2.73547E-14 -1.03286 1 2.64845E-14 1110.83 456.631)" width="59.0981" height="61.0351"/>
       <rect class="fil1 str0" transform="matrix(2.73547E-14 -1.03286 1 2.64845E-14 1110.83 395.591)" width="59.0981" height="61.0351"/>
       <rect class="fil1 str0" transform="matrix(2.73547E-14 -1.03286 1 2.64845E-14 1110.83 334.551)" width="59.0981" height="61.0351"/>
      </g>
      <rect class="fil1 str0" transform="matrix(2.73547E-14 -1.03286 1 2.64845E-14 1110.83 944.949)" width="59.0981" height="61.0351"/>
      <rect class="fil1 str0" transform="matrix(2.73547E-14 -1.03286 1 2.64845E-14 1782.27 944.949)" width="59.0981" height="61.0351"/>
     </g>
     <g>
      <g>
       <rect class="fil1 str0" x="439" y="701" width="61.0398" height="61.0351"/>
       <rect class="fil1 str0" x="500" y="701" width="61.0398" height="61.0351"/>
       <rect class="fil1 str0" x="561" y="701" width="61.0398" height="61.0351"/>
       <rect class="fil1 str0" x="623" y="701" width="61.0398" height="61.0351"/>
       <rect class="fil1 str0" x="684" y="701" width="61.0398" height="61.0351"/>
       <rect class="fil1 str0" x="745" y="701" width="61.0398" height="61.0351"/>
       <rect class="fil1 str0" x="806" y="701" width="61.0398" height="61.0351"/>
       <rect class="fil1 str0" x="867" y="701" width="61.0398" height="61.0351"/>
       <rect class="fil1 str0" x="928" y="701" width="61.0398" height="61.0351"/>
       <rect class="fil1 str0" x="989" y="701" width="61.0398" height="61.0351"/>
       <rect class="fil1 str0" x="439" y="762" width="61.0398" height="61.0351"/>
       <rect class="fil1 str0" x="500" y="762" width="61.0398" height="61.0351"/>
       <rect class="fil1 str0" x="561" y="762" width="61.0398" height="61.0351"/>
       <rect class="fil1 str0" x="623" y="762" width="61.0398" height="61.0351"/>
       <rect class="fil1 str0" x="684" y="762" width="61.0398" height="61.0351"/>
       <rect class="fil1 str0" x="745" y="762" width="61.0398" height="61.0351"/>
       <rect class="fil1 str0" x="806" y="762" width="61.0398" height="61.0351"/>
       <rect class="fil1 str0" x="867" y="762" width="61.0398" height="61.0351"/>
       <rect class="fil1 str0" x="928" y="762" width="61.0398" height="61.0351"/>
       <rect class="fil1 str0" x="989" y="762" width="61.0398" height="61.0351"/>
       <rect class="fil1 str0" x="439" y="579" width="61.0398" height="61.0351"/>
       <rect class="fil1 str0" x="500" y="579" width="61.0398" height="61.0351"/>
       <rect class="fil1 str0" x="561" y="579" width="61.0398" height="61.0351"/>
       <rect class="fil1 str0" x="684" y="579" width="61.0398" height="61.0351"/>
       <rect class="fil1 str0" x="745" y="579" width="61.0398" height="61.0351"/>
       <rect class="fil1 str0" x="806" y="579" width="61.0398" height="61.0351"/>
       <rect class="fil1 str0" x="867" y="579" width="61.0398" height="61.0351"/>
       <rect class="fil1 str0" x="928" y="579" width="61.0398" height="61.0351"/>
       <rect class="fil1 str0" x="989" y="579" width="61.0398" height="61.0351"/>
       <rect class="fil1 str0" x="439" y="640" width="61.0398" height="61.0351"/>
       <rect class="fil1 str0" x="500" y="640" width="61.0398" height="61.0351"/>
       <rect class="fil1 str0" x="561" y="640" width="61.0398" height="61.0351"/>
       <rect class="fil1 str0" x="623" y="640" width="61.0398" height="61.0351"/>
       <rect class="fil1 str0" x="684" y="640" width="61.0398" height="61.0351"/>
       <rect class="fil1 str0" x="745" y="640" width="61.0398" height="61.0351"/>
       <rect class="fil1 str0" x="806" y="640" width="61.0398" height="61.0351"/>
       <rect class="fil1 str0" x="867" y="640" width="61.0398" height="61.0351"/>
       <rect class="fil1 str0" x="928" y="640" width="61.0398" height="61.0351"/>
       <rect class="fil1 str0" x="989" y="640" width="61.0398" height="61.0351"/>
       <rect class="fil1 str0" x="439" y="457" width="61.0398" height="61.0351"/>
       <rect class="fil1 str0" x="500" y="457" width="61.0398" height="61.0351"/>
       <rect class="fil1 str0" x="561" y="457" width="61.0398" height="61.0351"/>
       <rect class="fil1 str0" x="623" y="457" width="61.0398" height="61.0351"/>
       <rect class="fil1 str0" x="684" y="457" width="61.0398" height="61.0351"/>
       <rect class="fil1 str0" x="745" y="457" width="61.0398" height="61.0351"/>
       <rect class="fil1 str0" x="806" y="457" width="61.0398" height="61.0351"/>
       <rect class="fil1 str0" x="867" y="457" width="61.0398" height="61.0351"/>
       <rect class="fil1 str0" x="928" y="457" width="61.0398" height="61.0351"/>
       <rect class="fil1 str0" x="989" y="457" width="61.0398" height="61.0351"/>
       <rect class="fil1 str0" x="439" y="518" width="61.0398" height="61.0351"/>
       <rect class="fil1 str0" x="500" y="518" width="61.0398" height="61.0351"/>
       <rect class="fil1 str0" x="561" y="518" width="61.0398" height="61.0351"/>
       <rect class="fil1 str0" x="623" y="518" width="61.0398" height="61.0351"/>
       <rect class="fil1 str0" x="684" y="518" width="61.0398" height="61.0351"/>
       <rect class="fil1 str0" x="745" y="518" width="61.0398" height="61.0351"/>
       <rect class="fil1 str0" x="806" y="518" width="61.0398" height="61.0351"/>
       <rect class="fil1 str0" x="867" y="518" width="61.0398" height="61.0351"/>
       <rect class="fil1 str0" x="928" y="518" width="61.0398" height="61.0351"/>
       <rect class="fil1 str0" x="989" y="518" width="61.0398" height="61.0351"/>
       <rect class="fil1 str0" x="439" y="335" width="61.0398" height="61.0351"/>
       <rect class="fil1 str0" x="500" y="335" width="61.0398" height="61.0351"/>
       <rect class="fil1 str0" x="561" y="335" width="61.0398" height="61.0351"/>
       <rect class="fil1 str0" x="623" y="335" width="61.0398" height="61.0351"/>
       <rect class="fil1 str0" x="684" y="335" width="61.0398" height="61.0351"/>
       <rect class="fil1 str0" x="745" y="335" width="61.0398" height="61.0351"/>
       <rect class="fil1 str0" x="806" y="335" width="61.0398" height="61.0351"/>
       <rect class="fil1 str0" x="867" y="335" width="61.0398" height="61.0351"/>
       <rect class="fil1 str0" x="928" y="335" width="61.0398" height="61.0351"/>
       <rect class="fil1 str0" x="989" y="335" width="61.0398" height="61.0351"/>
       <rect class="fil1 str0" x="439" y="396" width="61.0398" height="61.0351"/>
       <rect class="fil1 str0" x="500" y="396" width="61.0398" height="61.0351"/>
       <rect class="fil1 str0" x="561" y="396" width="61.0398" height="61.0351"/>
       <rect class="fil1 str0" x="623" y="396" width="61.0398" height="61.0351"/>
       <rect class="fil1 str0" x="684" y="396" width="61.0398" height="61.0351"/>
       <rect class="fil1 str0" x="745" y="396" width="61.0398" height="61.0351"/>
       <rect class="fil1 str0" x="806" y="396" width="61.0398" height="61.0351"/>
       <rect class="fil1 str0" x="867" y="396" width="61.0398" height="61.0351"/>
       <rect class="fil1 str0" x="928" y="396" width="61.0398" height="61.0351"/>
       <rect class="fil1 str0" x="989" y="396" width="61.0398" height="61.0351"/>
       <rect class="fil1 str0" x="439" y="823" width="61.0398" height="61.0351"/>
       <rect class="fil1 str0" x="500" y="823" width="61.0398" height="61.0351"/>
       <rect class="fil1 str0" x="561" y="823" width="61.0398" height="61.0351"/>
       <rect class="fil1 str0" x="623" y="823" width="61.0398" height="61.0351"/>
       <rect class="fil1 str0" x="684" y="823" width="61.0398" height="61.0351"/>
       <rect class="fil1 str0" x="745" y="823" width="61.0398" height="61.0351"/>
       <rect class="fil1 str0" x="806" y="823" width="61.0398" height="61.0351"/>
       <rect class="fil1 str0" x="867" y="823" width="61.0398" height="61.0351"/>
       <rect class="fil1 str0" x="928" y="823" width="61.0398" height="61.0351"/>
       <rect class="fil1 str0" x="989" y="823" width="61.0398" height="61.0351"/>
      </g>
      <g>
       <rect class="fil1 str0" x="439" y="274" width="61.0398" height="61.0351"/>
       <rect class="fil1 str0" x="500" y="274" width="61.0398" height="61.0351"/>
       <rect class="fil1 str0" x="561" y="274" width="61.0398" height="61.0351"/>
       <rect class="fil1 str0" x="623" y="274" width="61.0398" height="61.0351"/>
       <rect class="fil1 str0" x="684" y="274" width="61.0398" height="61.0351"/>
       <rect class="fil1 str0" x="745" y="274" width="61.0398" height="61.0351"/>
       <rect class="fil1 str0" x="806" y="274" width="61.0398" height="61.0351"/>
       <rect class="fil1 str0" x="867" y="274" width="61.0398" height="61.0351"/>
       <rect class="fil1 str0" x="928" y="274" width="61.0398" height="61.0351"/>
       <rect class="fil1 str0" x="989" y="274" width="61.0398" height="61.0351"/>
      </g>
      <g>
       <rect class="fil1 str0" x="439" y="884" width="61.0398" height="61.0351"/>
       <rect class="fil1 str0" x="500" y="884" width="61.0398" height="61.0351"/>
       <rect class="fil1 str0" x="561" y="884" width="61.0398" height="61.0351"/>
       <rect class="fil1 str0" x="623" y="884" width="61.0398" height="61.0351"/>
       <rect class="fil1 str0" x="684" y="884" width="61.0398" height="61.0351"/>
       <rect class="fil1 str0" x="745" y="884" width="61.0398" height="61.0351"/>
       <rect class="fil1 str0" x="806" y="884" width="61.0398" height="61.0351"/>
       <rect class="fil1 str0" x="867" y="884" width="61.0398" height="61.0351"/>
       <rect class="fil1 str0" x="928" y="884" width="61.0398" height="61.0351"/>
       <rect class="fil1 str0" x="989" y="884" width="61.0398" height="61.0351"/>
      </g>
      <g>
       <rect class="fil1 str0" transform="matrix(2.73547E-14 -1.03286 1 2.64845E-14 1049.8 883.909)" width="59.0981" height="61.0351"/>
       <rect class="fil1 str0" transform="matrix(2.73547E-14 -1.03286 1 2.64845E-14 1049.8 822.869)" width="59.0981" height="61.0351"/>
       <rect class="fil1 str0" transform="matrix(2.73547E-14 -1.03286 1 2.64845E-14 1049.8 761.83)" width="59.0981" height="61.0351"/>
       <rect class="fil1 str0" transform="matrix(2.73547E-14 -1.03286 1 2.64845E-14 1049.8 700.79)" width="59.0981" height="61.0351"/>
       <rect class="fil1 str0" transform="matrix(2.73547E-14 -1.03286 1 2.64845E-14 1049.8 639.75)" width="59.0981" height="61.0351"/>
       <rect class="fil1 str0" transform="matrix(2.73547E-14 -1.03286 1 2.64845E-14 1049.8 578.71)" width="59.0981" height="61.0351"/>
       <rect class="fil1 str0" transform="matrix(2.73547E-14 -1.03286 1 2.64845E-14 1049.8 517.67)" width="59.0981" height="61.0351"/>
       <rect class="fil1 str0" transform="matrix(2.73547E-14 -1.03286 1 2.64845E-14 1049.8 456.631)" width="59.0981" height="61.0351"/>
       <rect class="fil1 str0" transform="matrix(2.73547E-14 -1.03286 1 2.64845E-14 1049.8 395.591)" width="59.0981" height="61.0351"/>
       <rect class="fil1 str0" transform="matrix(2.73547E-14 -1.03286 1 2.64845E-14 1049.8 334.551)" width="59.0981" height="61.0351"/>
      </g>
      <rect class="fil1 str0" transform="matrix(2.73547E-14 -1.03286 1 2.64845E-14 1049.8 944.949)" width="59.0981" height="61.0351"/>
     </g>
    </g>
    <path class="fil2" d="M1474 335l308 0 0 328c0,123 -80,221 -203,221l-105 0c-49,0 -94,-13 -131,-40 121,-148 238,-263 380,-393 -69,31 -160,83 -246,143 -8,-43 -45,-76 -90,-76l-133 0c20,-104 111,-183 220,-183zm-87 305l-7 0 -106 0 -71 0 0 0 0 0c-17,0 -31,-14 -31,-31 0,-17 14,-31 31,-31l0 0 184 0c17,0 31,14 31,31 0,17 -14,31 -31,31l0 0zm-184 182c17,0 30,14 30,31 0,17 -13,31 -30,31 -17,0 -31,-14 -31,-31 0,-17 14,-31 31,-31zm-1 -122l0 0 72 0 44 0 7 0 0 0c17,0 31,14 31,31 0,17 -14,31 -31,31l0 0 -4 0 -47 0 -72 0 0 0 0 0c-17,0 -30,-14 -30,-31 0,-17 13,-31 30,-31z"/>
    <g>
     <line class="fil1 str1" x1="1879" y1="945" x2="2008" y2= "945" />
     <line class="fil1 str1" x1="1879" y1="884" x2="2008" y2= "884" />
     <g>
      <path class="fil3" d="M1980 945l0 23 -2 0 0 -23 2 0zm-6 5l0 -10 10 0 0 10 -10 0z"/>
     </g>
     <g>
      <path class="fil3" d="M1974 879l10 0 0 9 -10 0 0 -9zm6 -18l0 23 -2 0 0 -23 2 0z"/>
     </g>
    </g>
    <g id="_2873626295936">
     <line class="fil1 str1" x1="1782" y1="961" x2="1782" y2= "1090" />
     <line class="fil1 str1" x1="1843" y1="961" x2="1843" y2= "1090" />
     <g>
      <path class="fil3" d="M1782 1062l-23 0 0 -3 23 0 0 3zm-4 -6l9 0 0 9 -9 0 0 -9z"/>
     </g>
     <g>
      <path class="fil3" d="M1848 1056l0 9 -9 0 0 -9 9 0zm18 6l-23 0 0 -3 23 0 0 3z"/>
     </g>
    </g>
    <g>
     <line class="fil1 str1" x1="1843" y1="244" x2="1843" y2= "12" />
     <line class="fil1 str1" x1="439" y1="244" x2="439" y2= "12" />
     <g>
      <path class="fil3" d="M1843 42l-461 0 0 -2 461 0 0 2zm-4 -6l9 0 0 10 -9 0 0 -10z"/>
     </g>
     <g>
      <path class="fil3" d="M444 36l0 10 -9 0 0 -10 9 0zm464 6l-469 0 0 -2 469 0 0 2z"/>
     </g>
    </g>
    <g>
     <path class="fil3" d="M1109 56l0 5 -27 0c0,-1 1,-2 1,-3 1,-2 2,-4 3,-6 2,-1 4,-3 7,-6 4,-3 7,-6 8,-8 2,-2 3,-4 3,-6 0,-2 -1,-3 -2,-5 -2,-1 -4,-2 -6,-2 -2,0 -4,1 -5,2 -2,2 -3,4 -3,6l-5 0c1,-4 2,-7 4,-9 3,-2 6,-3 9,-3 4,0 7,1 9,3 3,2 4,5 4,8 0,2 -1,3 -1,5 -1,1 -2,3 -3,5 -2,1 -4,4 -8,7 -3,2 -5,4 -6,5 0,1 -1,2 -2,2l20 0z"/>
     <path id="1" class="fil3" d="M1114 51l5 -1c1,3 2,5 3,6 1,1 3,2 5,2 2,0 4,-1 6,-3 1,-1 2,-3 2,-6 0,-2 -1,-4 -2,-5 -2,-2 -4,-2 -6,-2 -1,0 -2,0 -3,0l0 -4c1,0 1,0 1,0 2,0 4,-1 6,-2 1,-1 2,-2 2,-5 0,-1 0,-3 -2,-4 -1,-1 -2,-2 -4,-2 -2,0 -4,1 -5,2 -1,1 -2,3 -2,5l-5 -1c0,-3 2,-5 4,-7 2,-2 4,-3 8,-3 2,0 4,1 6,2 1,0 3,2 4,3 1,2 1,4 1,5 0,2 0,4 -1,5 -1,2 -2,3 -4,4 2,0 4,1 5,3 2,2 2,4 2,6 0,4 -1,7 -4,9 -2,3 -5,4 -9,4 -4,0 -7,-1 -9,-3 -2,-2 -4,-5 -4,-8z"/>
     <path class="fil2" d="M1178 33l12 2c0,0 1,1 1,1 0,0 0,0 0,1 1,0 1,0 0,1 0,0 0,0 0,1l-9 8 0 0 0 0 2 12c0,1 0,1 0,1 0,1 0,1 -1,1l0 0 -1 1 0 -1 0 0 -11 -5 0 0 -1 0 -10 5c-1,0 -1,1 -1,1 -1,-1 -1,-1 -1,-1 -1,0 -1,0 -1,-1 0,0 0,0 0,-1l2 -12 0 0 0 0 -9 -8c0,-1 0,-1 0,-1 0,0 0,-1 0,-1l0 0 0 0 0 0c0,-1 0,-1 0,-1 0,0 1,-1 1,-1l12 -2 0 0 0 0 6 -11c0,0 0,0 1,0 0,0 0,-1 1,-1 0,0 0,1 1,1 0,0 0,0 0,0l6 11 0 0 0 0z"/>
    </g>
    <g>
     <path class="fil3" d="M801 213l-5 0 0 -31c-1,1 -3,2 -4,3 -2,2 -4,2 -6,3l0 -5c3,-1 6,-3 8,-4 2,-2 3,-4 4,-6l3 0 0 40z"/>
     <path id="1" class="fil3" d="M832 213l-5 0 0 -31c-1,1 -3,2 -5,3 -1,2 -3,2 -5,3l0 -5c3,-1 5,-3 7,-4 3,-2 4,-4 5,-6l3 0 0 40z"/>
     <path class="fil2" d="M873 185l12 2c0,0 0,0 1,0 0,1 0,1 0,1 0,1 0,1 0,1 0,1 0,1 0,1l-9 9 0 0 0 0 2 12c0,0 0,1 0,1 0,0 0,1 -1,1l0 0 -1 0 0 0 -1 0 -11 -5 0 0 0 0 -11 5c0,0 0,0 -1,0 0,0 0,0 -1,0 0,0 0,-1 0,-1 0,0 0,-1 0,-1l1 -12 1 0 -1 0 -8 -9c0,0 0,0 0,0 -1,-1 -1,-1 -1,-1l0 0 0 0 0 -1c1,0 1,0 1,-1 0,0 1,0 1,0l12 -2 0 0 0 0 6 -11c0,0 0,0 0,-1 1,0 1,0 1,0 1,0 1,0 1,0 1,1 1,1 1,1l6 11 0 0 0 0z"/>
    </g>
    <g>
     <line class="fil1 str2" x1="383" y1="335" x2="14" y2= "335" />
     <line class="fil1 str2" x1="120" y1="884" x2="14" y2= "884" />
     <g>
      <path class="fil4" d="M38 335l0 180 -2 0 0 -180 2 0zm-5 4l0 -9 9 0 0 9 -9 0z"/>
     </g>
     <g>
      <path class="fil4" d="M33 879l9 0 0 9 -9 0 0 -9zm5 -178l0 183 -2 0 0 -183 2 0z"/>
     </g>
    </g>
    <g>
     <path class="fil3" d="M46 651l-1 -5c3,0 4,-1 5,-2 1,-1 2,-2 2,-4 0,-2 -1,-3 -1,-4 -1,-1 -2,-2 -3,-3 -1,-1 -3,-1 -5,-2 -2,0 -4,0 -6,0 0,0 0,0 -1,0 2,1 3,2 4,4 1,1 1,3 1,5 0,3 -1,6 -3,8 -3,3 -6,4 -10,4 -4,0 -7,-1 -9,-4 -3,-2 -4,-5 -4,-9 0,-2 1,-5 2,-7 1,-2 3,-4 6,-5 3,-1 6,-1 11,-1 5,0 9,0 12,1 3,1 6,3 7,5 2,2 3,5 3,8 0,3 -1,6 -3,8 -2,1 -4,3 -7,3zm-18 -20c-3,0 -5,1 -6,2 -2,2 -3,4 -3,6 0,2 1,4 3,5 1,2 4,3 7,3 2,0 4,-1 6,-2 1,-2 2,-4 2,-6 0,-2 -1,-4 -2,-6 -2,-1 -4,-2 -7,-2z"/>
     <path class="fil2" d="M43 577l12 2c0,0 0,0 1,0 0,0 0,0 0,1 0,0 0,0 0,1 0,0 0,0 0,1l-9 8 0 0 0 1 2 12c0,0 0,0 0,1 0,0 0,0 -1,0l0 1 -1 0 0 0 -1 -1 -11 -5 0 0 0 0 -11 5c0,1 0,1 -1,1 0,0 0,0 -1,-1 0,0 0,0 0,0 0,-1 0,-1 0,-1l1 -12 1 -1 -1 0 -8 -8c0,-1 0,-1 0,-1 -1,0 -1,0 -1,-1l0 0 0 0 0 0c1,-1 1,-1 1,-1 0,0 1,0 1,0l12 -2 0 -1 0 0 6 -10c0,-1 0,-1 0,-1 1,0 1,0 1,0 1,0 1,0 1,0 1,0 1,0 1,1l6 10 0 0 0 1z"/>
    </g>
    <g>
     <path class="fil3" d="M2113 661l0 5 -31 0c1,1 2,3 3,4 1,2 2,4 3,6l-5 0c-1,-3 -3,-6 -5,-8 -1,-2 -3,-3 -5,-4l0 -3 40 0z"/>
     <path id="1" class="fil3" d="M2113 634l0 5 -31 0c1,1 2,3 3,5 1,2 2,3 3,5l-5 0c-1,-3 -3,-5 -5,-7 -1,-2 -3,-4 -5,-5l0 -3 40 0z"/>
     <path class="fil2" d="M2101 577l12 2c0,0 1,0 1,0 0,0 0,0 0,1 0,0 1,0 0,1 0,0 0,0 0,1l-9 8 0 0 0 1 2 12c0,0 0,0 0,1 0,0 0,0 -1,0l0 1 -1 0 0 0 -1 -1 -10 -5 0 0 -1 0 -10 5c-1,1 -1,1 -1,1 -1,0 -1,0 -1,-1 -1,0 -1,0 -1,0 0,-1 0,-1 0,-1l2 -12 0 -1 0 0 -9 -8c0,-1 0,-1 0,-1 0,0 0,0 0,-1l0 0 0 0 0 0c0,-1 0,-1 0,-1 0,0 1,0 1,0l12 -2 0 -1 0 0 6 -10c0,-1 0,-1 1,-1 0,0 0,0 1,0 0,0 0,0 0,0 1,0 1,0 1,1l6 10 0 0 0 1z"/>
    </g>
    <path class="fil2" d="M1973 906l-12 2c-1,0 -1,1 -1,1 0,0 -1,0 -1,1 0,0 0,0 0,1 0,0 0,0 1,0l8 9 0 0 0 0 -1 12c-1,1 0,1 0,1 0,1 0,1 0,1l1 0 0 0 1 0 0 0 11 -5 0 0 0 0 11 5c0,0 1,0 1,0 0,0 1,0 1,0 0,0 1,0 1,-1 0,0 0,0 0,-1l-2 -12 0 0 0 0 9 -9c0,0 0,0 0,0 0,0 0,-1 0,-1l0 0 0 0 0 0c0,-1 0,-1 -1,-1 0,0 0,-1 0,-1l-12 -2 -1 0 0 0 -5 -11c0,0 -1,0 -1,0 0,-1 0,-1 -1,-1 0,0 -1,0 -1,1 0,0 0,0 0,0l-6 11 0 0 0 0z"/>
    <path class="fil2" d="M1814 1073l11 5c0,0 1,0 1,0 0,0 1,0 1,0 0,0 0,-1 1,-1 0,0 0,-1 0,-1l-2 -12 0 0 0 0 8 -9c0,0 1,0 1,-1 0,0 0,0 0,-1l-1 0 0 -1 0 0 -1 0 -12 -2 0 0 0 0 -6 -11c0,0 0,0 0,0 -1,-1 -1,-1 -1,-1 -1,0 -1,0 -1,1 -1,0 -1,0 -1,0l-5 11 -1 0 0 0 -12 2c0,0 0,1 0,1 0,0 -1,0 -1,0l0 0 0 0 0 1c0,0 0,0 0,1 0,0 0,0 0,1l9 8 0 0 0 0 -2 12c0,1 0,1 1,1 0,1 0,1 0,1 0,0 1,0 1,1 0,0 1,-1 1,-1l11 -5 0 0 0 0z"/>
    <path class="fil5" d="M500 884l1282 0 0 -549 -1282 0 0 549zm-61 -549l0 -61 61 0 1343 0 0 61 0 549 0 61 -1343 0 -61 0 0 -61 0 -549z"/>
    <path class="fil2" d="M928 855c-1,16 -14,29 -31,29 -16,0 -30,-13 -30,-29l0 0 0 -2 0 -91 0 0c0,-1 0,-1 0,-2 0,-17 13,-30 30,-30l31 0 38 0 39 0c25,0 45,-20 45,-45l0 0c0,-25 -20,-45 -45,-45l-39 0 -38 0 -31 0 0 0c-17,0 -30,-14 -30,-31 0,-17 13,-30 30,-30l106 0c59,0 108,48 108,107l0 0c0,59 -49,108 -108,108l-75 0 0 59 0 2 0 0z"/>
    <path class="fil2" d="M531 579l30 0 92 0c84,0 153,68 153,152l0 0c0,84 -69,153 -153,153l-92 0 -30 0c-17,0 -31,-14 -31,-31l0 -60c0,-17 14,-30 31,-30 17,0 30,13 30,30l0 30 92 0c50,0 92,-41 92,-92l0 0c0,-50 -42,-91 -92,-91l-92 0 0 29c0,17 -13,31 -30,31 -17,0 -31,-14 -31,-31l0 -60c0,-17 14,-30 31,-30z"/>
    <path class="fil3" d="M550 518c-10,0 -18,-2 -25,-6 -8,-4 -14,-10 -18,-17 -4,-7 -7,-15 -7,-24 0,-9 3,-17 7,-24 4,-7 10,-13 18,-17 7,-4 16,-6 25,-6 8,0 15,1 21,4 7,3 12,7 16,12l-13 13c-6,-8 -14,-11 -23,-11 -6,0 -11,1 -15,4 -5,2 -8,5 -11,10 -2,4 -3,9 -3,15 0,5 1,10 3,15 3,4 6,8 11,10 4,3 9,4 15,4 9,0 17,-4 23,-11l13 12c-4,6 -9,10 -16,12 -6,3 -13,5 -21,5zm57 -92l21 0 0 73 46 0 0 17 -67 0 0 -90zm155 73l0 17 -71 0 0 -90 69 0 0 16 -48 0 0 20 42 0 0 16 -42 0 0 21 50 0zm82 -2l-42 0 -8 19 -22 0 41 -90 21 0 40 90 -22 0 -8 -19zm-7 -16l-14 -35 -14 35 28 0zm136 -55l0 90 -17 0 -46 -55 0 55 -21 0 0 -90 18 0 45 55 0 -55 21 0zm98 73l0 17 -71 0 0 -90 69 0 0 16 -48 0 0 20 42 0 0 16 -42 0 0 21 50 0zm80 17l-18 -25 -1 0 -18 0 0 25 -21 0 0 -90 39 0c8,0 15,1 21,4 6,2 11,6 14,11 3,5 5,11 5,17 0,7 -2,13 -5,18 -3,5 -8,8 -14,11l21 29 -23 0zm0 -58c0,-5 -2,-9 -5,-11 -4,-3 -9,-4 -15,-4l-17 0 0 31 17 0c6,0 11,-1 15,-4 3,-3 5,-7 5,-12z"/>
    <g>
     <line class="fil1 str1" x1="1172" y1="244" x2="1172" y2= "156" />
     <line class="fil1 str1" x1="500" y1="244" x2="500" y2= "156" />
     <g>
      <path class="fil3" d="M1172 187l-221 0 0 -2 221 0 0 2zm-5 -6l9 0 0 10 -9 0 0 -10z"/>
     </g>
     <g>
      <path class="fil3" d="M505 181l0 10 -9 0 0 -10 9 0zm219 6l-224 0 0 -2 224 0 0 2z"/>
     </g>
    </g>
    <g>
     <line class="fil1 str2" x1="383" y1="579" x2="173" y2= "579" />
     <line class="fil1 str2" x1="383" y1="884" x2="173" y2= "884" />
     <g>
      <path class="fil4" d="M204 579l0 100 -2 0 0 -100 2 0zm-6 4l0 -9 9 0 0 9 -9 0z"/>
     </g>
     <g>
      <path class="fil4" d="M198 879l9 0 0 9 -9 0 0 -9zm6 -97l0 102 -2 0 0 -102 2 0z"/>
     </g>
    </g>
    <g>
     <line class="fil1 str2" x1="515" y1="424" x2="173" y2= "424" />
     <line class="fil1 str2" x1="383" y1="518" x2="173" y2= "518" />
     <g>
      <path class="fil4" d="M204 424l0 31 -2 0 0 -31 2 0zm-6 5l0 -9 9 0 0 9 -9 0z"/>
     </g>
     <g>
      <path class="fil4" d="M198 513l9 0 0 9 -9 0 0 -9zm6 -27l0 32 -2 0 0 -32 2 0z"/>
     </g>
    </g>
    <g>
     <path class="fil3" d="M212 771l0 -5c2,0 4,-1 5,-2 2,-2 2,-3 2,-5 0,-3 -1,-5 -2,-6 -2,-2 -4,-3 -7,-3 -3,0 -5,1 -7,2 -2,2 -2,4 -2,7 0,1 0,3 1,4 0,1 1,2 3,3l-1 4 -21 -3 0 -20 5 0 0 16 11 2c-2,-3 -3,-5 -3,-8 0,-3 2,-6 4,-8 2,-3 5,-4 9,-4 4,0 7,1 10,3 3,3 4,6 4,11 0,3 -1,6 -3,8 -2,3 -4,4 -8,4z"/>
     <path class="fil2" d="M197 702l6 -11c0,0 0,-1 0,-1 1,0 1,0 1,0 1,0 1,0 1,0 1,0 1,1 1,1l6 10 0 1 0 0 12 1c0,0 1,0 1,1 0,0 1,0 1,1l0 0 0 1 -1 0 0 0 -8 9 0 0 0 1 2 11c0,1 0,1 0,1 0,1 0,1 -1,1 0,0 0,1 -1,1 0,0 0,0 -1,-1l-11 -5 0 0 0 0 -11 6c0,0 0,0 0,0 -1,0 -1,0 -1,0l0 0 0 0 -1 0c0,0 0,-1 0,-1 0,0 0,-1 0,-1l1 -12 0 0 0 0 -9 -9c0,0 0,0 0,0 0,-1 0,-1 0,-1 0,-1 0,-1 0,-1 1,-1 1,-1 1,-1l12 -2 0 0 0 0z"/>
    </g>
    <g>
     <path class="fil3" d="M156 513l0 5 -32 0c2,1 3,3 4,5 1,2 2,3 2,5l-4 0c-2,-3 -3,-5 -5,-7 -2,-2 -4,-4 -5,-5l0 -3 40 0z"/>
     <path id="1" class="fil3" d="M156 498l-6 0 0 -5 6 0c2,0 3,0 5,1 1,0 2,2 2,3l-2 1c0,-1 -1,-1 -2,-2 0,0 -2,-1 -3,-1l0 3z"/>
     <path id="2" class="fil3" d="M145 485l0 -5c2,0 4,-1 5,-2 2,-2 2,-3 2,-5 0,-3 -1,-5 -2,-6 -2,-2 -5,-3 -7,-3 -3,0 -5,1 -7,2 -2,2 -2,4 -2,7 0,1 0,3 1,4 0,1 1,2 2,3l0 4 -21 -3 0 -20 5 0 0 16 11 2c-2,-3 -3,-5 -3,-8 0,-3 1,-6 4,-8 2,-3 5,-4 9,-4 4,0 7,1 9,3 4,3 5,6 5,11 0,3 -1,6 -3,8 -2,3 -4,4 -8,4z"/>
     <path class="fil2" d="M130 427l6 -11c0,0 0,0 0,0 1,-1 1,-1 1,-1 1,0 1,0 1,0 1,1 1,1 1,1l6 11 0 0 0 0 12 2c0,0 1,0 1,0 0,0 0,1 1,1l0 0 0 1 -1 0 0 1 -8 9 0 0 0 0 2 12c0,0 0,0 0,1 0,0 -1,0 -1,1 0,0 0,0 -1,0 0,0 0,0 -1,0l-11 -5 0 0 0 0 -11 5c0,0 0,1 0,1 -1,0 -1,0 -1,-1l0 0 0 0 -1 0c0,0 0,0 0,-1 0,0 0,0 0,-1l1 -12 0 0 0 0 -9 -8c0,0 0,-1 0,-1 0,0 0,-1 0,-1 0,0 0,-1 0,-1 1,0 1,0 1,0l12 -3 0 0 0 0z"/>
    </g>
    <line class="fil1 str1" x1="383" y1="823" x2="254" y2= "823" />
    <g>
     <path class="fil3" d="M285 884l0 23 -3 0 0 -23 3 0zm-6 4l0 -9 9 0 0 9 -9 0z"/>
    </g>
    <g>
     <path class="fil3" d="M279 818l9 0 0 9 -9 0 0 -9zm6 -18l0 23 -3 0 0 -23 3 0z"/>
    </g>
    <path class="fil2" d="M290 845l12 2c0,0 0,0 1,1 0,0 0,0 0,0 0,1 0,1 0,1 0,1 0,1 0,1l-9 9 0 0 0 0 2 12c0,1 0,1 0,1 0,1 -1,1 -1,1l0 0 -1 0 0 0 -1 0 -11 -5 0 0 0 0 -11 5c0,0 0,0 -1,0 0,0 0,0 -1,0 0,0 0,0 0,-1 0,0 0,0 0,-1l1 -12 0 0 0 0 -8 -9c0,0 -1,0 -1,0 0,0 0,-1 0,-1l0 0 0 0 0 -1c0,0 1,0 1,0 0,-1 0,-1 1,-1l12 -2 0 0 0 0 6 -11c0,0 0,0 0,0 1,-1 1,-1 1,-1 1,0 1,0 1,1 0,0 1,0 1,0l5 11 1 0 0 0z"/>
    <g>
     <path class="fil3" d="M920 1065l-5 0 0 -31c-1,1 -2,2 -4,3 -2,1 -4,2 -5,3l0 -5c2,-1 5,-3 7,-5 2,-2 3,-3 4,-5l3 0 0 40z"/>
     <path id="1" class="fil3" d="M933 1054l5 0c0,3 1,4 2,6 2,1 4,2 6,2 2,0 4,-1 5,-3 2,-2 3,-4 3,-7 0,-3 -1,-5 -2,-7 -2,-1 -4,-2 -7,-2 -1,0 -3,0 -4,1 -1,1 -2,2 -3,3l-4 -1 3 -20 20 0 0 4 -16 0 -2 11c3,-2 5,-2 8,-2 3,0 6,1 9,3 2,3 3,6 3,9 0,4 -1,7 -3,10 -3,3 -6,5 -10,5 -4,0 -7,-1 -9,-3 -3,-2 -4,-5 -4,-9z"/>
     <path class="fil2" d="M992 1037l12 2c0,0 1,1 1,1 0,0 0,0 0,1 0,0 0,0 0,1 0,0 0,0 0,0l-9 9 0 0 0 0 2 12c0,1 0,1 0,1 0,1 0,1 -1,1l0 0 -1 1 0 -1 -1 0 -10 -5 -1 0 0 0 -11 5c0,0 0,1 -1,1 0,-1 0,-1 0,-1 -1,0 -1,0 -1,-1 0,0 0,0 0,-1l2 -12 0 0 -1 0 -8 -9c0,0 0,0 0,0 0,0 -1,-1 -1,-1l0 0 1 0 0 0c0,-1 0,-1 0,-1 0,0 1,-1 1,-1l12 -2 0 0 0 0 6 -11c0,0 0,0 0,0 1,0 1,-1 1,-1 1,0 1,1 1,1 1,0 1,0 1,0l6 11 0 0 0 0z"/>
    </g>
    <g>
     <line class="fil1 str1" x1="1416" y1="991" x2="1416" y2= "1079" />
     <line class="fil1 str1" x1="500" y1="991" x2="500" y2= "1079" />
     <g>
      <path class="fil3" d="M1416 1050l-301 0 0 -2 301 0 0 2zm-5 -6l10 0 0 10 -10 0 0 -10z"/>
     </g>
     <g>
      <path class="fil3" d="M505 1044l0 10 -9 0 0 -10 9 0zm301 6l-306 0 0 -2 306 0 0 2z"/>
     </g>
    </g>
    <g>
     <line class="fil1 str2" x1="1893" y1="274" x2="2114" y2= "274" />
     <line class="fil1 str2" x1="2027" y1="945" x2="2114" y2= "945" />
     <g>
      <path class="fil4" d="M2093 274l0 220 -3 0 0 -220 3 0zm-6 4l0 -9 9 0 0 9 -9 0z"/>
     </g>
     <g>
      <path class="fil4" d="M2087 940l9 0 0 9 -9 0 0 -9zm6 -219l0 224 -3 0 0 -224 3 0z"/>
     </g>
    </g>
   </g>
  </g>
 </g>
</svg>
